<svg xmlns="http://www.w3.org/2000/svg" xmlns:xlink="http://www.w3.org/1999/xlink" viewBox="0 0 85.4 83"><defs><style>.cls-1{fill:url(#linear-gradient);}.cls-2{fill:url(#linear-gradient-2);}.cls-3{fill:url(#linear-gradient-3);}.cls-4{fill:url(#linear-gradient-4);}.cls-5{fill:url(#linear-gradient-5);}.cls-6{fill:url(#linear-gradient-6);}</style><linearGradient id="linear-gradient" x1="26.49" y1="83.75" x2="26.49" y2="71.46" gradientTransform="matrix(1, 0, 0, -1, 0, 84)" gradientUnits="userSpaceOnUse"><stop offset="0" stop-color="#9802ff"/><stop offset="1" stop-color="#247fea"/></linearGradient><linearGradient id="linear-gradient-2" x1="28.85" y1="84" x2="28.85" y2="52.37" xlink:href="#linear-gradient"/><linearGradient id="linear-gradient-3" x1="36.75" y1="83.58" x2="36.75" y2="30.28" xlink:href="#linear-gradient"/><linearGradient id="linear-gradient-4" x1="44.41" y1="68.79" x2="44.41" y2="12.4" xlink:href="#linear-gradient"/><linearGradient id="linear-gradient-5" x1="52.22" y1="46.3" x2="52.22" y2="2.52" xlink:href="#linear-gradient"/><linearGradient id="linear-gradient-6" x1="57.11" y1="17.91" x2="57.11" y2="1" xlink:href="#linear-gradient"/></defs><g id="Layer_2" data-name="Layer 2"><g id="Layer_1-2" data-name="Layer 1"><path class="cls-1" d="M19.08,4.42s-6.71,6.15-7.83,7.08-.76,1.21,1.58.93A161.21,161.21,0,0,0,31.19,8.48c5.68-1.73,9.23-3.79,10.34-5.08s1-2.71,0-3.08-.93.84-5.12,2.05A73.24,73.24,0,0,1,19.08,4.42Z"/><path class="cls-2" d="M44.05.25C46,.61,49.92,3.86,45.44,7S35,12.62,25.6,15.32A103.36,103.36,0,0,1,6.13,18.58c-.54.09-1.87,3.45-2.8,5.68a46.79,46.79,0,0,0-2,5.78c-.56,2,.09,1.77,3.17,1.21s23.58-5.5,30.38-8.11,16.77-8.08,19.56-10.6,2.24-7.09,1-8.67S51.8,1.2,49,.42C48.83.36,40.7-.38,44.05.25Z"/><path class="cls-3" d="M54.67.69c2.34,1,10.16,4.38,8.67,11.09-1.4,5.59-10.61,12.3-23,16.87S28.2,33.21,18.24,35.73A135.46,135.46,0,0,1,1.2,39C-.48,39.27,0,41.5.35,44.49a83.63,83.63,0,0,0,1.31,8.66c.38.93.38.56,3.54,0s26.93-6.52,34.57-9.69S59.71,35.08,64.65,30.7s8.85-9.13,8.85-13.61S70.15,9,66.61,5.91a22.12,22.12,0,0,0-8-4.57C57,.76,53.27,0,54.67.69Z"/><path class="cls-4" d="M6.22,60.23c2.17,0,19.47-3.72,29.91-7.17A117.66,117.66,0,0,0,64.64,39.83c5.42-3.45,11.74-10.44,13.14-14.07s0-7.68-1.3-9.94,2.33,2.39,3.54,4.62,4.75,8.67,3,15.66S75.73,48.49,65,54.92,40.4,65.55,29.61,68.25,16,71.32,14.23,71.6c-1.3,0-3.35-2.51-5.21-4.84S3.7,60.7,6.22,60.23Z"/><path class="cls-5" d="M25.94,74.57c-5.33.86-8.64,1.14-5.93,2.62,2,1.21,7.92,4.29,11.46,4.29S51.69,76.93,58,74.66a67.37,67.37,0,0,0,18.45-10.9C80,60.5,84.12,53,85,47.1s.28-8.11,0-9.23.38,3.45-2.33,9.23S70.89,59.3,61,64.14,35.81,73,25.94,74.57Z"/><path class="cls-6" d="M37.65,82.78c-4.12.53,13.61.24,20.36-2.6S72.33,71.9,76.12,67.4s-3,3.67-14.21,8.76A80.5,80.5,0,0,1,37.65,82.78Z"/></g></g></svg>