<svg id="Layer_1" data-name="Layer 1" xmlns="http://www.w3.org/2000/svg" viewBox="0 0 268 356.71"><defs><style>.cls-1{fill:#fff;}</style></defs><path d="M0,273.07c0-10.3,6.83-18.65,18.27-18.65,6.72,0,11.82,2.93,14.91,7.43l-7.7,5a9.23,9.23,0,0,0-7.21-4.39c-5.37,0-8.94,4.23-8.94,10.63s3.57,10.57,8.94,10.57a9.13,9.13,0,0,0,7.21-4.34l7.7,4.94c-3.09,4.5-8.19,7.42-14.91,7.42C6.83,291.66,0,283.31,0,273.07Z"/><path d="M40.22,254.85h13.5c9.05,0,14.48,5.59,14.48,12.47a11.91,11.91,0,0,1-6.51,10.74l6.51,13.17H59.63L54,279.84h-5.2v11.39H40.22Zm13.5,17c3.53,0,5.91-1.79,5.91-4.5s-2.38-4.44-5.91-4.44H48.79v8.94Z"/><path d="M91.12,273.45v17.78H82.56V273.5L69.82,254.85h9.7l7.27,10.57,7.32-10.57h9.75Z"/><path d="M110.37,254.85h13.49c9.06,0,14.48,5.59,14.48,12.47s-5.42,12.52-14.48,12.52h-4.93v11.39h-8.56Zm13.49,17c3.53,0,5.91-1.79,5.91-4.5s-2.38-4.44-5.91-4.44h-4.93v8.94Z"/><path d="M171.84,263.42h-9.49v27.81h-8.56V263.42H144.3v-8.57h27.54Z"/><path d="M178.88,254.85h8.57v36.38h-8.57Z"/><path d="M194.49,273.07c0-10.3,6.83-18.65,18.22-18.65s18.21,8.35,18.21,18.65-6.83,18.59-18.21,18.59S194.49,283.31,194.49,273.07Zm27.16,0c0-6.4-3.57-10.63-8.94-10.63s-8.89,4.23-8.89,10.63,3.58,10.57,8.89,10.57S221.65,279.41,221.65,273.07Z"/><path d="M268,254.85v36.38h-8.57l-12.9-21.85v21.85H238V254.85h8.56l12.9,21.85V254.85Z"/><path d="M23.06,338.12c0-10.3,6.84-18.65,18.27-18.65,6.73,0,11.82,2.92,14.91,7.42l-7.7,5a9.19,9.19,0,0,0-7.21-4.39c-5.36,0-8.94,4.23-8.94,10.63s3.58,10.57,8.94,10.57a9.12,9.12,0,0,0,7.21-4.34l7.7,4.93c-3.09,4.5-8.18,7.43-14.91,7.43C29.9,356.71,23.06,348.36,23.06,338.12Z"/><path d="M85.35,348.74H72l-2.76,7.54H60.14L74.67,319.9h8l14.53,36.38h-9.1Zm-3.2-8.56-3.47-9.44-3.47,9.44Z"/><path d="M103.18,319.9h13.5c9.06,0,14.48,5.58,14.48,12.47s-5.42,12.52-14.48,12.52h-4.93v11.39h-8.57Zm13.5,17c3.53,0,5.91-1.79,5.91-4.5s-2.38-4.45-5.91-4.45h-4.93v8.95Z"/><path d="M137.55,319.9h8.57v36.38h-8.57Z"/><path d="M180.54,328.47h-9.49v27.81h-8.56V328.47H153V319.9h27.54Z"/><path d="M204.66,348.74H191.32l-2.76,7.54h-9.11L194,319.9h8l14.53,36.38h-9.1Zm-3.2-8.56L198,330.74l-3.47,9.44Z"/><path d="M244.94,347.71v8.57H222.49V319.9h8.57v27.81Z"/><polygon class="cls-1" points="227.33 161.15 227.33 161.15 134.52 0 0.3 231.24 34.89 231.24 134.39 59.82 209.97 191.06 186.65 231.24 233.11 231.24 267.7 231.24 227.33 161.15"/><polygon class="cls-1" points="62.76 231.24 97.58 231.24 152.49 136.6 134.93 106.69 62.76 231.24"/><polygon class="cls-1" points="165.88 158.92 123.92 231.24 160.08 231.24 182.84 187.94 165.88 158.92"/></svg>