<svg id="Layer_1" data-name="Layer 1" xmlns="http://www.w3.org/2000/svg" viewBox="0 0 286.75 377.21"><path d="M69.62,207.12c-3-2.49-5.94-5.11-8.75-7.92A116.7,116.7,0,0,1,192.88,11L175.26,28.6A93.67,93.67,0,0,0,69.33,174.05S217.69,25.69,217.12,26.25c3,2.49,5.95,5.12,8.76,7.92A116.71,116.71,0,0,1,93.94,222.43l17.62-17.62A93.68,93.68,0,0,0,217.42,59.33S69.62,206.81,69.62,207.12Z"/><rect x="62.05" y="74.1" width="83.82" height="24.18" transform="translate(-30.49 98.76) rotate(-45)"/><rect x="132.17" y="144.22" width="83.82" height="24.18" transform="translate(-59.54 168.88) rotate(-45)"/><path d="M0,287.72c0-11,7.31-20,19.55-20,7.19,0,12.64,3.13,16,7.94l-8.24,5.34c-1.86-2.84-4.93-4.7-7.71-4.7-5.75,0-9.57,4.53-9.57,11.37S13.8,299,19.55,299a9.78,9.78,0,0,0,7.71-4.64l8.24,5.28c-3.31,4.81-8.76,7.94-15.95,7.94C7.31,307.61,0,298.68,0,287.72Z"/><path d="M43,268.23H57.48c9.68,0,15.48,6,15.48,13.34a12.72,12.72,0,0,1-7,11.49l7,14.09H63.8l-6-12.18H52.2v12.18H43Zm14.44,18.16c3.77,0,6.32-1.92,6.32-4.82s-2.55-4.75-6.32-4.75H52.2v9.57Z"/><path d="M97.5,288.13v19H88.33v-19L74.7,268.23H85.09l7.77,11.31,7.83-11.31h10.44Z"/><path d="M118.09,268.23h14.44c9.68,0,15.48,6,15.48,13.34s-5.8,13.4-15.48,13.4h-5.28v12.18h-9.16Zm14.44,18.16c3.77,0,6.32-1.92,6.32-4.82s-2.55-4.75-6.32-4.75h-5.28v9.57Z"/><path d="M183.86,277.4H173.71v29.75h-9.17V277.4H154.4v-9.17h29.46Z"/><path d="M191.4,268.23h9.16v38.92H191.4Z"/><path d="M208.1,287.72c0-11,7.31-20,19.49-20s19.49,8.93,19.49,20-7.31,19.89-19.49,19.89S208.1,298.68,208.1,287.72Zm29.06,0c0-6.84-3.83-11.37-9.57-11.37s-9.51,4.53-9.51,11.37S221.91,299,227.59,299,237.16,294.51,237.16,287.72Z"/><path d="M286.75,268.23v38.92h-9.17l-13.8-23.37v23.37h-9.16V268.23h9.16l13.8,23.38V268.23Z"/><path d="M31.12,347v7.19H42v9.16H31.12v13.4H22V337.83h24V347Z"/><path d="M52.75,337.83h9.16v38.92H52.75Z"/><path d="M102.05,337.83v38.92H92.88l-13.8-23.37v23.37H69.92V337.83h9.16l13.8,23.38V337.83Z"/><path d="M134.24,368.69H120l-3,8.06h-9.74l15.54-38.92h8.59l15.54,38.92H137.2Zm-3.42-9.17-3.72-10.09-3.71,10.09Z"/><path d="M185.45,337.83v38.92h-9.16l-13.81-23.37v23.37h-9.16V337.83h9.16l13.81,23.38V337.83Z"/><path d="M193,357.32c0-11,7.31-19.95,19.55-19.95,7.19,0,12.64,3.13,16,7.94l-8.24,5.34c-1.85-2.84-4.93-4.7-7.71-4.7-5.74,0-9.57,4.53-9.57,11.37s3.83,11.31,9.57,11.31a9.78,9.78,0,0,0,7.71-4.64l8.24,5.28c-3.31,4.81-8.76,7.94-16,7.94C200.3,377.21,193,368.28,193,357.32Z"/><path d="M245.19,347v5.74H256.1v9.16H245.19v5.69h20.07v9.16H236V337.83h29.23V347Z"/></svg>