<?xml version="1.0" encoding="utf-8"?>
<!-- Generator: Adobe Illustrator 24.2.0, SVG Export Plug-In . SVG Version: 6.00 Build 0)  -->
<svg version="1.1" id="Layer_1" xmlns="http://www.w3.org/2000/svg" xmlns:xlink="http://www.w3.org/1999/xlink" x="0px" y="0px"
	 viewBox="0 0 61.9 59.2" style="enable-background:new 0 0 61.9 59.2;" xml:space="preserve">
<style type="text/css">
	.st0{fill:url(#SVGID_1_);}
	.st1{fill:url(#SVGID_2_);}
	.st2{fill:url(#SVGID_3_);}
	.st3{enable-background:new    ;}
	.st4{fill:#FFFFFF;}
</style>
<linearGradient id="SVGID_1_" gradientUnits="userSpaceOnUse" x1="15.1258" y1="1064.1" x2="39.4658" y2="1039.76" gradientTransform="matrix(1 0 0 1 0 -1018)">
	<stop  offset="0" style="stop-color:#2082E9"/>
	<stop  offset="0.11" style="stop-color:#336DEC"/>
	<stop  offset="0.4" style="stop-color:#5F3EF4"/>
	<stop  offset="0.65" style="stop-color:#7F1CFA"/>
	<stop  offset="0.86" style="stop-color:#9208FE"/>
	<stop  offset="1" style="stop-color:#9900FF"/>
</linearGradient>
<polygon class="st0" points="52.7,43 11.9,42.9 1.7,25 42.6,25 "/>
<linearGradient id="SVGID_2_" gradientUnits="userSpaceOnUse" x1="15.0727" y1="1050.9481" x2="39.429" y2="1026.6018" gradientTransform="matrix(1 0 0 1 0 -1018)">
	<stop  offset="0" style="stop-color:#2082E9"/>
	<stop  offset="0.11" style="stop-color:#336DEC"/>
	<stop  offset="0.4" style="stop-color:#5F3EF4"/>
	<stop  offset="0.65" style="stop-color:#7F1CFA"/>
	<stop  offset="0.86" style="stop-color:#9208FE"/>
	<stop  offset="1" style="stop-color:#9900FF"/>
</linearGradient>
<polygon class="st1" points="52.7,29.8 11.9,29.8 1.7,11.8 42.6,11.8 "/>
<linearGradient id="SVGID_3_" gradientUnits="userSpaceOnUse" x1="15.1258" y1="1039.1" x2="39.4658" y2="1014.76" gradientTransform="matrix(1 0 0 1 0 -1018)">
	<stop  offset="0" style="stop-color:#2082E9"/>
	<stop  offset="0.11" style="stop-color:#336DEC"/>
	<stop  offset="0.4" style="stop-color:#5F3EF4"/>
	<stop  offset="0.65" style="stop-color:#7F1CFA"/>
	<stop  offset="0.86" style="stop-color:#9208FE"/>
	<stop  offset="1" style="stop-color:#9900FF"/>
</linearGradient>
<polygon class="st2" points="52.7,18 11.9,17.9 1.7,0 42.6,0 "/>
<g class="st3">
	<path class="st4" d="M1.2,48.2h2.1c2.6,0,4.1,1.8,4.1,4c0,2.2-1.5,4-4.1,4H1.2V48.2z M3.3,54.8c1.5,0,2.5-1.1,2.5-2.6
		c0-1.5-1-2.6-2.5-2.6H2.7v5.2H3.3z"/>
</g>
<g class="st3">
	<path class="st4" d="M10,49.7v1.7h2.4V53H10v1.7h4.3v1.5H8.5v-8h5.8v1.5H10z"/>
</g>
<g class="st3">
	<path class="st4" d="M17.1,49.7v1.9h2.4v1.5h-2.4v3h-1.5v-8h4.8v1.5H17.1z"/>
</g>
<g class="st3">
	<path class="st4" d="M21.2,48.2h1.5v8h-1.5V48.2z"/>
</g>
<g class="st3">
	<path class="st4" d="M26.6,54.9l1-1c0.1,0.1,0.9,1,1.8,1c0.7,0,1.2-0.3,1.2-0.8c0-1.2-3.9-1.4-3.9-3.7c0-1.3,1.2-2.3,2.7-2.3
		c1.5,0,2.8,1.3,2.9,1.4l-1,1c-0.1-0.1-0.9-1-1.9-1c-0.7,0-1.2,0.3-1.2,0.8c0,1.2,3.9,1.4,3.9,3.7c0,1.3-1.2,2.3-2.7,2.3
		C27.9,56.3,26.7,55.1,26.6,54.9z"/>
</g>
<g class="st3">
	<path class="st4" d="M39.1,49.7h-2.4v6.5h-1.5v-6.5h-2.3v-1.5h6.2V49.7z"/>
</g>
<g class="st3">
	<path class="st4" d="M43.8,54.3h-3.2l-0.7,1.9h-1.6l3.3-8h1.4l3.3,8h-1.6L43.8,54.3z M43.2,52.8l-1-2.7l-1,2.7H43.2z"/>
</g>
<g class="st3">
	<path class="st4" d="M46.1,52.2c0-2.3,1.5-4.1,4-4.1c1.5,0,2.7,0.7,3.3,1.8L52,50.8c-0.4-0.7-1.2-1.2-1.9-1.2
		c-1.4,0-2.3,1.1-2.3,2.7c0,1.6,0.9,2.7,2.3,2.7c0.8,0,1.5-0.5,1.9-1.2l1.4,0.9c-0.7,1.1-1.8,1.8-3.3,1.8
		C47.6,56.3,46.1,54.5,46.1,52.2z"/>
	<path class="st4" d="M58,51.7l2.7,4.5H59l-2-3.3l-1,1.2v2.1h-1.5v-8h1.5v3.7l3-3.7h1.8L58,51.7z"/>
</g>
</svg>
