<svg id="Layer_1" data-name="Layer 1" xmlns="http://www.w3.org/2000/svg" viewBox="0 0 179.28 375.98"><defs><style>.cls-1{opacity:0.18;}.cls-2{fill:#fff;}</style></defs><polygon points="89.64 0 24.2 113.34 155.08 113.34 89.64 0"/><polygon points="155.08 113.34 89.64 0 89.64 113.34 155.08 113.34"/><polygon class="cls-1" points="155.08 113.34 89.64 0 89.64 113.34 155.08 113.34"/><polygon points="89.64 85.01 24.2 113.34 89.64 141.68 155.08 113.34 89.64 85.01"/><polygon points="89.64 141.68 155.08 113.34 89.64 85.01 89.64 141.68"/><polygon class="cls-1" points="89.64 141.68 155.08 113.34 89.64 85.01 89.64 141.68"/><polygon points="89.64 151.57 24.2 123.23 89.64 233.74 155.08 123.23 89.64 151.57"/><polygon points="89.64 233.74 155.08 123.23 89.64 151.57 89.64 233.74"/><polygon class="cls-1" points="89.64 233.74 155.08 123.23 89.64 151.57 89.64 233.74"/><path class="cls-2" d="M9.16,276.17v5.74H20.07v9.16H9.16v5.69H29.23v9.16H0V267H29.23v9.17Z"/><path class="cls-2" d="M66.24,276.17H56.08v29.75H46.92V276.17H36.77V267H66.24Z"/><path class="cls-2" d="M104.11,267v38.92H95V290.67h-12v15.25H73.78V267h9.16v14.5H95V267Z"/><path class="cls-2" d="M121.28,276.17v5.74h10.9v9.16h-10.9v5.69h20.06v9.16H112.11V267h29.23v9.17Z"/><path class="cls-2" d="M149.35,267h14.44c9.69,0,15.49,6,15.49,13.34a12.74,12.74,0,0,1-7,11.49l7,14.09h-9.17l-6-12.18h-5.57v12.18h-9.16Zm14.44,18.16c3.77,0,6.32-1.92,6.32-4.82s-2.55-4.75-6.32-4.75h-5.28v9.57Z"/><path class="cls-2" d="M17.75,336.6H32.19c9.69,0,15.49,6,15.49,13.34a12.74,12.74,0,0,1-7,11.49l7,14.09H38.51l-6-12.18H26.91v12.18H17.75Zm14.44,18.16c3.77,0,6.32-1.92,6.32-4.82s-2.55-4.75-6.32-4.75H26.91v9.57Z"/><path class="cls-2" d="M55.1,360.32V336.54h9.16v23.78c0,4.24,2.73,7.08,6.85,7.08S78,364.56,78,360.32V336.54h9.17v23.78c0,9.81-7.14,15.66-16,15.66S55.1,370.13,55.1,360.32Z"/><path class="cls-2" d="M94.08,368.73l6.2-6.2s3.89,4.87,8.3,4.87c2.66,0,4.46-1.1,4.46-2.78,0-4.24-17.92-6.44-17.92-17,0-7,6.79-11.42,13.51-11.48,7.89,0,14.45,7.25,14.45,7.25l-6.21,6.2s-3.89-4.87-8.29-4.87c-2.67,0-4.47,1.1-4.47,2.79,0,4.29,17.92,6.43,17.92,17.05,0,6.9-6.78,11.42-13.51,11.42C100.63,376,94.08,368.73,94.08,368.73Z"/><path class="cls-2" d="M161,336.6v38.92h-9.16V360.27h-12v15.25h-9.16V336.6h9.16v14.5h12V336.6Z"/></svg>