<svg xmlns="http://www.w3.org/2000/svg" viewBox="0 0 155.22 201.38"><defs><style>.cls-1,.cls-2{fill:#fff;}.cls-2{fill-rule:evenodd;}</style></defs><g id="Layer_2" data-name="Layer 2"><g id="Layer_1-2" data-name="Layer 1"><path class="cls-1" d="M0,193.1H5.55v-9.71h5c7.06,0,11.27-4.33,11.27-9.7S17.59,164,10.53,164H0Zm5.55-14.95v-8.93h5c3.47,0,5.68,1.87,5.68,4.47s-2.21,4.46-5.68,4.46Zm28.63,15.3A11.18,11.18,0,1,0,23,182.27,11.18,11.18,0,0,0,34.18,193.45Zm.22-5.2c-3.29,0-5.63-2.52-5.63-6s2.34-6,5.63-6,5.63,2.51,5.63,6A5.63,5.63,0,0,1,34.4,188.25Zm14.47,4.85h5.55V160.82H48.87Zm23.39-21.67-4.6,12.27-4.85-12.27H57.26l7.67,19.46L61,201.38h5.55L77.8,171.43Zm9.68,21.67h6.59c9.83,0,15.68-6.54,15.68-14.56S98.36,164,88.53,164H81.94Zm2.86-2.73V166.71h3.73c7.8,0,12.56,5.2,12.56,11.83s-4.76,11.83-12.56,11.83Zm42.91-23.53V164H108.6V193.1h19.11v-2.86H111.46V179.71h9.14v-2.86h-9.14v-10Zm27.51,26.26-9.88-14.69L155.05,164H151.8l-8.06,12-8.1-12h-3.25l9.7,14.43-9.88,14.69h3.25l8.28-12.26L152,193.1Z"/><path class="cls-2" d="M88.09,16.89,94,20.3c13.81,8,33.27,19.21,34.05,19.78,1.19.87,1.31,1,0,1.74l-6.23,3.59S82.74,68,80.57,69.3s-3.71,1.54-5.57.43c0,0-9-4.94-11.09-6.28L63,62.92h0c-1.72-1.05-2.94-1.79-1.86-2.71A43.78,43.78,0,0,1,67,57c.68-.41,1.21-.8,1.65-1.12.77-.56,1.27-.93,1.82-.86.87.12,3.4,2,4.7,3l.38.3c1,.79,1.45,1.14,3.25.26,2-1,27.8-16,28.66-16.59s1.19-1.42.44-2c-.38-.28-6.78-4-13.29-7.74h0c-6.51-3.77-13.12-7.6-13.87-8.09-1.5-1-3.16-1.62-4.27-1-.27.17-2.1,1.22-4.74,2.73h0c-8.18,4.69-24.08,13.81-25.07,14.64s.45,1.36,1.93,2a15.29,15.29,0,0,1,1.9.94l.65.41c1.27.79,1.76,1.09,1,1.57s-6.12,3.95-7.42,5-1.74.83-2.84,0c-.7-.5-6.2-3.66-10.38-6.07h0C29,43,27,41.82,26.68,41.62c-.87-.55-1.43-1.11-.75-1.54s14.84-8.17,14.84-8.17S58,22,67.66,16.32L56.2,9.54,59.54,0ZM51.27,64.83V62c.42-.2,17.22-9.7,23.53-13.94,1.23-.83,3.4-1.26,4.62-.51a20.78,20.78,0,0,1,3.52,2.84c1.18,1.15,1.93.71,3,0s8.84-5.56,8.84-5.56-12.24-7-13.66-7.66S76.9,35.34,75,36.45l-.59.33C70,39.33,45.54,53.4,43.61,54.33a3.46,3.46,0,0,0-2.17,4c.24.73.78,1,1.86,1.57h0c.55.28,1.24.63,2.09,1.15C47.88,62.54,51.27,64.83,51.27,64.83Zm20.85,35.93L62.05,95l0-8.69L30.27,68.15v37L62,122.71l-.12-8.09,10.51,5.69v.09h.24v32.66L62.47,155V135.65c-4.12-2.4-8.12-4.76-8.12-4.76s-32-18.92-33.08-19.67l-.19-.12c-.93-.63-1-.69-1.23-1.61s0-36.56,0-36.56V51.09c0-1.18,1-.67,2,0,.5.35,12,7,23.55,13.66C56.46,71.16,67.5,77.54,68.53,78.18c.37.24.72.45,1,.64h0c1.37.84,2.11,1.3,2.56,2.2C72.67,82.09,72.12,100.76,72.12,100.76ZM41.24,78.14,51.19,84l-.11,9s24.55,13.78,25.86,14.1a4.49,4.49,0,0,0,2.72-.44V118.8a15.09,15.09,0,0,1-2.65,0,4.94,4.94,0,0,1-2.34-1.06h0c-.42-.28-.89-.59-1.45-.91C71.49,115.88,40.69,98,40.69,98Zm62.62-16.46a1.41,1.41,0,0,1-1.46,0l0,0c-.88-.43-.76-1,0-1.33h0c.59-.35,7-3.95,8.53-4.75l0,0,.07,0h0a2.2,2.2,0,0,1,3.16,1.69c.11,1.46.55,37.27,0,39.29s-1.66,2.8-6,5.17c-2.35,1.27-5.35,3.14-7.67,4.59h0a28.79,28.79,0,0,1-3.67,2.16c-.35-.12-.43-11.33,0-11.88A28.63,28.63,0,0,1,101,94.3h0c1.17-.57,2.19-1.06,2.43-1.24.5-.39.55-.92.64-2h0l0-.34C104.18,89.27,103.86,61.68,103.86,61.68ZM93,86.27l7.43-4V71.69h0c0-1,0-1.32-1-.58-.65.45-4,2.41-7.24,4.3h0c-2.49,1.45-4.91,2.87-6,3.52-2.44,1.5-2.72,2-2.8,4.22,0,1.32,0,20.74,0,36.23h-.07V154L93,156V135.13l21.94-13s17.64-9.83,18.75-10.78a3.8,3.8,0,0,0,1.78-3c.07-1.23,0-41.61,0-53h0V52.23c0-1.27,0-1.82-1.42-1.29s-16,9-16.35,9.35-.22,3.51-.18,6h0c0,.79,0,1.5,0,2,0,2.25,0,3.67,0,3.67l7.5-3.67v36.08L95.29,122.16c-1.57,1-2.05,1.11-2.25,0,0-.15,0-.94-.06-2.2v-.58h0C92.9,110.92,93,86.27,93,86.27Z"/></g></g></svg>