<svg id="Layer_1" data-name="Layer 1" xmlns="http://www.w3.org/2000/svg" xmlns:xlink="http://www.w3.org/1999/xlink" viewBox="0 0 305.42 305.39"><defs><style>.cls-1{fill:url(#linear-gradient);}</style><linearGradient id="linear-gradient" x1="-90.53" y1="259.21" x2="387.35" y2="-21.16" gradientUnits="userSpaceOnUse"><stop offset="0" stop-color="#2082e9"/><stop offset="0.11" stop-color="#336dec"/><stop offset="0.4" stop-color="#5f3ef4"/><stop offset="0.65" stop-color="#7f1cfa"/><stop offset="0.86" stop-color="#9208fe"/><stop offset="1" stop-color="#90f"/></linearGradient></defs><path class="cls-1" d="M251.68,177.88c13.18-5.81,25.94-13.34,36.2-23.56,8.22-8.19,14.8-18.37,16.87-29.93a47.07,47.07,0,0,0-6.11-32c-6.56-11.22-16.69-20-27.53-27q-4.74-3-9.72-5.62c-1.72-.91-3.47-1.78-5.23-2.62-.84-.41-1.69-.8-2.54-1.19l-1.3-.58a2.13,2.13,0,0,1-1.12-1,117.45,117.45,0,0,0-44-40.8A116.14,116.14,0,0,0,88.41,19.4,117.87,117.87,0,0,0,59.27,47q-1.52,2-2.94,4.13c-.47.7-.94,1.4-1.4,2.11s-.84,1.63-1.53,2c-1.7,1-3.65,1.66-5.42,2.52s-3.46,1.74-5.17,2.65A119.27,119.27,0,0,0,24.7,72.3C15.24,79.89,6.89,89.45,2.71,101a45.81,45.81,0,0,0,.48,32.31c4.51,11.46,13.08,20.88,22.69,28.35A122.84,122.84,0,0,0,44.3,173.36q2.6,1.35,5.25,2.61c.85.4,1.7.8,2.55,1.18.43.19.89.35,1.3.58a3,3,0,0,1,1,1.16q2.72,4.28,5.81,8.31a117.67,117.67,0,0,0,29.49,27.24,116.16,116.16,0,0,0,118.89,4.29,117.6,117.6,0,0,0,43.13-40.85Zm41.07-61.37c0,13.87-9.32,25.49-19.63,33.79a101.09,101.09,0,0,1-11.72,8.07,116.61,116.61,0,0,0,5.31-65.81,115.41,115.41,0,0,0-5.31-17.91c12.33,7.33,25,17.59,29.67,31.69A32.31,32.31,0,0,1,292.75,116.51Zm-207.35,0A67,67,0,1,1,86.21,127,67.39,67.39,0,0,1,85.4,116.51Zm17.79,62.76a211.81,211.81,0,0,1-37.1-10.34l-1.92-.75a4.81,4.81,0,0,1-2.07-1.07,27.92,27.92,0,0,1-2.11-4c-1.34-2.64-2.56-5.34-3.66-8.08a103.46,103.46,0,0,1-1.6-72.85c1-2.85,2.13-5.66,3.38-8.41q.95-2.05,2-4.07a28.53,28.53,0,0,1,2-3.82c.39-.56,1.25-.75,1.9-1l2.08-.81c1.41-.55,2.82-1.07,4.25-1.58,2.92-1,5.88-2,8.85-2.92,6.26-1.9,12.61-3.51,19-4.85q2.49-.52,5-1a79.87,79.87,0,0,0,0,125.53ZM232.7,116.51a80.25,80.25,0,0,0-19.23-51.94,81.21,81.21,0,0,0-11.26-10.83,211.84,211.84,0,0,1,37.1,10.35c.64.24,1.28.5,1.92.75s1.63.49,2.06,1.07a26.49,26.49,0,0,1,2.12,4c1.33,2.64,2.55,5.34,3.66,8.08a103.46,103.46,0,0,1,1.6,72.85c-1,2.85-2.13,5.66-3.38,8.41q-.94,2.06-2,4.07a29.16,29.16,0,0,1-2,3.82c-.39.56-1.25.74-1.9,1l-2.08.82c-1.41.54-2.82,1.07-4.25,1.58-2.92,1-5.88,2-8.85,2.92-6.26,1.9-12.61,3.51-19,4.85-1.66.35-3.32.68-5,1a79.73,79.73,0,0,0,30.49-62.76ZM152.7,12.7a103.89,103.89,0,0,1,77.17,34.46,258.42,258.42,0,0,0-58.81-10.1A295.59,295.59,0,0,0,107.25,40a240.48,240.48,0,0,0-31.72,7.17A104.91,104.91,0,0,1,101.38,26.3,103.22,103.22,0,0,1,152.7,12.7Zm-140,103.81C12.65,102.64,22,91,32.28,82.72A101.09,101.09,0,0,1,44,74.65a115.94,115.94,0,0,0,0,83.72C31.67,151,19,140.78,14.33,126.68A32.31,32.31,0,0,1,12.65,116.51Zm62.87,69.35A258.5,258.5,0,0,0,134.33,196,294.39,294.39,0,0,0,198.15,193a240.09,240.09,0,0,0,31.72-7.16A104.73,104.73,0,0,1,204,206.72,103.57,103.57,0,0,1,105,208.67,104.28,104.28,0,0,1,78.4,188.92Q76.93,187.42,75.52,185.86Z"/><path d="M82.24,298.14l6.21-6.21s3.88,4.87,8.29,4.87c2.67,0,4.47-1.1,4.47-2.78,0-4.24-17.92-6.44-17.92-17,0-7,6.78-11.42,13.51-11.48,7.89,0,14.44,7.25,14.44,7.25L105,279s-3.89-4.87-8.3-4.87c-2.67,0-4.46,1.1-4.46,2.78,0,4.29,17.92,6.44,17.92,17,0,6.9-6.79,11.43-13.52,11.43C88.8,305.39,82.24,298.14,82.24,298.14Z"/><path d="M128,275.17v5.74h10.9v9.16H128v5.69H148v9.16H118.78V266H148v9.16Z"/><path d="M165.18,275.17v5.74h10.91v9.16H165.18v5.69h20.07v9.16H156V266h29.23v9.16Z"/><path d="M193.25,266h14.44c9.69,0,15.49,6,15.49,13.34a12.71,12.71,0,0,1-7,11.48l7,14.09H214l-6-12.18h-5.57v12.18h-9.17Zm14.44,18.15c3.78,0,6.33-1.92,6.33-4.81s-2.55-4.76-6.33-4.76h-5.27v9.57Z"/></svg>