<svg xmlns="http://www.w3.org/2000/svg" xmlns:xlink="http://www.w3.org/1999/xlink" viewBox="0 0 156.82 133.02"><defs><style>.cls-1{fill:url(#linear-gradient);}.cls-2{fill:url(#linear-gradient-2);}.cls-3{fill:url(#linear-gradient-3);}</style><linearGradient id="linear-gradient" y1="66.51" x2="156.82" y2="66.51" gradientUnits="userSpaceOnUse"><stop offset="0" stop-color="#01d9c0"/><stop offset="1" stop-color="#90f"/></linearGradient><linearGradient id="linear-gradient-2" x1="71.81" y1="112.22" x2="106.7" y2="112.22" xlink:href="#linear-gradient"/><linearGradient id="linear-gradient-3" x1="36.18" y1="97.1" x2="88.93" y2="97.1" xlink:href="#linear-gradient"/></defs><title>Asset 6</title><g id="Layer_2" data-name="Layer 2"><g id="Layer_1-2" data-name="Layer 1"><polygon class="cls-1" points="156.82 133.02 108.93 133.02 114.9 122.89 114.9 122.87 114.92 122.86 114.92 122.84 122.48 110 122.45 110.08 122.48 110 122.48 110 114.32 96.12 114.29 96.09 103.93 78.53 103.92 78.49 96.56 66.02 96.51 65.94 86.11 48.31 86.1 48.26 77.95 34.43 77.92 34.39 77.89 34.45 70.35 47.23 70.33 47.26 62.79 60.05 19.78 133.02 0 133.02 52.9 43.26 60.44 30.48 60.46 30.45 68 17.68 68.03 17.62 78.41 0 88.3 16.78 88.33 16.81 96.47 30.64 96.5 30.69 106.9 48.34 106.94 48.41 114.3 60.88 114.32 60.91 124.67 78.47 124.68 78.52 132.87 92.38 132.87 92.39 143.27 110.03 156.82 133.02"/><polygon class="cls-2" points="106.7 108.97 99.16 121.75 92.52 133.02 71.81 133.02 88.81 104.19 96.35 91.41 106.7 108.97"/><polygon class="cls-3" points="88.93 78.82 81.39 91.6 56.99 133.02 36.17 133.02 70.99 73.95 78.53 61.18 88.93 78.82"/></g></g></svg>