<svg xmlns="http://www.w3.org/2000/svg" xmlns:xlink="http://www.w3.org/1999/xlink" viewBox="0 0 210.77 217.67"><defs><style>.cls-1{fill:#2d2d2d;}.cls-2{fill:#fff;}.cls-3,.cls-4,.cls-5{stroke:#fff;stroke-miterlimit:10;stroke-width:0.5px;}.cls-3{fill:url(#linear-gradient);}.cls-4{fill:url(#linear-gradient-2);}.cls-5{fill:url(#linear-gradient-3);}</style><linearGradient id="linear-gradient" x1="38.28" y1="82.69" x2="179.39" y2="82.69" gradientUnits="userSpaceOnUse"><stop offset="0" stop-color="#01d9c0"/><stop offset="1" stop-color="#90f"/></linearGradient><linearGradient id="linear-gradient-2" x1="102.9" y1="123.82" x2="134.29" y2="123.82" xlink:href="#linear-gradient"/><linearGradient id="linear-gradient-3" x1="70.83" y1="110.22" x2="118.3" y2="110.22" xlink:href="#linear-gradient"/></defs><title>Asset 11</title><g id="Layer_2" data-name="Layer 2"><g id="Layer_1-2" data-name="Layer 1"><rect class="cls-1" width="210.77" height="217.67" rx="12.03"/><path class="cls-2" d="M43.52,166.05a4.93,4.93,0,0,1-2-2,6.36,6.36,0,0,1-.69-3v-4a6.22,6.22,0,0,1,.7-3,5,5,0,0,1,2-2,6,6,0,0,1,3-.71h2.29a5.73,5.73,0,0,1,2.85.69,4.88,4.88,0,0,1,1.92,1.93,6,6,0,0,1,.68,2.88H51.33a3.05,3.05,0,0,0-.69-2.08,2.29,2.29,0,0,0-1.82-.79H46.53a2.39,2.39,0,0,0-1.94.9,3.58,3.58,0,0,0-.73,2.34v3.72a3.63,3.63,0,0,0,.71,2.34,2.27,2.27,0,0,0,1.88.9h2.33a2.31,2.31,0,0,0,1.87-.89,3.58,3.58,0,0,0,.72-2.33h2.94a6.55,6.55,0,0,1-.69,3.07A5,5,0,0,1,51.67,166a5.69,5.69,0,0,1-2.89.72H46.45A5.91,5.91,0,0,1,43.52,166.05Z"/><path class="cls-2" d="M60.48,151.47h8a4.58,4.58,0,0,1,3.16,1.06,3.52,3.52,0,0,1,1.2,2.78v1.52a3.09,3.09,0,0,1-.64,1.95A3.86,3.86,0,0,1,70.4,160v.05a3.2,3.2,0,0,1,1,1,8,8,0,0,1,.71,1.62l1.21,3.85H70.27L69.12,163a2.93,2.93,0,0,0-.77-1.38,1.8,1.8,0,0,0-1.24-.45H63.47v5.42h-3ZM68,158.6a2,2,0,0,0,1.42-.49,1.62,1.62,0,0,0,.52-1.26v-1.41a1.33,1.33,0,0,0-.39-1,1.42,1.42,0,0,0-1-.38h-5v4.54Z"/><path class="cls-2" d="M83.44,160.71l-5.59-9.24h3.24l3.84,6.5,3.84-6.5H92l-5.59,9.24v5.88h-3Z"/><path class="cls-2" d="M97.63,151.47h8a5.12,5.12,0,0,1,2.33.51,3.8,3.8,0,0,1,1.58,1.44,4.18,4.18,0,0,1,.56,2.15v2a4.21,4.21,0,0,1-.59,2.22,3.93,3.93,0,0,1-1.63,1.49,5.29,5.29,0,0,1-2.42.52h-4.82v4.78h-3Zm7.75,7.75a1.63,1.63,0,0,0,1.23-.48,1.77,1.77,0,0,0,.48-1.29V155.7a1.69,1.69,0,0,0-.42-1.2,1.5,1.5,0,0,0-1.12-.44h-4.94v5.16Z"/><path class="cls-2" d="M119.48,154.06h-4.79v-2.59h12.57v2.59h-4.8v12.53h-3Z"/><path class="cls-2" d="M133.39,151.47h3v15.12h-3Z"/><path class="cls-2" d="M145.91,166a5.08,5.08,0,0,1-2-2,6.11,6.11,0,0,1-.73-3v-3.88a6.08,6.08,0,0,1,.73-3,5,5,0,0,1,2-2,6.12,6.12,0,0,1,3-.72h2.29a6.15,6.15,0,0,1,3,.72,5.08,5.08,0,0,1,2,2,6.18,6.18,0,0,1,.72,3V161a6.21,6.21,0,0,1-.72,3,5.15,5.15,0,0,1-2,2,6.15,6.15,0,0,1-3,.72h-2.29A6.12,6.12,0,0,1,145.91,166Zm5.3-1.91a2.54,2.54,0,0,0,2-.91,3.58,3.58,0,0,0,.76-2.38v-3.63a3.55,3.55,0,0,0-.76-2.37,2.51,2.51,0,0,0-2-.91h-2.29a2.49,2.49,0,0,0-2,.91,3.55,3.55,0,0,0-.77,2.37v3.63a3.58,3.58,0,0,0,.77,2.38,2.52,2.52,0,0,0,2,.91Z"/><path class="cls-2" d="M163.54,151.47h2.65l7.26,10.28V151.47h2.92v15.12h-2.66l-7.26-10.28v10.28h-2.91Z"/><path class="cls-2" d="M55.68,192a4.87,4.87,0,0,1-2-2,6.22,6.22,0,0,1-.7-3v-4a6.29,6.29,0,0,1,.71-3,4.86,4.86,0,0,1,2-2,6,6,0,0,1,3-.72H61a5.73,5.73,0,0,1,2.85.69,4.82,4.82,0,0,1,1.91,1.94,5.81,5.81,0,0,1,.68,2.88H63.49a3,3,0,0,0-.69-2.08,2.31,2.31,0,0,0-1.82-.79H58.69a2.41,2.41,0,0,0-1.94.89,3.59,3.59,0,0,0-.74,2.35v3.71a3.59,3.59,0,0,0,.72,2.34,2.27,2.27,0,0,0,1.88.9h2.33a2.3,2.3,0,0,0,1.87-.89,3.57,3.57,0,0,0,.72-2.33h2.94a6.6,6.6,0,0,1-.69,3.08,5,5,0,0,1-2,2,5.69,5.69,0,0,1-2.89.73H58.61A5.81,5.81,0,0,1,55.68,192Z"/><path class="cls-2" d="M81.07,189H75.41l-1.34,3.52H71l5.92-15.11h1.34a1.88,1.88,0,0,1,1.9,1.29l5.37,13.82H82.38Zm-4.86-2.5h4.06l-2-5.45h0Z"/><path class="cls-2" d="M91.24,177.39h8a5.15,5.15,0,0,1,2.33.5,3.73,3.73,0,0,1,1.57,1.45,4.06,4.06,0,0,1,.57,2.15v2a4.17,4.17,0,0,1-.59,2.21,3.92,3.92,0,0,1-1.63,1.49,5.37,5.37,0,0,1-2.43.53H94.22v4.77h-3ZM99,185.14a1.63,1.63,0,0,0,1.23-.49,1.74,1.74,0,0,0,.48-1.28v-1.75a1.63,1.63,0,0,0-.43-1.2,1.44,1.44,0,0,0-1.11-.44H94.22v5.16Z"/><path class="cls-2" d="M109.85,177.39h3V192.5h-3Z"/><path class="cls-2" d="M123.76,180H119v-2.59h12.56V180h-4.79V192.5h-3Z"/><path class="cls-2" d="M144.15,189h-5.66l-1.34,3.52H134L140,177.39h1.34a1.88,1.88,0,0,1,1.9,1.29l5.37,13.82h-3.11Zm-4.86-2.5h4.06l-2-5.45h0Z"/><path class="cls-2" d="M154.76,192a1.94,1.94,0,0,1-.57-1.46v-13.1h3v12.52h8.2v2.59h-9.09A2.09,2.09,0,0,1,154.76,192Z"/><polygon class="cls-3" points="179.39 142.54 136.3 142.54 141.67 133.42 141.67 133.41 141.69 133.39 141.69 133.38 148.5 121.82 148.47 121.89 148.5 121.82 148.5 121.82 141.15 109.33 141.12 109.31 131.8 93.51 131.79 93.47 125.17 82.25 125.13 82.18 115.77 66.31 115.76 66.27 108.42 53.82 108.39 53.78 108.37 53.84 101.58 65.34 101.57 65.37 94.78 76.87 56.08 142.54 38.28 142.54 85.88 61.77 92.67 50.27 92.68 50.24 99.47 38.75 99.5 38.7 108.84 22.84 117.74 37.94 117.76 37.97 125.09 50.42 125.11 50.46 134.47 66.34 134.51 66.41 141.13 77.63 141.15 77.65 150.46 93.45 150.48 93.49 157.84 105.97 157.84 105.98 167.2 121.85 179.39 142.54"/><polygon class="cls-4" points="134.29 120.89 127.51 132.4 121.53 142.54 102.9 142.54 118.19 116.6 124.98 105.09 134.29 120.89"/><polygon class="cls-5" points="118.3 93.76 111.52 105.27 89.56 142.54 70.83 142.54 102.16 89.39 108.94 77.89 118.3 93.76"/></g></g></svg>