<svg xmlns="http://www.w3.org/2000/svg" xmlns:xlink="http://www.w3.org/1999/xlink" viewBox="0 0 210.77 217.67"><defs><style>.cls-1{fill:#2d2d2d;}.cls-2,.cls-3,.cls-4{stroke:#fff;stroke-miterlimit:10;stroke-width:0.5px;}.cls-2{fill:url(#linear-gradient);}.cls-3{fill:url(#linear-gradient-2);}.cls-4{fill:url(#linear-gradient-3);}.cls-5{fill:#fff;}</style><linearGradient id="linear-gradient" x1="60.62" y1="120.19" x2="143.24" y2="37.57" gradientUnits="userSpaceOnUse"><stop offset="0" stop-color="#01d9c0"/><stop offset="1" stop-color="#90f"/></linearGradient><linearGradient id="linear-gradient-2" x1="68.45" y1="77.52" x2="98.81" y2="47.16" xlink:href="#linear-gradient"/><linearGradient id="linear-gradient-3" x1="103.29" y1="112.36" x2="133.65" y2="82" xlink:href="#linear-gradient"/></defs><title>Asset 9</title><g id="Layer_2" data-name="Layer 2"><g id="Layer_1-2" data-name="Layer 1"><rect class="cls-1" width="210.77" height="217.67" rx="12.03"/><path class="cls-2" d="M143.24,120.19a58.42,58.42,0,0,1-67.54,10.9L85,121.83a46.17,46.17,0,0,0,53.66-71L65.18,124.29a56.62,56.62,0,0,1-4.56-4.1,58.52,58.52,0,0,1-10.91-15.08,58.45,58.45,0,0,1,78.45-78.45l-9.27,9.27A46.2,46.2,0,0,0,59,95.84a45.28,45.28,0,0,0,6.26,11.07l73.44-73.45a59.08,59.08,0,0,1,8.66,8.66,57.08,57.08,0,0,1,6.8,10.53,57.79,57.79,0,0,1,4.63,12.7,58.39,58.39,0,0,1-15.53,54.84Z"/><path class="cls-3" d="M94.4,42.75c3.49,3.55,5.11,5.16,8.78,8.84L73,81.77c-3.49-3.39-5.32-4.7-8.81-8.81Z"/><path class="cls-4" d="M129.24,77.59c3.49,3.55,5.11,5.16,8.78,8.84l-30.18,30.18c-3.49-3.4-5.32-4.7-8.81-8.81Z"/><path class="cls-5" d="M36.33,160.17a5,5,0,0,1-2-2,6.45,6.45,0,0,1-.69-3v-4a6.26,6.26,0,0,1,.7-3,5,5,0,0,1,2-2,6,6,0,0,1,3-.72h2.3a5.67,5.67,0,0,1,2.86.7A4.91,4.91,0,0,1,46.44,148a5.85,5.85,0,0,1,.68,2.89H44.17a3.08,3.08,0,0,0-.69-2.09,2.29,2.29,0,0,0-1.82-.79h-2.3a2.39,2.39,0,0,0-2,.9,3.59,3.59,0,0,0-.74,2.35V155a3.69,3.69,0,0,0,.72,2.36,2.26,2.26,0,0,0,1.88.89h2.34a2.31,2.31,0,0,0,1.88-.88,3.65,3.65,0,0,0,.73-2.35h3a6.52,6.52,0,0,1-.7,3.09,4.91,4.91,0,0,1-1.95,2.06,5.67,5.67,0,0,1-2.91.73H39.27A6,6,0,0,1,36.33,160.17Z"/><path class="cls-5" d="M53.37,145.53h8.07a4.6,4.6,0,0,1,3.17,1.06,3.53,3.53,0,0,1,1.21,2.8v1.51a3.19,3.19,0,0,1-.64,2,4,4,0,0,1-1.86,1.27v0a3.3,3.3,0,0,1,1.06,1,8.47,8.47,0,0,1,.7,1.63l1.21,3.86h-3.1L62,157.11a2.89,2.89,0,0,0-.78-1.39,1.77,1.77,0,0,0-1.23-.46H56.36v5.45h-3Zm7.5,7.15a2,2,0,0,0,1.43-.49,1.62,1.62,0,0,0,.52-1.26v-1.41a1.34,1.34,0,0,0-.39-1,1.43,1.43,0,0,0-1-.38h-5v4.55Z"/><path class="cls-5" d="M76.42,154.81l-5.61-9.28h3.25l3.86,6.52,3.86-6.52H85l-5.61,9.28v5.9h-3Z"/><path class="cls-5" d="M90.67,145.53h8A5.16,5.16,0,0,1,101,146a3.76,3.76,0,0,1,1.58,1.45,4.09,4.09,0,0,1,.56,2.16v2a4.24,4.24,0,0,1-.58,2.23,4,4,0,0,1-1.64,1.49,5.25,5.25,0,0,1-2.44.53H93.66v4.8h-3Zm7.79,7.78a1.62,1.62,0,0,0,1.23-.49,1.74,1.74,0,0,0,.48-1.29v-1.75a1.7,1.7,0,0,0-.42-1.21,1.5,1.5,0,0,0-1.12-.44h-5v5.18Z"/><path class="cls-5" d="M112.62,148.13h-4.81v-2.6h12.62v2.6h-4.82v12.58h-3Z"/><path class="cls-5" d="M126.59,145.53h3v15.18h-3Z"/><path class="cls-5" d="M139.16,160.15a5,5,0,0,1-2-2,6.15,6.15,0,0,1-.73-3.05v-3.91a6.11,6.11,0,0,1,.73-3,5,5,0,0,1,2-2,6.06,6.06,0,0,1,3-.73h2.3a6.12,6.12,0,0,1,3,.73,5,5,0,0,1,2,2,6.11,6.11,0,0,1,.73,3v3.91a6.15,6.15,0,0,1-.73,3.05,5.08,5.08,0,0,1-2,2,6.12,6.12,0,0,1-3,.73h-2.3A6.06,6.06,0,0,1,139.16,160.15Zm5.32-1.92a2.53,2.53,0,0,0,2-.91,3.56,3.56,0,0,0,.77-2.38V151.3a3.59,3.59,0,0,0-.77-2.39,2.53,2.53,0,0,0-2-.91h-2.3a2.53,2.53,0,0,0-2,.91,3.59,3.59,0,0,0-.77,2.39v3.64a3.56,3.56,0,0,0,.77,2.38,2.53,2.53,0,0,0,2,.91Z"/><path class="cls-5" d="M156.86,145.53h2.67l7.29,10.32V145.53h2.93v15.18h-2.67l-7.29-10.33v10.33h-2.93Z"/><path class="cls-5" d="M43.43,171.55H54.79v2.6H46.42v4.08H54v2.6H46.42v5.9h-3Z"/><path class="cls-5" d="M61.08,171.55h3v15.18h-3Z"/><path class="cls-5" d="M71.32,171.55H74l7.29,10.32V171.55H84.2v15.18H81.53l-7.29-10.32v10.32H71.32Z"/><path class="cls-5" d="M100.12,183.2H94.44l-1.35,3.53H90l5.94-15.18h1.34a1.87,1.87,0,0,1,1.91,1.3l5.4,13.88h-3.12Zm-4.88-2.52h4.07l-2-5.46h0Z"/><path class="cls-5" d="M110.33,171.55H113l7.29,10.32V171.55h2.93v15.18h-2.67l-7.29-10.32v10.32h-2.93Z"/><path class="cls-5" d="M132.47,186.19a4.88,4.88,0,0,1-2-2,6.38,6.38,0,0,1-.69-3v-4a6.3,6.3,0,0,1,.7-3,5,5,0,0,1,2-2,6.11,6.11,0,0,1,3-.71h2.3a5.77,5.77,0,0,1,2.86.69,4.78,4.78,0,0,1,1.92,1.94,5.89,5.89,0,0,1,.68,2.9H140.3a3,3,0,0,0-.69-2.09,2.3,2.3,0,0,0-1.82-.8h-2.3a2.39,2.39,0,0,0-2,.9,3.62,3.62,0,0,0-.74,2.36V181a3.64,3.64,0,0,0,.72,2.35,2.27,2.27,0,0,0,1.88.9h2.35a2.31,2.31,0,0,0,1.87-.89,3.54,3.54,0,0,0,.73-2.34h3a6.52,6.52,0,0,1-.7,3.09,4.91,4.91,0,0,1-1.95,2.06,5.76,5.76,0,0,1-2.9.73H135.4A5.81,5.81,0,0,1,132.47,186.19Z"/><path class="cls-5" d="M150.09,186.17a2,2,0,0,1-.59-1.48V171.55h11.58v2.6h-8.59v3.52h7.94v2.6h-7.94v3.86h8.59v2.6H151.6A2.06,2.06,0,0,1,150.09,186.17Z"/></g></g></svg>