<svg xmlns="http://www.w3.org/2000/svg" xmlns:xlink="http://www.w3.org/1999/xlink" viewBox="0 0 156.43 115.95"><defs><style>.cls-1{fill:url(#linear-gradient);}</style><linearGradient id="linear-gradient" x1="34.25" y1="101.94" x2="122.19" y2="14.01" gradientUnits="userSpaceOnUse"><stop offset="0" stop-color="#01d9c0"/><stop offset="1" stop-color="#90f"/></linearGradient></defs><title>Asset 7</title><g id="Layer_2" data-name="Layer 2"><g id="Layer_1-2" data-name="Layer 1"><path class="cls-1" d="M129.23,27.55a60.6,60.6,0,0,0-101.4-.28C10.82,34.63,0,45.65,0,58S10.82,81.33,27.85,88.69a60.59,60.59,0,0,0,101.38-.28c16.66-7.36,27.2-18.27,27.2-30.44S145.89,34.9,129.23,27.55Zm2,30.42a50,50,0,0,1-7.24,26,107.34,107.34,0,0,1-20,5.62,39.44,39.44,0,0,0,0-63.15A105.84,105.84,0,0,1,124,32,49.92,49.92,0,0,1,131.26,58ZM25.62,58A49.91,49.91,0,0,1,33,31.79a108.15,108.15,0,0,1,20.06-5.5,39.47,39.47,0,0,0,0,63.36,108.26,108.26,0,0,1-20-5.49A50.09,50.09,0,0,1,25.62,58Zm87.47,0c0,18.6-15.51,33.67-34.64,33.67S43.79,76.57,43.79,58,59.3,24.3,78.45,24.3,113.09,39.38,113.09,58ZM78.45,6.66a53.39,53.39,0,0,1,38.82,16.53,138,138,0,0,0-37.76-5.35H78.22A138.91,138.91,0,0,0,39.78,23,53.42,53.42,0,0,1,78.45,6.66ZM6.87,58c0-8.14,6-15.59,16.11-21.41a56.7,56.7,0,0,0,0,42.83C12.91,73.56,6.87,66.11,6.87,58ZM78.45,109.3A53.42,53.42,0,0,1,39.78,93a138.91,138.91,0,0,0,38.44,5.18h1.29a138,138,0,0,0,37.76-5.35A53.39,53.39,0,0,1,78.45,109.3ZM134,79.06a56.65,56.65,0,0,0,0-42.17C143.76,42.67,149.57,50,149.57,58S143.76,73.27,134,79.06Z"/></g></g></svg>