<svg xmlns="http://www.w3.org/2000/svg" xmlns:xlink="http://www.w3.org/1999/xlink" viewBox="0 0 211.08 217.67"><defs><style>.cls-1{fill:#2d2d2d;}.cls-2{font-size:22.44px;fill:#fff;font-family:BaiJamjuree-Bold, Bai Jamjuree;font-weight:700;letter-spacing:0.55em;}.cls-3{stroke:#fff;stroke-miterlimit:10;stroke-width:0.5px;fill:url(#linear-gradient);}</style><linearGradient id="linear-gradient" x1="58.28" y1="137.11" x2="146.21" y2="49.18" gradientUnits="userSpaceOnUse"><stop offset="0" stop-color="#01d9c0"/><stop offset="1" stop-color="#90f"/></linearGradient></defs><title>Asset 12</title><g id="Layer_2" data-name="Layer 2"><g id="Layer_1-2" data-name="Layer 1"><rect class="cls-1" width="211.08" height="217.67" rx="12.03"/><text class="cls-2" transform="translate(26.45 176.86)">S E E R</text><path class="cls-3" d="M153.26,62.72a60.6,60.6,0,0,0-101.4-.28C34.84,69.8,24,80.82,24,93.14s10.81,23.35,27.84,30.72a60.6,60.6,0,0,0,101.39-.28c16.65-7.36,27.19-18.27,27.19-30.44S169.91,70.07,153.26,62.72Zm2,30.42a50.11,50.11,0,0,1-7.24,26A107.67,107.67,0,0,1,128,124.72a39.46,39.46,0,0,0,0-63.16A106.79,106.79,0,0,1,148,67.19,50,50,0,0,1,155.29,93.14Zm-105.65,0A50,50,0,0,1,57,67a107.59,107.59,0,0,1,20.06-5.5,39.47,39.47,0,0,0,0,63.36,107.48,107.48,0,0,1-20-5.5A50,50,0,0,1,49.64,93.14Zm87.48,0c0,18.6-15.52,33.67-34.65,33.67S67.81,111.74,67.81,93.14s15.52-33.67,34.66-33.67S137.12,74.55,137.12,93.14ZM102.47,41.83A53.41,53.41,0,0,1,141.3,58.36,137.65,137.65,0,0,0,103.54,53h-1.29a138.85,138.85,0,0,0-38.44,5.18A53.42,53.42,0,0,1,102.47,41.83ZM30.9,93.14c0-8.14,6-15.59,16.1-21.41a56.8,56.8,0,0,0,0,42.82C36.93,108.73,30.9,101.28,30.9,93.14Zm71.57,51.33a53.39,53.39,0,0,1-38.66-16.36,138.47,138.47,0,0,0,38.44,5.19h1.29a138.41,138.41,0,0,0,37.76-5.35A53.45,53.45,0,0,1,102.47,144.47Zm55.58-30.24a56.65,56.65,0,0,0,0-42.17c9.73,5.78,15.54,13.11,15.54,21.08S167.78,108.44,158.05,114.23Z"/></g></g></svg>