<svg xmlns="http://www.w3.org/2000/svg" xmlns:xlink="http://www.w3.org/1999/xlink" viewBox="0 0 210.77 217.67"><defs><style>.cls-1{fill:#2d2d2d;}.cls-2{font-size:24px;fill:#fff;font-family:BaiJamjuree-Bold, Bai Jamjuree;font-weight:700;letter-spacing:0.2em;}.cls-3{fill:url(#linear-gradient);}.cls-4{fill:#01d9c0;opacity:0.58;}.cls-5{fill:url(#linear-gradient-2);}.cls-6{fill:url(#linear-gradient-3);}.cls-7{fill:url(#linear-gradient-4);}.cls-8{fill:url(#linear-gradient-5);}.cls-9{fill:url(#linear-gradient-6);}.cls-10{fill:url(#linear-gradient-7);}.cls-11{fill:url(#linear-gradient-8);}.cls-12{fill:url(#linear-gradient-9);}</style><linearGradient id="linear-gradient" x1="66.84" y1="88.69" x2="114.08" y2="41.45" gradientUnits="userSpaceOnUse"><stop offset="0" stop-color="#01d9c0"/><stop offset="1" stop-color="#90f"/></linearGradient><linearGradient id="linear-gradient-2" x1="78.75" y1="105.96" x2="108.93" y2="88.54" xlink:href="#linear-gradient"/><linearGradient id="linear-gradient-3" x1="67.24" y1="102.76" x2="113.84" y2="149.36" xlink:href="#linear-gradient"/><linearGradient id="linear-gradient-4" x1="117.65" y1="109.3" x2="117.65" y2="29.61" xlink:href="#linear-gradient"/><linearGradient id="linear-gradient-5" x1="117.65" y1="109.29" x2="117.65" y2="76.96" xlink:href="#linear-gradient"/><linearGradient id="linear-gradient-6" x1="117.65" y1="160.97" x2="117.65" y2="98.57" xlink:href="#linear-gradient"/><linearGradient id="linear-gradient-7" x1="106.03" y1="73.06" x2="182.8" y2="-3.71" gradientUnits="userSpaceOnUse"><stop offset="0" stop-color="#01d9c0" stop-opacity="0.5"/><stop offset="0.01" stop-color="#05d4c2" stop-opacity="0.51"/><stop offset="0.06" stop-color="#28a2d0" stop-opacity="0.63"/><stop offset="0.12" stop-color="#4677dd" stop-opacity="0.73"/><stop offset="0.18" stop-color="#6051e7" stop-opacity="0.81"/><stop offset="0.25" stop-color="#7533f0" stop-opacity="0.88"/><stop offset="0.34" stop-color="#851cf7" stop-opacity="0.94"/><stop offset="0.45" stop-color="#910cfc" stop-opacity="0.97"/><stop offset="0.59" stop-color="#9703fe" stop-opacity="0.99"/><stop offset="1" stop-color="#90f"/></linearGradient><linearGradient id="linear-gradient-8" x1="95.63" y1="97.83" x2="125.66" y2="80.49" gradientUnits="userSpaceOnUse"><stop offset="0" stop-color="#01d9c0" stop-opacity="0.5"/><stop offset="0.02" stop-color="#09cec3" stop-opacity="0.53"/><stop offset="0.12" stop-color="#2f97d3" stop-opacity="0.65"/><stop offset="0.23" stop-color="#5069e1" stop-opacity="0.76"/><stop offset="0.35" stop-color="#6a42ec" stop-opacity="0.85"/><stop offset="0.47" stop-color="#7f25f4" stop-opacity="0.91"/><stop offset="0.61" stop-color="#8e10fa" stop-opacity="0.96"/><stop offset="0.77" stop-color="#9604fe" stop-opacity="0.99"/><stop offset="1" stop-color="#90f"/></linearGradient><linearGradient id="linear-gradient-9" x1="102.34" y1="114.46" x2="125.54" y2="137.67" gradientUnits="userSpaceOnUse"><stop offset="0" stop-color="#01d9c0" stop-opacity="0.5"/><stop offset="0.1" stop-color="#23a9ce" stop-opacity="0.61"/><stop offset="0.23" stop-color="#4775dd" stop-opacity="0.73"/><stop offset="0.36" stop-color="#654be9" stop-opacity="0.83"/><stop offset="0.5" stop-color="#7c2af3" stop-opacity="0.9"/><stop offset="0.65" stop-color="#8c12fa" stop-opacity="0.96"/><stop offset="0.81" stop-color="#9604fe" stop-opacity="0.99"/><stop offset="1" stop-color="#90f"/></linearGradient></defs><title>Asset 10</title><g id="Layer_2" data-name="Layer 2"><g id="Layer_1-2" data-name="Layer 1"><rect class="cls-1" width="210.77" height="217.67" rx="12.03"/><text class="cls-2" transform="translate(27.54 187.81) scale(0.81 1)">ETHERRUSH</text><polygon class="cls-3" points="102.24 76.96 102.24 29.61 71.44 93.28 102.2 76.94 102.24 76.96"/><polygon class="cls-4" points="102.24 109.29 102.24 109.3 102.24 109.29 102.24 109.29"/><polygon class="cls-5" points="102.24 109.29 102.24 76.96 102.2 76.94 71.44 93.28 102.24 109.29 102.24 109.29"/><polygon class="cls-6" points="71.44 98.57 102.24 160.97 102.24 114.56 71.44 98.57"/><polygon class="cls-7" points="132.91 93.23 102.24 109.29 102.24 109.3 133.05 93.28 102.24 29.61 102.24 76.96 132.91 93.23"/><polygon class="cls-8" points="102.24 76.96 102.24 109.29 133.05 93.28 102.24 76.96"/><polygon class="cls-9" points="102.24 160.97 133.05 98.57 102.24 114.56 102.24 160.97"/><polygon class="cls-10" points="132.91 93.23 102.24 109.29 102.24 109.3 133.05 93.28 102.24 29.61 102.24 76.96 132.91 93.23"/><polygon class="cls-11" points="102.24 76.96 102.24 109.29 133.05 93.28 102.24 76.96"/><polygon class="cls-12" points="102.24 160.97 133.05 98.57 102.24 114.56 102.24 160.97"/></g></g></svg>