<svg xmlns="http://www.w3.org/2000/svg" xmlns:xlink="http://www.w3.org/1999/xlink" viewBox="0 0 75.68 131.36"><defs><style>.cls-1{fill:url(#linear-gradient);}.cls-2{fill:#01d9c0;opacity:0.58;}.cls-3{fill:url(#linear-gradient-2);}.cls-4{fill:url(#linear-gradient-3);}.cls-5{fill:url(#linear-gradient-4);}.cls-6{fill:url(#linear-gradient-5);}.cls-7{fill:url(#linear-gradient-6);}.cls-8{fill:url(#linear-gradient-7);}.cls-9{fill:url(#linear-gradient-8);}.cls-10{fill:url(#linear-gradient-9);}</style><linearGradient id="linear-gradient" x1="-1.08" y1="62.59" x2="49.68" y2="11.84" gradientUnits="userSpaceOnUse"><stop offset="0" stop-color="#01d9c0"/><stop offset="1" stop-color="#90f"/></linearGradient><linearGradient id="linear-gradient-2" x1="8.2" y1="77.87" x2="43.64" y2="57.4" xlink:href="#linear-gradient"/><linearGradient id="linear-gradient-3" x1="-0.68" y1="69.64" x2="49.44" y2="119.75" xlink:href="#linear-gradient"/><linearGradient id="linear-gradient-4" x1="56.76" y1="79.69" x2="56.76" y2="0" xlink:href="#linear-gradient"/><linearGradient id="linear-gradient-5" x1="56.76" y1="79.68" x2="56.76" y2="47.35" xlink:href="#linear-gradient"/><linearGradient id="linear-gradient-6" x1="56.76" y1="131.36" x2="56.76" y2="68.96" xlink:href="#linear-gradient"/><linearGradient id="linear-gradient-7" x1="43.38" y1="45.21" x2="120.16" y2="-31.56" gradientUnits="userSpaceOnUse"><stop offset="0" stop-color="#01d9c0" stop-opacity="0.5"/><stop offset="0.01" stop-color="#05d4c2" stop-opacity="0.51"/><stop offset="0.06" stop-color="#28a2d0" stop-opacity="0.63"/><stop offset="0.12" stop-color="#4677dd" stop-opacity="0.73"/><stop offset="0.18" stop-color="#6051e7" stop-opacity="0.81"/><stop offset="0.25" stop-color="#7533f0" stop-opacity="0.88"/><stop offset="0.34" stop-color="#851cf7" stop-opacity="0.94"/><stop offset="0.45" stop-color="#910cfc" stop-opacity="0.97"/><stop offset="0.59" stop-color="#9703fe" stop-opacity="0.99"/><stop offset="1" stop-color="#90f"/></linearGradient><linearGradient id="linear-gradient-8" x1="32.1" y1="69.75" x2="67.41" y2="49.36" gradientUnits="userSpaceOnUse"><stop offset="0" stop-color="#01d9c0" stop-opacity="0.5"/><stop offset="0.02" stop-color="#09cec3" stop-opacity="0.53"/><stop offset="0.12" stop-color="#2f97d3" stop-opacity="0.65"/><stop offset="0.23" stop-color="#5069e1" stop-opacity="0.76"/><stop offset="0.35" stop-color="#6a42ec" stop-opacity="0.85"/><stop offset="0.47" stop-color="#7f25f4" stop-opacity="0.91"/><stop offset="0.61" stop-color="#8e10fa" stop-opacity="0.96"/><stop offset="0.77" stop-color="#9604fe" stop-opacity="0.99"/><stop offset="1" stop-color="#90f"/></linearGradient><linearGradient id="linear-gradient-9" x1="39.69" y1="83.09" x2="62.9" y2="106.3" gradientUnits="userSpaceOnUse"><stop offset="0" stop-color="#01d9c0" stop-opacity="0.5"/><stop offset="0.1" stop-color="#23a9ce" stop-opacity="0.61"/><stop offset="0.23" stop-color="#4775dd" stop-opacity="0.73"/><stop offset="0.36" stop-color="#654be9" stop-opacity="0.83"/><stop offset="0.5" stop-color="#7c2af3" stop-opacity="0.9"/><stop offset="0.65" stop-color="#8c12fa" stop-opacity="0.96"/><stop offset="0.81" stop-color="#9604fe" stop-opacity="0.99"/><stop offset="1" stop-color="#90f"/></linearGradient></defs><title>Asset 5</title><g id="Layer_2" data-name="Layer 2"><g id="Layer_1-2" data-name="Layer 1"><polygon class="cls-1" points="37.84 47.35 37.84 0 0 63.67 37.79 47.33 37.84 47.35"/><polygon class="cls-2" points="37.83 79.68 37.84 79.69 37.84 79.68 37.83 79.68"/><polygon class="cls-3" points="37.84 79.68 37.84 47.35 37.79 47.33 0 63.67 37.83 79.68 37.84 79.68"/><polygon class="cls-4" points="0 68.96 37.84 131.36 37.84 84.95 0 68.96"/><polygon class="cls-5" points="75.5 63.62 37.84 79.68 37.84 79.69 75.67 63.67 37.84 0 37.84 47.35 75.5 63.62"/><polygon class="cls-6" points="37.84 47.35 37.84 79.68 75.67 63.67 37.84 47.35"/><polygon class="cls-7" points="37.84 131.36 75.67 68.96 37.84 84.95 37.84 131.36"/><polygon class="cls-8" points="75.5 63.62 37.84 79.68 37.84 79.69 75.67 63.67 37.84 0 37.84 47.35 75.5 63.62"/><polygon class="cls-9" points="37.84 47.35 37.84 79.68 75.67 63.67 37.84 47.35"/><polygon class="cls-10" points="37.84 131.36 75.67 68.96 37.84 84.95 37.84 131.36"/></g></g></svg>