<svg xmlns="http://www.w3.org/2000/svg" xmlns:xlink="http://www.w3.org/1999/xlink" viewBox="0 0 1116.13 934.78"><defs><style>.cls-1{fill:#2d2d2d;}.cls-2{font-size:22.44px;letter-spacing:0.55em;}.cls-2,.cls-33,.cls-36,.cls-4,.cls-8{fill:#fff;}.cls-2,.cls-8{font-family:BaiJamjuree-Bold, Bai Jamjuree;}.cls-2,.cls-33,.cls-8{font-weight:700;}.cls-19,.cls-20,.cls-21,.cls-22,.cls-23,.cls-24,.cls-25,.cls-26,.cls-27,.cls-28,.cls-29,.cls-3,.cls-32,.cls-5,.cls-6,.cls-7{stroke:#fff;}.cls-19,.cls-20,.cls-21,.cls-22,.cls-23,.cls-24,.cls-25,.cls-26,.cls-27,.cls-28,.cls-29,.cls-3,.cls-30,.cls-32,.cls-5,.cls-6,.cls-7{stroke-miterlimit:10;}.cls-19,.cls-20,.cls-21,.cls-22,.cls-23,.cls-24,.cls-3,.cls-32,.cls-5,.cls-6,.cls-7{stroke-width:0.5px;}.cls-3{fill:url(#linear-gradient);}.cls-5{fill:url(#linear-gradient-2);}.cls-6{fill:url(#linear-gradient-3);}.cls-7{fill:url(#linear-gradient-4);}.cls-8{font-size:24px;letter-spacing:0.2em;}.cls-9{fill:url(#linear-gradient-5);}.cls-10{fill:#01d9c0;opacity:0.58;}.cls-11{fill:url(#linear-gradient-6);}.cls-12{fill:url(#linear-gradient-7);}.cls-13{fill:url(#linear-gradient-8);}.cls-14{fill:url(#linear-gradient-9);}.cls-15{fill:url(#linear-gradient-10);}.cls-16{fill:url(#linear-gradient-11);}.cls-17{fill:url(#linear-gradient-12);}.cls-18{fill:url(#linear-gradient-13);}.cls-19{fill:url(#linear-gradient-14);}.cls-20{fill:url(#linear-gradient-15);}.cls-21{fill:url(#linear-gradient-16);}.cls-22{fill:url(#linear-gradient-17);}.cls-23{fill:url(#linear-gradient-18);}.cls-24{fill:url(#linear-gradient-19);}.cls-25,.cls-26,.cls-27,.cls-28,.cls-29,.cls-30{fill:none;}.cls-26{stroke-dasharray:11.59 11.59;}.cls-27{stroke-dasharray:12 12;}.cls-28{stroke-dasharray:11.98 11.98;}.cls-29{stroke-dasharray:12 12;}.cls-30{stroke:red;stroke-dasharray:6 6;}.cls-31{fill:red;}.cls-32{fill:url(#linear-gradient-20);}.cls-33,.cls-36{font-size:36px;}.cls-33{font-family:Montserrat-Bold, Montserrat;}.cls-33,.cls-37{letter-spacing:-0.01em;}.cls-34{letter-spacing:-0.03em;}.cls-35{letter-spacing:0em;}.cls-36{font-family:Montserrat-Regular, Montserrat;}</style><linearGradient id="linear-gradient" x1="58.28" y1="618.04" x2="146.21" y2="530.11" gradientUnits="userSpaceOnUse"><stop offset="0" stop-color="#01d9c0"/><stop offset="1" stop-color="#90f"/></linearGradient><linearGradient id="linear-gradient-2" x1="38.28" y1="82.69" x2="179.39" y2="82.69" xlink:href="#linear-gradient"/><linearGradient id="linear-gradient-3" x1="102.9" y1="123.82" x2="134.29" y2="123.82" xlink:href="#linear-gradient"/><linearGradient id="linear-gradient-4" x1="70.83" y1="110.22" x2="118.3" y2="110.22" xlink:href="#linear-gradient"/><linearGradient id="linear-gradient-5" x1="66.84" y1="330.05" x2="114.08" y2="282.81" xlink:href="#linear-gradient"/><linearGradient id="linear-gradient-6" x1="78.75" y1="347.32" x2="108.93" y2="329.9" xlink:href="#linear-gradient"/><linearGradient id="linear-gradient-7" x1="67.24" y1="344.13" x2="113.84" y2="390.73" xlink:href="#linear-gradient"/><linearGradient id="linear-gradient-8" x1="117.65" y1="350.66" x2="117.65" y2="270.98" xlink:href="#linear-gradient"/><linearGradient id="linear-gradient-9" x1="117.65" y1="350.66" x2="117.65" y2="318.33" xlink:href="#linear-gradient"/><linearGradient id="linear-gradient-10" x1="117.65" y1="402.33" x2="117.65" y2="339.93" xlink:href="#linear-gradient"/><linearGradient id="linear-gradient-11" x1="106.03" y1="314.43" x2="182.8" y2="237.65" gradientUnits="userSpaceOnUse"><stop offset="0" stop-color="#01d9c0" stop-opacity="0.5"/><stop offset="0.01" stop-color="#05d4c2" stop-opacity="0.51"/><stop offset="0.06" stop-color="#28a2d0" stop-opacity="0.63"/><stop offset="0.12" stop-color="#4677dd" stop-opacity="0.73"/><stop offset="0.18" stop-color="#6051e7" stop-opacity="0.81"/><stop offset="0.25" stop-color="#7533f0" stop-opacity="0.88"/><stop offset="0.34" stop-color="#851cf7" stop-opacity="0.94"/><stop offset="0.45" stop-color="#910cfc" stop-opacity="0.97"/><stop offset="0.59" stop-color="#9703fe" stop-opacity="0.99"/><stop offset="1" stop-color="#90f"/></linearGradient><linearGradient id="linear-gradient-12" x1="95.63" y1="339.2" x2="125.66" y2="321.86" gradientUnits="userSpaceOnUse"><stop offset="0" stop-color="#01d9c0" stop-opacity="0.5"/><stop offset="0.02" stop-color="#09cec3" stop-opacity="0.53"/><stop offset="0.12" stop-color="#2f97d3" stop-opacity="0.65"/><stop offset="0.23" stop-color="#5069e1" stop-opacity="0.76"/><stop offset="0.35" stop-color="#6a42ec" stop-opacity="0.85"/><stop offset="0.47" stop-color="#7f25f4" stop-opacity="0.91"/><stop offset="0.61" stop-color="#8e10fa" stop-opacity="0.96"/><stop offset="0.77" stop-color="#9604fe" stop-opacity="0.99"/><stop offset="1" stop-color="#90f"/></linearGradient><linearGradient id="linear-gradient-13" x1="102.34" y1="355.83" x2="125.54" y2="379.03" gradientUnits="userSpaceOnUse"><stop offset="0" stop-color="#01d9c0" stop-opacity="0.5"/><stop offset="0.1" stop-color="#23a9ce" stop-opacity="0.61"/><stop offset="0.23" stop-color="#4775dd" stop-opacity="0.73"/><stop offset="0.36" stop-color="#654be9" stop-opacity="0.83"/><stop offset="0.5" stop-color="#7c2af3" stop-opacity="0.9"/><stop offset="0.65" stop-color="#8c12fa" stop-opacity="0.96"/><stop offset="0.81" stop-color="#9604fe" stop-opacity="0.99"/><stop offset="1" stop-color="#90f"/></linearGradient><linearGradient id="linear-gradient-14" x1="60.62" y1="837.3" x2="143.24" y2="754.68" xlink:href="#linear-gradient"/><linearGradient id="linear-gradient-15" x1="68.45" y1="794.63" x2="98.81" y2="764.27" xlink:href="#linear-gradient"/><linearGradient id="linear-gradient-16" x1="103.29" y1="829.47" x2="133.65" y2="799.11" xlink:href="#linear-gradient"/><linearGradient id="linear-gradient-17" x1="708.67" y1="513.54" x2="791.29" y2="430.92" xlink:href="#linear-gradient"/><linearGradient id="linear-gradient-18" x1="716.5" y1="470.87" x2="746.86" y2="440.51" xlink:href="#linear-gradient"/><linearGradient id="linear-gradient-19" x1="751.34" y1="505.71" x2="781.7" y2="475.35" xlink:href="#linear-gradient"/><linearGradient id="linear-gradient-20" x1="858.82" y1="825.66" x2="1115.88" y2="825.66" gradientUnits="userSpaceOnUse"><stop offset="0" stop-color="#2082e9"/><stop offset="1" stop-color="#90f"/></linearGradient></defs><title>Asset 13</title><g id="Layer_2" data-name="Layer 2"><g id="Layer_1-2" data-name="Layer 1"><rect class="cls-1" y="480.93" width="211.08" height="217.67" rx="12.03"/><text class="cls-2" transform="translate(26.45 657.79)">S E E R</text><path class="cls-3" d="M153.26,543.65a60.6,60.6,0,0,0-101.4-.28c-17,7.36-27.83,18.38-27.83,30.7s10.81,23.36,27.84,30.72a60.6,60.6,0,0,0,101.39-.28c16.65-7.36,27.19-18.27,27.19-30.44S169.91,551,153.26,543.65Zm2,30.42a50.11,50.11,0,0,1-7.24,26A107.67,107.67,0,0,1,128,605.65a39.46,39.46,0,0,0,0-63.16A106.79,106.79,0,0,1,148,548.12,50,50,0,0,1,155.29,574.07Zm-105.65,0A50,50,0,0,1,57,547.89a107.59,107.59,0,0,1,20.06-5.5,39.47,39.47,0,0,0,0,63.36,108.26,108.26,0,0,1-20-5.49A50.09,50.09,0,0,1,49.64,574.07Zm87.48,0c0,18.6-15.52,33.67-34.65,33.67s-34.66-15.07-34.66-33.67,15.52-33.67,34.66-33.67S137.12,555.48,137.12,574.07Zm-34.65-51.31a53.41,53.41,0,0,1,38.83,16.53,137.65,137.65,0,0,0-37.76-5.35h-1.29a138.85,138.85,0,0,0-38.44,5.18A53.42,53.42,0,0,1,102.47,522.76ZM30.9,574.07c0-8.14,6-15.59,16.1-21.41a56.8,56.8,0,0,0,0,42.82C36.93,589.66,30.9,582.21,30.9,574.07Zm71.57,51.33a53.42,53.42,0,0,1-38.66-16.35,138.85,138.85,0,0,0,38.44,5.18h1.29a138,138,0,0,0,37.76-5.35A53.45,53.45,0,0,1,102.47,625.4Zm55.58-30.24a56.65,56.65,0,0,0,0-42.17c9.73,5.78,15.54,13.11,15.54,21.08S167.78,589.37,158.05,595.16Z"/><rect class="cls-1" width="210.77" height="217.67" rx="12.03"/><path class="cls-4" d="M43.52,166.05a4.93,4.93,0,0,1-2-2,6.36,6.36,0,0,1-.69-3v-4a6.25,6.25,0,0,1,.7-3,5,5,0,0,1,2-2,6,6,0,0,1,3-.71h2.29a5.73,5.73,0,0,1,2.85.69,4.88,4.88,0,0,1,1.92,1.93,6,6,0,0,1,.68,2.88H51.33a3.05,3.05,0,0,0-.69-2.08,2.32,2.32,0,0,0-1.82-.79H46.53a2.39,2.39,0,0,0-1.94.9,3.58,3.58,0,0,0-.73,2.34v3.72a3.63,3.63,0,0,0,.71,2.34,2.27,2.27,0,0,0,1.88.9h2.33a2.31,2.31,0,0,0,1.87-.89,3.58,3.58,0,0,0,.72-2.33h2.94a6.62,6.62,0,0,1-.69,3.08,5,5,0,0,1-1.95,2,5.69,5.69,0,0,1-2.89.72H46.45A5.91,5.91,0,0,1,43.52,166.05Z"/><path class="cls-4" d="M60.48,151.47h8a4.58,4.58,0,0,1,3.16,1.06,3.52,3.52,0,0,1,1.2,2.78v1.52a3.09,3.09,0,0,1-.64,1.95A3.86,3.86,0,0,1,70.4,160v.05a3.3,3.3,0,0,1,1,1,8,8,0,0,1,.71,1.62l1.21,3.85H70.27L69.12,163a2.93,2.93,0,0,0-.77-1.38,1.8,1.8,0,0,0-1.24-.45H63.47v5.42h-3ZM68,158.6a2,2,0,0,0,1.42-.49,1.62,1.62,0,0,0,.52-1.26v-1.41a1.33,1.33,0,0,0-.39-1,1.42,1.42,0,0,0-1-.38h-5v4.54Z"/><path class="cls-4" d="M83.44,160.71l-5.59-9.24h3.24l3.84,6.5,3.84-6.5H92l-5.59,9.24v5.88h-3Z"/><path class="cls-4" d="M97.63,151.47h8a5.12,5.12,0,0,1,2.33.51,3.8,3.8,0,0,1,1.58,1.44,4.18,4.18,0,0,1,.56,2.15v2a4.18,4.18,0,0,1-.59,2.22,3.93,3.93,0,0,1-1.63,1.49,5.29,5.29,0,0,1-2.42.53h-4.82v4.77h-3Zm7.75,7.75a1.63,1.63,0,0,0,1.23-.48,1.76,1.76,0,0,0,.48-1.29V155.7a1.69,1.69,0,0,0-.42-1.2,1.5,1.5,0,0,0-1.12-.44h-4.94v5.16Z"/><path class="cls-4" d="M119.48,154.06h-4.79v-2.59h12.57v2.59h-4.8v12.53h-3Z"/><path class="cls-4" d="M133.39,151.47h3v15.12h-3Z"/><path class="cls-4" d="M145.91,166a5.08,5.08,0,0,1-2-2,6.11,6.11,0,0,1-.73-3v-3.88a6.08,6.08,0,0,1,.73-3,5,5,0,0,1,2-2,6.12,6.12,0,0,1,3-.72h2.29a6.15,6.15,0,0,1,3,.72,5.08,5.08,0,0,1,2,2,6.18,6.18,0,0,1,.72,3V161a6.21,6.21,0,0,1-.72,3,5.15,5.15,0,0,1-2,2,6.15,6.15,0,0,1-3,.72h-2.29A6.12,6.12,0,0,1,145.91,166Zm5.3-1.91a2.54,2.54,0,0,0,2-.91,3.58,3.58,0,0,0,.76-2.38v-3.63a3.55,3.55,0,0,0-.76-2.37,2.54,2.54,0,0,0-2-.91h-2.29a2.52,2.52,0,0,0-2,.91,3.55,3.55,0,0,0-.77,2.37v3.63a3.58,3.58,0,0,0,.77,2.38,2.52,2.52,0,0,0,2,.91Z"/><path class="cls-4" d="M163.54,151.47h2.65l7.26,10.28V151.47h2.92v15.12h-2.66l-7.26-10.28v10.28h-2.91Z"/><path class="cls-4" d="M55.68,192a4.81,4.81,0,0,1-2-2,6.22,6.22,0,0,1-.7-3v-4a6.23,6.23,0,0,1,.71-3,4.82,4.82,0,0,1,2-2,6,6,0,0,1,3-.72H61a5.73,5.73,0,0,1,2.85.69,4.82,4.82,0,0,1,1.91,1.94,5.81,5.81,0,0,1,.68,2.88H63.49a3,3,0,0,0-.69-2.08,2.31,2.31,0,0,0-1.82-.79H58.69a2.41,2.41,0,0,0-1.94.89,3.59,3.59,0,0,0-.74,2.35v3.71a3.59,3.59,0,0,0,.72,2.34,2.27,2.27,0,0,0,1.88.9h2.33a2.32,2.32,0,0,0,1.87-.88,3.59,3.59,0,0,0,.72-2.34h2.94a6.57,6.57,0,0,1-.69,3.08,5,5,0,0,1-2,2,5.69,5.69,0,0,1-2.89.73H58.61A5.81,5.81,0,0,1,55.68,192Z"/><path class="cls-4" d="M81.07,189H75.41l-1.34,3.52H71l5.92-15.11h1.34a1.88,1.88,0,0,1,1.9,1.29l5.37,13.82H82.38Zm-4.86-2.5h4.06l-2-5.45h0Z"/><path class="cls-4" d="M91.24,177.39h8a5.28,5.28,0,0,1,2.33.5,3.73,3.73,0,0,1,1.57,1.45,4.06,4.06,0,0,1,.57,2.15v2a4.17,4.17,0,0,1-.59,2.21,3.92,3.92,0,0,1-1.63,1.49,5.37,5.37,0,0,1-2.43.53H94.22v4.77h-3ZM99,185.14a1.63,1.63,0,0,0,1.23-.49,1.74,1.74,0,0,0,.48-1.28v-1.75a1.63,1.63,0,0,0-.43-1.2,1.44,1.44,0,0,0-1.11-.44H94.22v5.16Z"/><path class="cls-4" d="M109.85,177.39h3V192.5h-3Z"/><path class="cls-4" d="M123.76,180H119v-2.59h12.56V180h-4.79V192.5h-3Z"/><path class="cls-4" d="M144.15,189h-5.66l-1.34,3.52H134L140,177.39h1.34a1.88,1.88,0,0,1,1.9,1.29l5.37,13.82h-3.11Zm-4.86-2.5h4.06l-2-5.45h0Z"/><path class="cls-4" d="M154.76,192a1.94,1.94,0,0,1-.57-1.46v-13.1h3v12.52h8.2v2.59h-9.09A2.09,2.09,0,0,1,154.76,192Z"/><polygon class="cls-5" points="179.39 142.54 136.3 142.54 141.67 133.42 141.67 133.41 141.69 133.39 141.69 133.38 148.5 121.82 148.47 121.89 148.5 121.82 148.5 121.82 141.15 109.33 141.12 109.31 131.8 93.51 131.79 93.47 125.17 82.25 125.13 82.18 115.77 66.31 115.76 66.27 108.42 53.82 108.39 53.78 108.37 53.84 101.58 65.34 101.57 65.37 94.78 76.87 56.08 142.54 38.28 142.54 85.88 61.77 92.67 50.27 92.68 50.24 99.47 38.75 99.5 38.7 108.84 22.84 117.74 37.94 117.76 37.97 125.09 50.42 125.11 50.46 134.47 66.34 134.51 66.41 141.13 77.63 141.15 77.65 150.46 93.45 150.48 93.49 157.84 105.97 157.84 105.98 167.2 121.85 179.39 142.54"/><polygon class="cls-6" points="134.29 120.89 127.51 132.4 121.53 142.54 102.9 142.54 118.19 116.6 124.98 105.09 134.29 120.89"/><polygon class="cls-7" points="118.3 93.76 111.52 105.27 89.56 142.54 70.83 142.54 102.16 89.39 108.94 77.89 118.3 93.76"/><rect class="cls-1" y="241.37" width="210.77" height="217.67" rx="12.03"/><text class="cls-8" transform="translate(27.54 429.17) scale(0.81 1)">ETHERRUSH</text><polygon class="cls-9" points="102.24 318.33 102.24 270.98 71.44 334.65 102.2 318.31 102.24 318.33"/><polygon class="cls-10" points="102.24 350.66 102.24 350.66 102.24 350.66 102.24 350.66"/><polygon class="cls-11" points="102.24 350.66 102.24 318.33 102.2 318.31 71.44 334.65 102.24 350.66 102.24 350.66"/><polygon class="cls-12" points="71.44 339.94 102.24 402.33 102.24 355.93 71.44 339.94"/><polygon class="cls-13" points="132.91 334.6 102.24 350.66 102.24 350.66 133.05 334.65 102.24 270.98 102.24 318.33 132.91 334.6"/><polygon class="cls-14" points="102.24 318.33 102.24 350.66 133.05 334.65 102.24 318.33"/><polygon class="cls-15" points="102.24 402.33 133.05 339.94 102.24 355.93 102.24 402.33"/><polygon class="cls-16" points="132.91 334.6 102.24 350.66 102.24 350.66 133.05 334.65 102.24 270.98 102.24 318.33 132.91 334.6"/><polygon class="cls-17" points="102.24 318.33 102.24 350.66 133.05 334.65 102.24 318.33"/><polygon class="cls-18" points="102.24 402.33 133.05 339.94 102.24 355.93 102.24 402.33"/><rect class="cls-1" y="717.11" width="210.77" height="217.67" rx="12.03"/><path class="cls-19" d="M143.24,837.3A58.42,58.42,0,0,1,75.7,848.2L85,838.94a46.17,46.17,0,0,0,53.66-71L65.18,841.4a56.62,56.62,0,0,1-4.56-4.1,58.52,58.52,0,0,1-10.91-15.08,58.45,58.45,0,0,1,78.45-78.45L118.89,753a46.17,46.17,0,0,0-53.65,71l73.44-73.45a59.08,59.08,0,0,1,8.66,8.66,57.08,57.08,0,0,1,6.8,10.53,57.79,57.79,0,0,1,4.63,12.7,58.39,58.39,0,0,1-15.53,54.84Z"/><path class="cls-20" d="M94.4,759.86c3.49,3.55,5.11,5.16,8.78,8.84L73,798.88c-3.49-3.39-5.32-4.7-8.81-8.81Z"/><path class="cls-21" d="M129.24,794.7c3.49,3.55,5.11,5.16,8.78,8.84l-30.18,30.18c-3.49-3.4-5.32-4.7-8.81-8.81Z"/><path class="cls-4" d="M36.33,877.28a5,5,0,0,1-2-2,6.45,6.45,0,0,1-.69-3v-4a6.26,6.26,0,0,1,.7-3,5,5,0,0,1,2-2,6,6,0,0,1,3-.72h2.3a5.67,5.67,0,0,1,2.86.7,4.91,4.91,0,0,1,1.92,1.94,5.88,5.88,0,0,1,.68,2.89H44.17a3.08,3.08,0,0,0-.69-2.09,2.29,2.29,0,0,0-1.82-.79h-2.3a2.39,2.39,0,0,0-2,.9,3.59,3.59,0,0,0-.74,2.35v3.73a3.67,3.67,0,0,0,.72,2.36,2.27,2.27,0,0,0,1.88.9h2.34a2.32,2.32,0,0,0,1.88-.89,3.65,3.65,0,0,0,.73-2.35h3a6.49,6.49,0,0,1-.7,3.09,5,5,0,0,1-1.95,2.07,5.76,5.76,0,0,1-2.91.72H39.27A6,6,0,0,1,36.33,877.28Z"/><path class="cls-4" d="M53.37,862.64h8.07a4.6,4.6,0,0,1,3.17,1.06,3.53,3.53,0,0,1,1.21,2.8V868a3.18,3.18,0,0,1-.64,2,4,4,0,0,1-1.86,1.27v0a3.3,3.3,0,0,1,1.06,1,8.47,8.47,0,0,1,.7,1.63l1.21,3.86h-3.1L62,874.22a2.89,2.89,0,0,0-.78-1.39,1.77,1.77,0,0,0-1.23-.46H56.36v5.45h-3Zm7.5,7.15a2,2,0,0,0,1.43-.48,1.66,1.66,0,0,0,.52-1.27v-1.41a1.34,1.34,0,0,0-.39-1,1.43,1.43,0,0,0-1-.38h-5v4.55Z"/><path class="cls-4" d="M76.42,871.92l-5.61-9.28h3.25l3.86,6.52,3.86-6.52H85l-5.61,9.28v5.9h-3Z"/><path class="cls-4" d="M90.67,862.64h8a5.16,5.16,0,0,1,2.34.51,3.76,3.76,0,0,1,1.58,1.45,4.09,4.09,0,0,1,.56,2.16v2a4.24,4.24,0,0,1-.58,2.23,4,4,0,0,1-1.64,1.49,5.25,5.25,0,0,1-2.44.54H93.66v4.79h-3Zm7.79,7.78a1.62,1.62,0,0,0,1.23-.49,1.74,1.74,0,0,0,.48-1.29v-1.75a1.7,1.7,0,0,0-.42-1.21,1.5,1.5,0,0,0-1.12-.44h-5v5.18Z"/><path class="cls-4" d="M112.62,865.24h-4.81v-2.6h12.62v2.6h-4.82v12.58h-3Z"/><path class="cls-4" d="M126.59,862.64h3v15.18h-3Z"/><path class="cls-4" d="M139.16,877.27a5.13,5.13,0,0,1-2-2,6.15,6.15,0,0,1-.73-3.05v-3.9a6.12,6.12,0,0,1,.73-3,5,5,0,0,1,2-2,6.06,6.06,0,0,1,3-.73h2.3a6.12,6.12,0,0,1,3,.73,5,5,0,0,1,2,2,6.12,6.12,0,0,1,.73,3v3.9a6.15,6.15,0,0,1-.73,3.05,5.17,5.17,0,0,1-2,2,6.23,6.23,0,0,1-3,.72h-2.3A6.16,6.16,0,0,1,139.16,877.27Zm5.32-1.92a2.54,2.54,0,0,0,2-.92,3.56,3.56,0,0,0,.77-2.38v-3.64a3.59,3.59,0,0,0-.77-2.39,2.53,2.53,0,0,0-2-.91h-2.3a2.53,2.53,0,0,0-2,.91,3.59,3.59,0,0,0-.77,2.39v3.64a3.56,3.56,0,0,0,.77,2.38,2.54,2.54,0,0,0,2,.92Z"/><path class="cls-4" d="M156.86,862.64h2.67L166.82,873V862.64h2.93v15.18h-2.67l-7.29-10.33v10.33h-2.93Z"/><path class="cls-4" d="M43.43,888.66H54.79v2.6H46.42v4.08H54v2.6H46.42v5.9h-3Z"/><path class="cls-4" d="M61.08,888.66h3v15.18h-3Z"/><path class="cls-4" d="M71.32,888.66H74L81.27,899V888.66H84.2v15.18H81.53l-7.29-10.32v10.32H71.32Z"/><path class="cls-4" d="M100.12,900.31H94.44l-1.35,3.53H90l5.94-15.18h1.34a1.89,1.89,0,0,1,1.91,1.3l5.4,13.88h-3.12Zm-4.88-2.52h4.07l-2-5.46h0Z"/><path class="cls-4" d="M110.33,888.66H113L120.29,899V888.66h2.93v15.18h-2.67l-7.29-10.32v10.32h-2.93Z"/><path class="cls-4" d="M132.47,903.3a4.88,4.88,0,0,1-2-2,6.38,6.38,0,0,1-.69-3v-4a6.3,6.3,0,0,1,.7-3,5,5,0,0,1,2-2,6.11,6.11,0,0,1,3-.71h2.3a5.77,5.77,0,0,1,2.86.69,4.84,4.84,0,0,1,1.92,1.94,5.89,5.89,0,0,1,.68,2.9H140.3a3,3,0,0,0-.69-2.09,2.3,2.3,0,0,0-1.82-.8h-2.3a2.39,2.39,0,0,0-2,.9,3.62,3.62,0,0,0-.74,2.36v3.73a3.64,3.64,0,0,0,.72,2.35,2.27,2.27,0,0,0,1.88.9h2.35a2.31,2.31,0,0,0,1.87-.89,3.54,3.54,0,0,0,.73-2.34h3a6.52,6.52,0,0,1-.7,3.09,4.91,4.91,0,0,1-1.95,2.06,5.65,5.65,0,0,1-2.9.73H135.4A5.81,5.81,0,0,1,132.47,903.3Z"/><path class="cls-4" d="M150.09,903.28a2,2,0,0,1-.59-1.48V888.66h11.58v2.6h-8.59v3.52h7.94v2.6h-7.94v3.86h8.59v2.6H151.6A2.06,2.06,0,0,1,150.09,903.28Z"/><rect class="cls-1" x="641.14" y="393.35" width="217.67" height="217.67" rx="12.03"/><path class="cls-22" d="M791.29,513.54a58.42,58.42,0,0,1-67.54,10.9l9.27-9.26a46.21,46.21,0,0,0,59.91-59.92,45.22,45.22,0,0,0-6.26-11.06l-73.44,73.44a57.8,57.8,0,0,1-8.66-8.66,57,57,0,0,1-6.8-10.52A58.45,58.45,0,0,1,776.21,420L767,429.28A46.15,46.15,0,0,0,703.9,475a46,46,0,0,0,9.39,25.26l73.44-73.45a56.76,56.76,0,0,1,4.56,4.11A58,58,0,0,1,802.2,446a57.57,57.57,0,0,1,4.62,12.7,58.32,58.32,0,0,1-15.53,54.84Z"/><path class="cls-23" d="M742.46,436.1c3.49,3.55,5.1,5.16,8.78,8.84l-30.18,30.18c-3.5-3.4-5.32-4.7-8.81-8.81Z"/><path class="cls-24" d="M777.3,470.94c3.49,3.55,5.1,5.16,8.78,8.84L755.9,510c-3.5-3.4-5.32-4.7-8.81-8.81Z"/><path class="cls-4" d="M684.39,553.52a4.92,4.92,0,0,1-2-2,6.33,6.33,0,0,1-.7-3v-4a6.27,6.27,0,0,1,.71-3,4.93,4.93,0,0,1,2-2,6,6,0,0,1,3-.72h2.3a5.64,5.64,0,0,1,2.86.7,4.78,4.78,0,0,1,1.92,1.94,5.86,5.86,0,0,1,.69,2.89h-2.95a3,3,0,0,0-.7-2.09,2.29,2.29,0,0,0-1.82-.79h-2.3a2.39,2.39,0,0,0-1.95.9,3.59,3.59,0,0,0-.74,2.35v3.73a3.69,3.69,0,0,0,.72,2.36,2.32,2.32,0,0,0,1.89.89h2.34a2.3,2.3,0,0,0,1.87-.88,3.59,3.59,0,0,0,.73-2.35h3a6.64,6.64,0,0,1-.69,3.09,5,5,0,0,1-2,2.06,5.6,5.6,0,0,1-2.9.73h-2.34A5.92,5.92,0,0,1,684.39,553.52Z"/><path class="cls-4" d="M701.42,538.88h8.07a4.61,4.61,0,0,1,3.18,1.06,3.56,3.56,0,0,1,1.2,2.8v1.51a3.13,3.13,0,0,1-.64,2,3.93,3.93,0,0,1-1.85,1.27v0a3.36,3.36,0,0,1,1,1,7.89,7.89,0,0,1,.7,1.63l1.22,3.86h-3.1l-1.15-3.6a3.06,3.06,0,0,0-.78-1.39,1.81,1.81,0,0,0-1.24-.46h-3.66v5.45h-3Zm7.51,7.15a2,2,0,0,0,1.43-.49,1.62,1.62,0,0,0,.52-1.26v-1.41a1.34,1.34,0,0,0-.39-1,1.45,1.45,0,0,0-1-.38h-5V546Z"/><path class="cls-4" d="M724.48,548.16l-5.62-9.28h3.25L726,545.4l3.86-6.52h3.26l-5.62,9.28v5.9h-3Z"/><path class="cls-4" d="M738.73,538.88h8a5.16,5.16,0,0,1,2.34.51,3.7,3.7,0,0,1,1.58,1.45,4.1,4.1,0,0,1,.57,2.16v2a4.24,4.24,0,0,1-.59,2.23,3.92,3.92,0,0,1-1.63,1.49,5.31,5.31,0,0,1-2.44.53h-4.84v4.8h-3Zm7.78,7.78a1.64,1.64,0,0,0,1.24-.49,1.74,1.74,0,0,0,.48-1.29v-1.75a1.7,1.7,0,0,0-.43-1.21,1.48,1.48,0,0,0-1.11-.44h-5v5.18Z"/><path class="cls-4" d="M760.68,541.48h-4.82v-2.6h12.62v2.6h-4.81v12.58h-3Z"/><path class="cls-4" d="M774.64,538.88h3v15.18h-3Z"/><path class="cls-4" d="M787.21,553.5a5.11,5.11,0,0,1-2-2,6.28,6.28,0,0,1-.73-3.05v-3.91a6.21,6.21,0,0,1,.73-3,5.07,5.07,0,0,1,2-2,6.07,6.07,0,0,1,3-.73h2.29a6.09,6.09,0,0,1,3,.73,5.13,5.13,0,0,1,2,2,6.21,6.21,0,0,1,.72,3v3.91a6.28,6.28,0,0,1-.72,3.05,5.17,5.17,0,0,1-2,2,6.09,6.09,0,0,1-3,.73h-2.29A6.07,6.07,0,0,1,787.21,553.5Zm5.32-1.92a2.51,2.51,0,0,0,2-.91,3.56,3.56,0,0,0,.77-2.38v-3.64a3.59,3.59,0,0,0-.77-2.39,2.51,2.51,0,0,0-2-.91h-2.29a2.51,2.51,0,0,0-2,.91,3.54,3.54,0,0,0-.77,2.39v3.64a3.51,3.51,0,0,0,.77,2.38,2.51,2.51,0,0,0,2,.91Z"/><path class="cls-4" d="M804.92,538.88h2.67l7.28,10.32V538.88h2.93v15.18h-2.67l-7.28-10.33v10.33h-2.93Z"/><path class="cls-4" d="M691.48,564.9h11.36v2.6h-8.37v4.08H702v2.6h-7.57v5.9h-3Z"/><path class="cls-4" d="M709.13,564.9h3v15.18h-3Z"/><path class="cls-4" d="M719.37,564.9H722l7.28,10.32V564.9h2.93v15.18h-2.66l-7.29-10.32v10.32h-2.93Z"/><path class="cls-4" d="M748.17,576.55h-5.68l-1.35,3.53H738L744,564.9h1.35a1.88,1.88,0,0,1,1.91,1.3l5.4,13.88h-3.13ZM743.29,574h4.08l-2-5.46h0Z"/><path class="cls-4" d="M758.39,564.9h2.66l7.29,10.32V564.9h2.93v15.18H768.6l-7.29-10.32v10.32h-2.92Z"/><path class="cls-4" d="M780.52,579.54a4.86,4.86,0,0,1-2-2,6.26,6.26,0,0,1-.7-3v-4a6.31,6.31,0,0,1,.71-3,5,5,0,0,1,2-2,6.13,6.13,0,0,1,3-.71h2.3a5.8,5.8,0,0,1,2.87.69,4.91,4.91,0,0,1,1.92,1.94,6,6,0,0,1,.68,2.9h-2.95a3.09,3.09,0,0,0-.69-2.1,2.36,2.36,0,0,0-1.83-.79h-2.3a2.39,2.39,0,0,0-1.95.9,3.62,3.62,0,0,0-.73,2.36v3.73a3.64,3.64,0,0,0,.71,2.35,2.3,2.3,0,0,0,1.89.9h2.34a2.33,2.33,0,0,0,1.88-.89,3.59,3.59,0,0,0,.72-2.34h3a6.64,6.64,0,0,1-.69,3.09,5,5,0,0,1-1.95,2.06,5.77,5.77,0,0,1-2.91.73h-2.34A5.85,5.85,0,0,1,780.52,579.54Z"/><path class="cls-4" d="M798.14,579.52a2,2,0,0,1-.59-1.48V564.9h11.59v2.6h-8.59V571h7.94v2.6h-7.94v3.86h8.59v2.6h-9.48A2.08,2.08,0,0,1,798.14,579.52Z"/><line class="cls-25" x1="210.77" y1="108.84" x2="216.77" y2="108.84"/><line class="cls-26" x1="228.36" y1="108.84" x2="454.38" y2="108.84"/><polyline class="cls-25" points="460.18 108.84 466.18 108.84 466.18 114.84"/><line class="cls-27" x1="466.18" y1="126.84" x2="466.18" y2="408.9"/><polyline class="cls-25" points="466.18 414.9 466.18 420.9 472.18 420.9"/><line class="cls-28" x1="484.16" y1="420.9" x2="621.98" y2="420.9"/><line class="cls-25" x1="627.97" y1="420.9" x2="633.97" y2="420.9"/><polygon class="cls-4" points="632.51 425.89 641.14 420.9 632.51 415.92 632.51 425.89"/><polyline class="cls-29" points="211.08 350.2 420.66 350.2 420.66 471.68 633.97 471.68"/><polygon class="cls-4" points="632.51 476.67 641.14 471.68 632.51 466.69 632.51 476.67"/><polyline class="cls-29" points="211.08 589.77 421.17 589.77 421.17 526.65 633.97 526.65"/><polygon class="cls-4" points="632.51 531.63 641.14 526.65 632.51 521.66 632.51 531.63"/><polyline class="cls-29" points="210.76 825.95 469.04 825.95 469.04 580.57 633.97 580.57"/><polygon class="cls-4" points="632.51 585.55 641.14 580.57 632.51 575.58 632.51 585.55"/><polyline class="cls-30" points="747.09 611.02 747.09 825.95 851.64 825.95"/><polygon class="cls-31" points="850.18 830.93 858.82 825.95 850.18 820.96 850.18 830.93"/><rect class="cls-32" x="858.82" y="773.75" width="257.06" height="103.82"/><text class="cls-33" transform="translate(913.14 838.58)">S<tspan class="cls-34" x="22.61" y="0">T</tspan><tspan class="cls-35" x="43.6" y="0">AKER</tspan></text><polyline class="cls-30" points="747.09 393.35 747.09 108.84 851.64 108.84"/><polygon class="cls-31" points="850.18 113.82 858.82 108.84 850.18 103.85 850.18 113.82"/><text class="cls-36" transform="translate(234.46 96.91)">1<tspan class="cls-37" x="13" y="0">5</tspan><tspan x="33.01" y="0">%</tspan></text><text class="cls-36" transform="translate(234.46 577.5)">1<tspan class="cls-37" x="13" y="0">5</tspan><tspan x="33.01" y="0">%</tspan></text><text class="cls-36" transform="translate(234.46 337.2)">50%</text><text class="cls-36" transform="translate(656.37 263.87)">50%</text><text class="cls-36" transform="translate(656.37 729.89)">50%</text><text class="cls-36" transform="translate(234.46 810.79)">50%</text></g></g></svg>