<svg xmlns="http://www.w3.org/2000/svg" xmlns:xlink="http://www.w3.org/1999/xlink" viewBox="0 0 129.29 129.29"><defs><style>.cls-1{fill:url(#linear-gradient);}.cls-2{fill:url(#linear-gradient-2);}.cls-3{fill:url(#linear-gradient-3);}</style><linearGradient id="linear-gradient" x1="18.93" y1="110.36" x2="110.36" y2="18.93" gradientUnits="userSpaceOnUse"><stop offset="0" stop-color="#01d9c0"/><stop offset="1" stop-color="#90f"/></linearGradient><linearGradient id="linear-gradient-2" x1="27.6" y1="63.14" x2="61.19" y2="29.54" xlink:href="#linear-gradient"/><linearGradient id="linear-gradient-3" x1="66.15" y1="101.69" x2="99.74" y2="68.1" xlink:href="#linear-gradient"/></defs><title>Asset 4</title><g id="Layer_2" data-name="Layer 2"><g id="Layer_1-2" data-name="Layer 1"><path class="cls-1" d="M110.36,110.36a64.73,64.73,0,0,1-74.74,12.07l10.25-10.26a51.12,51.12,0,0,0,66.3-66.3,50.29,50.29,0,0,0-6.92-12.24L24,114.9a64.94,64.94,0,0,1-5-4.54,63,63,0,0,1-4.54-5A64.67,64.67,0,0,1,93.67,6.86L83.42,17.12a51.12,51.12,0,0,0-66.3,66.3A50.29,50.29,0,0,0,24,95.66l81.28-81.27a63,63,0,0,1,5,4.54,64.94,64.94,0,0,1,4.54,5,64.6,64.6,0,0,1-4.54,86.39Z"/><path class="cls-2" d="M56.32,24.67C60.18,28.6,62,30.38,66,34.45L32.64,67.85c-3.87-3.76-5.89-5.21-9.75-9.75Z"/><path class="cls-3" d="M94.87,63.23c3.86,3.92,5.65,5.71,9.72,9.77l-33.4,33.4c-3.87-3.76-5.89-5.2-9.75-9.75Z"/></g></g></svg>