<svg id="Layer_1" data-name="Layer 1" xmlns="http://www.w3.org/2000/svg" viewBox="0 0 529.88 699.11"><defs><style>.cls-1{fill:#191919;}</style></defs><title>Cryption Capital black color</title><polygon class="cls-1" points="449.89 319.35 449.89 319.35 265.97 0 0 458.23 68.54 458.23 265.71 118.54 415.49 378.61 369.28 458.23 461.35 458.23 529.88 458.23 449.89 319.35"/><polygon class="cls-1" points="123.77 458.23 192.77 458.23 301.58 270.69 266.78 211.42 123.77 458.23"/><polygon class="cls-1" points="328.12 314.92 244.96 458.23 316.62 458.23 361.73 372.42 328.12 314.92"/><path class="cls-1" d="M12.16,597.45a18.63,18.63,0,0,1-7.47-7.71,24.2,24.2,0,0,1-2.63-11.5V563.07a23.87,23.87,0,0,1,2.68-11.5,18.71,18.71,0,0,1,7.58-7.71,22.93,22.93,0,0,1,11.34-2.72H32.4a21.83,21.83,0,0,1,10.88,2.64,18.51,18.51,0,0,1,7.3,7.38,22.55,22.55,0,0,1,2.59,11H42a11.6,11.6,0,0,0-2.64-7.95,8.76,8.76,0,0,0-6.92-3H23.66a9.12,9.12,0,0,0-7.42,3.42,13.65,13.65,0,0,0-2.81,8.94v14.18a14,14,0,0,0,2.72,9,8.74,8.74,0,0,0,7.18,3.42h8.9a8.77,8.77,0,0,0,7.13-3.38,13.63,13.63,0,0,0,2.77-8.9H53.34a25.1,25.1,0,0,1-2.64,11.75,18.89,18.89,0,0,1-7.42,7.83,21.71,21.71,0,0,1-11.05,2.76h-8.9A22.35,22.35,0,0,1,12.16,597.45Z"/><path class="cls-1" d="M76.92,541.14h30.67q7.5,0,12.08,4a13.49,13.49,0,0,1,4.57,10.63v5.78a11.94,11.94,0,0,1-2.43,7.46,14.93,14.93,0,0,1-7,4.82V574a12.79,12.79,0,0,1,4,4,31,31,0,0,1,2.68,6.19l4.62,14.67H114.27l-4.37-13.68a11.54,11.54,0,0,0-3-5.28,6.69,6.69,0,0,0-4.7-1.73H88.3v20.69H76.92Zm28.52,27.21a7.65,7.65,0,0,0,5.45-1.86,6.34,6.34,0,0,0,2-4.82v-5.36a5.1,5.1,0,0,0-1.49-3.83,5.41,5.41,0,0,0-4-1.45H88.3v17.32Z"/><path class="cls-1" d="M170.91,576.43l-21.36-35.29h12.37L176.6,566l14.67-24.82h12.37l-21.35,35.29v22.42H170.91Z"/><path class="cls-1" d="M226.6,541.14H257a19.53,19.53,0,0,1,8.9,1.94,14.3,14.3,0,0,1,6,5.52,15.67,15.67,0,0,1,2.14,8.2v7.67a16,16,0,0,1-2.22,8.45,15.06,15.06,0,0,1-6.23,5.69,20.22,20.22,0,0,1-9.27,2H238v18.22H226.6Zm29.6,29.6a6.27,6.27,0,0,0,4.7-1.86,6.71,6.71,0,0,0,1.82-4.9V557.3a6.38,6.38,0,0,0-1.61-4.58,5.62,5.62,0,0,0-4.25-1.69H238v19.71Z"/><path class="cls-1" d="M316,551H297.67v-9.89h48V551h-18.3v47.82H316Z"/><path class="cls-1" d="M369.24,541.14h11.38v57.71H369.24Z"/><path class="cls-1" d="M415.08,597.41a19.46,19.46,0,0,1-7.75-7.75,23.46,23.46,0,0,1-2.77-11.59V563.23a23.45,23.45,0,0,1,2.77-11.58,19.46,19.46,0,0,1,7.75-7.75,23.32,23.32,0,0,1,11.5-2.76h8.74a23.38,23.38,0,0,1,11.5,2.76,19.52,19.52,0,0,1,7.75,7.75,23.55,23.55,0,0,1,2.76,11.58v14.84a23.57,23.57,0,0,1-2.76,11.59,19.52,19.52,0,0,1-7.75,7.75,23.38,23.38,0,0,1-11.5,2.76h-8.74A23.32,23.32,0,0,1,415.08,597.41Zm20.24-7.3a9.58,9.58,0,0,0,7.7-3.46,13.53,13.53,0,0,0,2.93-9.07V563.73a13.53,13.53,0,0,0-2.93-9.07,9.58,9.58,0,0,0-7.7-3.46h-8.74a9.59,9.59,0,0,0-7.71,3.46,13.58,13.58,0,0,0-2.93,9.07v13.85a13.58,13.58,0,0,0,2.93,9.07,9.59,9.59,0,0,0,7.71,3.46Z"/><path class="cls-1" d="M480.91,541.14h10.14l27.7,39.24V541.14h11.13v57.71H519.74L492,559.61v39.24H480.91Z"/><path class="cls-1" d="M12.16,696.39a18.75,18.75,0,0,1-7.47-7.71,24.23,24.23,0,0,1-2.63-11.5V662A23.94,23.94,0,0,1,4.74,650.5a18.74,18.74,0,0,1,7.58-7.7,22.93,22.93,0,0,1,11.34-2.72H32.4a21.83,21.83,0,0,1,10.88,2.63,18.58,18.58,0,0,1,7.3,7.38,22.56,22.56,0,0,1,2.59,11H42a11.64,11.64,0,0,0-2.64-8,8.79,8.79,0,0,0-6.92-3H23.66a9.12,9.12,0,0,0-7.42,3.42,13.7,13.7,0,0,0-2.81,9v14.18a14,14,0,0,0,2.72,9,8.74,8.74,0,0,0,7.18,3.42h8.9a8.8,8.8,0,0,0,7.13-3.38,13.64,13.64,0,0,0,2.77-8.91H53.34a25.07,25.07,0,0,1-2.64,11.75,19,19,0,0,1-7.42,7.84,21.71,21.71,0,0,1-11.05,2.76h-8.9A22.35,22.35,0,0,1,12.16,696.39Z"/><path class="cls-1" d="M115.5,684.35H93.9l-5.11,13.44H76.92l22.59-57.71h5.11a7.14,7.14,0,0,1,7.26,4.94l20.53,52.77H120.53ZM97,674.79h15.5L104.79,654h-.09Z"/><path class="cls-1" d="M156,640.08h30.43a19.65,19.65,0,0,1,8.9,1.93,14.39,14.39,0,0,1,6,5.53,15.65,15.65,0,0,1,2.14,8.2v7.67a16,16,0,0,1-2.22,8.45,15.06,15.06,0,0,1-6.23,5.69,20.22,20.22,0,0,1-9.27,2H167.36v18.22H156Zm29.6,29.59a6.26,6.26,0,0,0,4.7-1.85,6.72,6.72,0,0,0,1.82-4.91v-6.68a6.37,6.37,0,0,0-1.61-4.57,5.58,5.58,0,0,0-4.25-1.69H167.36v19.7Z"/><path class="cls-1" d="M227.22,640.08H238.6v57.71H227.22Z"/><path class="cls-1" d="M280.44,650h-18.3v-9.89h48V650h-18.3v47.82H280.44Z"/><path class="cls-1" d="M372,684.35h-21.6l-5.11,13.44H333.46l22.59-57.71h5.11a7.12,7.12,0,0,1,7.25,4.94l20.53,52.77H377.07Zm-18.55-9.56H369L361.32,654h-.08Z"/><path class="cls-1" d="M414.82,695.69a7.38,7.38,0,0,1-2.19-5.57v-50H424V687.9h31.33v9.89H420.63A8,8,0,0,1,414.82,695.69Z"/></svg>