<svg xmlns="http://www.w3.org/2000/svg" viewBox="0 0 482 660"><defs><style>.cls-1{fill:#fff;}</style></defs><title>Cryption Finance white logo</title><g id="Layer_2" data-name="Layer 2"><g id="Layer_1-2" data-name="Layer 1"><path class="cls-1" d="M101,393.22c-5.77-4.73-11.28-9.71-16.61-15-86.51-86.51-86.54-226.79,0-313.3C152.13-2.9,252.92-17.57,335,20.86L301.54,54.3A177.87,177.87,0,0,0,115.25,95.78c-64.08,64.08-68.95,165-14.83,234.65L381,49.84c5.77,4.73,11.28,9.71,16.61,15,86.51,86.51,86.54,226.79,0,313.3-67.75,67.75-168.51,82.4-250.5,44.09l33.45-33.46a178,178,0,0,0,186.16-41.52c64.08-64.09,68.94-165,14.82-234.66C381.58,112.63,101,392.63,101,393.22Z"/><rect class="cls-1" x="86.62" y="140.67" width="159.13" height="45.9" transform="translate(-67.02 165.43) rotate(-45)"/><rect class="cls-1" x="219.75" y="273.78" width="159.13" height="45.9" transform="translate(-122.16 298.56) rotate(-45)"/><path class="cls-1" d="M9.41,565.28a17.57,17.57,0,0,1-6.95-7.19A22.68,22.68,0,0,1,0,547.37V533.24a22.4,22.4,0,0,1,2.5-10.72,17.5,17.5,0,0,1,7.06-7.18,21.41,21.41,0,0,1,10.57-2.54h8.14a20.24,20.24,0,0,1,10.14,2.46,17.12,17.12,0,0,1,6.8,6.88,20.77,20.77,0,0,1,2.42,10.25H37.18A10.79,10.79,0,0,0,34.73,525a8.17,8.17,0,0,0-6.46-2.8H20.13a8.52,8.52,0,0,0-6.92,3.18,12.82,12.82,0,0,0-2.61,8.34v13.21a13.07,13.07,0,0,0,2.54,8.34,8.15,8.15,0,0,0,6.68,3.19h8.3a8.18,8.18,0,0,0,6.64-3.15,12.61,12.61,0,0,0,2.58-8.3H47.79a23.31,23.31,0,0,1-2.46,11,17.64,17.64,0,0,1-6.92,7.3,20.33,20.33,0,0,1-10.29,2.57h-8.3A21.06,21.06,0,0,1,9.41,565.28Z"/><path class="cls-1" d="M69.76,513.42H98.34q7,0,11.25,3.76a12.56,12.56,0,0,1,4.27,9.91v5.38a11.12,11.12,0,0,1-2.27,6.95,13.92,13.92,0,0,1-6.57,4.5v.15a11.84,11.84,0,0,1,3.73,3.69,28,28,0,0,1,2.49,5.76l4.3,13.68h-11l-4.07-12.76a10.57,10.57,0,0,0-2.77-4.91,6.2,6.2,0,0,0-4.38-1.62h-13V567.2H69.76Zm26.58,25.35a7.15,7.15,0,0,0,5.07-1.73,5.82,5.82,0,0,0,1.84-4.49v-5a4.75,4.75,0,0,0-1.38-3.57,5,5,0,0,0-3.69-1.34H80.36v16.13Z"/><path class="cls-1" d="M151.42,546.3l-19.9-32.88h11.53l13.67,23.12,13.68-23.12h11.52L162,546.3v20.9H151.4Z"/><path class="cls-1" d="M201.9,513.42h28.34a18.3,18.3,0,0,1,8.3,1.8,13.17,13.17,0,0,1,5.61,5.15,14.54,14.54,0,0,1,2,7.64v7.15a14.74,14.74,0,0,1-2.08,7.87,13.9,13.9,0,0,1-5.8,5.31,19.1,19.1,0,0,1-8.64,1.88H212.5v17H201.9ZM229.48,541a5.87,5.87,0,0,0,4.38-1.73,6.25,6.25,0,0,0,1.69-4.57v-6.23a5.84,5.84,0,0,0-1.5-4.26,5.17,5.17,0,0,0-4-1.57H212.5V541Z"/><path class="cls-1" d="M279.64,522.64H262.59v-9.22H307.3v9.22H290.25V567.2H279.64Z"/><path class="cls-1" d="M329.12,513.42h10.6V567.2h-10.6Z"/><path class="cls-1" d="M373.64,565.24a18.2,18.2,0,0,1-7.22-7.23,21.93,21.93,0,0,1-2.58-10.79V533.39a21.91,21.91,0,0,1,2.58-10.79,18,18,0,0,1,7.22-7.22,21.69,21.69,0,0,1,10.72-2.58h8.14a21.64,21.64,0,0,1,10.72,2.58,18,18,0,0,1,7.22,7.22A21.81,21.81,0,0,1,413,533.39v13.83A21.79,21.79,0,0,1,410.44,558a18.2,18.2,0,0,1-7.22,7.23,21.85,21.85,0,0,1-10.72,2.57h-8.14A21.89,21.89,0,0,1,373.64,565.24Zm18.86-6.8a9,9,0,0,0,7.18-3.23,12.57,12.57,0,0,0,2.73-8.45V533.85a12.54,12.54,0,0,0-2.73-8.45,8.89,8.89,0,0,0-7.18-3.22h-8.14a9,9,0,0,0-7.19,3.22,12.69,12.69,0,0,0-2.72,8.45v12.91a12.72,12.72,0,0,0,2.72,8.45,9.05,9.05,0,0,0,7.19,3.23Z"/><path class="cls-1" d="M436.37,513.42h9.45L471.63,550V513.42H482V567.2h-9.45l-25.81-36.57V567.2H436.37Z"/><path class="cls-1" d="M1.54,605.61H41.79v9.22H12.14v14.44H39v9.22H12.14v20.9H1.54Z"/><path class="cls-1" d="M64.07,605.61h10.6v53.78H64.07Z"/><path class="cls-1" d="M100.33,605.61h9.45l25.82,36.57V605.61H146v53.78h-9.45L110.7,622.82v36.57H100.33Z"/><path class="cls-1" d="M202.36,646.86H182.23l-4.76,12.53H166.4l21-53.78h4.77a6.63,6.63,0,0,1,6.76,4.61l19.13,49.17H207ZM185.07,638h14.45l-7.15-19.36h-.08Z"/><path class="cls-1" d="M238.54,605.61H248l25.82,36.57V605.61h10.37v53.78h-9.45l-25.82-36.57v36.57H238.54Z"/><path class="cls-1" d="M316.94,657.47a17.57,17.57,0,0,1-6.95-7.19,22.68,22.68,0,0,1-2.46-10.72V625.43a22.4,22.4,0,0,1,2.5-10.72,17.5,17.5,0,0,1,7.06-7.18A21.41,21.41,0,0,1,327.66,605h8.14a20.24,20.24,0,0,1,10.14,2.46,17.12,17.12,0,0,1,6.8,6.88,20.77,20.77,0,0,1,2.42,10.25H344.71a10.84,10.84,0,0,0-2.45-7.41,8.17,8.17,0,0,0-6.46-2.8h-8.14a8.52,8.52,0,0,0-6.92,3.18,12.82,12.82,0,0,0-2.61,8.34v13.2a13.07,13.07,0,0,0,2.54,8.34,8.15,8.15,0,0,0,6.68,3.19h8.3a8.18,8.18,0,0,0,6.64-3.15,12.61,12.61,0,0,0,2.58-8.3h10.44a23.19,23.19,0,0,1-2.45,11,17.64,17.64,0,0,1-6.92,7.3A20.18,20.18,0,0,1,335.65,660h-8.3A20.91,20.91,0,0,1,316.94,657.47Z"/><path class="cls-1" d="M379.36,657.39a7,7,0,0,1-2.07-5.23V605.61h41v9.22h-30.4v12.44H416v9.22H387.89v13.68h30.42v9.22H384.74A7.46,7.46,0,0,1,379.36,657.39Z"/></g></g></svg>