<svg id="Layer_1" data-name="Layer 1" xmlns="http://www.w3.org/2000/svg" viewBox="0 0 482 660"><defs><style>.cls-1{fill:#191919;}</style></defs><title>Cryption Finance black logo</title><path class="cls-1" d="M101,393.22c-5.77-4.73-11.28-9.71-16.61-15-86.51-86.51-86.54-226.79,0-313.3C152.13-2.9,252.92-17.57,335,20.86L301.54,54.3A177.88,177.88,0,0,0,115.25,95.78c-64.08,64.08-68.95,165-14.83,234.65L381,49.84c5.77,4.73,11.28,9.71,16.61,15,86.51,86.51,86.54,226.79,0,313.3-67.75,67.75-168.51,82.4-250.5,44.09l33.45-33.46a178,178,0,0,0,186.16-41.52c64.08-64.09,68.94-165,14.82-234.66C381.58,112.63,101,392.63,101,393.22Z"/><rect class="cls-1" x="86.61" y="140.67" width="159.13" height="45.9" transform="translate(-67.02 165.43) rotate(-45)"/><rect class="cls-1" x="219.74" y="273.79" width="159.13" height="45.9" transform="translate(-122.16 298.55) rotate(-45)"/><path class="cls-1" d="M9.41,565.28a17.51,17.51,0,0,1-6.95-7.19A22.57,22.57,0,0,1,0,547.37V533.24a22.24,22.24,0,0,1,2.5-10.72,17.5,17.5,0,0,1,7.06-7.18,21.44,21.44,0,0,1,10.57-2.54h8.14a20.36,20.36,0,0,1,10.14,2.46,17.18,17.18,0,0,1,6.8,6.88,20.9,20.9,0,0,1,2.42,10.25H37.18A10.88,10.88,0,0,0,34.73,525a8.18,8.18,0,0,0-6.46-2.8H20.13a8.52,8.52,0,0,0-6.92,3.18,12.76,12.76,0,0,0-2.61,8.34v13.21a13,13,0,0,0,2.54,8.34,8.11,8.11,0,0,0,6.68,3.19h8.3a8.18,8.18,0,0,0,6.64-3.15,12.69,12.69,0,0,0,2.58-8.3H47.79a23.38,23.38,0,0,1-2.46,11,17.67,17.67,0,0,1-6.92,7.3,20.25,20.25,0,0,1-10.29,2.57h-8.3A21,21,0,0,1,9.41,565.28Z"/><path class="cls-1" d="M69.76,513.42H98.34q7,0,11.25,3.76a12.6,12.6,0,0,1,4.27,9.91v5.38a11.11,11.11,0,0,1-2.27,6.95,13.94,13.94,0,0,1-6.57,4.5v.15a12,12,0,0,1,3.73,3.69,29.05,29.05,0,0,1,2.49,5.76l4.3,13.68h-11l-4.07-12.76a10.69,10.69,0,0,0-2.77-4.91,6.24,6.24,0,0,0-4.38-1.62h-13V567.2H69.76Zm26.58,25.35a7.13,7.13,0,0,0,5.07-1.73,5.87,5.87,0,0,0,1.84-4.49v-5a4.77,4.77,0,0,0-1.38-3.57,5.08,5.08,0,0,0-3.69-1.34H80.36v16.13Z"/><path class="cls-1" d="M151.42,546.3l-19.9-32.88h11.53l13.67,23.12,13.68-23.12h11.52L162,546.3v20.9h-10.6Z"/><path class="cls-1" d="M201.9,513.42h28.34a18.36,18.36,0,0,1,8.3,1.8,13.32,13.32,0,0,1,5.61,5.15,14.64,14.64,0,0,1,2,7.64v7.15a14.78,14.78,0,0,1-2.08,7.87,14,14,0,0,1-5.8,5.31,19,19,0,0,1-8.64,1.88H212.5v17H201.9ZM229.48,541a5.88,5.88,0,0,0,4.38-1.73,6.29,6.29,0,0,0,1.69-4.57v-6.23a5.92,5.92,0,0,0-1.5-4.26,5.21,5.21,0,0,0-4-1.57H212.5V541Z"/><path class="cls-1" d="M279.64,522.64H262.59v-9.22H307.3v9.22H290.25V567.2H279.64Z"/><path class="cls-1" d="M329.12,513.42h10.6V567.2h-10.6Z"/><path class="cls-1" d="M373.64,565.24a18.13,18.13,0,0,1-7.22-7.23,21.83,21.83,0,0,1-2.58-10.79V533.39a21.86,21.86,0,0,1,2.58-10.79,18,18,0,0,1,7.22-7.22,21.72,21.72,0,0,1,10.72-2.58h8.14a21.75,21.75,0,0,1,10.72,2.58,18.17,18.17,0,0,1,7.22,7.22A22,22,0,0,1,413,533.39v13.83A21.94,21.94,0,0,1,410.44,558a18.26,18.26,0,0,1-7.22,7.23,21.85,21.85,0,0,1-10.72,2.57h-8.14A21.82,21.82,0,0,1,373.64,565.24Zm18.86-6.8a9,9,0,0,0,7.18-3.23,12.64,12.64,0,0,0,2.73-8.45V533.85a12.64,12.64,0,0,0-2.73-8.45,8.94,8.94,0,0,0-7.18-3.22h-8.14a9,9,0,0,0-7.19,3.22,12.63,12.63,0,0,0-2.72,8.45v12.91a12.63,12.63,0,0,0,2.72,8.45,9,9,0,0,0,7.19,3.23Z"/><path class="cls-1" d="M436.37,513.42h9.45L471.63,550V513.42H482V567.2h-9.45l-25.81-36.57V567.2H436.37Z"/><path class="cls-1" d="M1.54,605.61H41.79v9.22H12.14v14.44H39v9.22H12.14v20.9H1.54Z"/><path class="cls-1" d="M64.07,605.61h10.6v53.78H64.07Z"/><path class="cls-1" d="M100.33,605.61h9.45l25.82,36.57V605.61H146v53.78h-9.45L110.7,622.82v36.57H100.33Z"/><path class="cls-1" d="M202.36,646.86H182.23l-4.76,12.53H166.4l21-53.78h4.77a6.65,6.65,0,0,1,6.76,4.61l19.13,49.17H207ZM185.07,638h14.45l-7.15-19.36h-.08Z"/><path class="cls-1" d="M238.54,605.61H248l25.82,36.57V605.61h10.37v53.78h-9.45l-25.82-36.57v36.57H238.54Z"/><path class="cls-1" d="M316.94,657.47a17.51,17.51,0,0,1-6.95-7.19,22.57,22.57,0,0,1-2.46-10.72V625.43a22.24,22.24,0,0,1,2.5-10.72,17.5,17.5,0,0,1,7.06-7.18A21.44,21.44,0,0,1,327.66,605h8.14a20.36,20.36,0,0,1,10.14,2.46,17.18,17.18,0,0,1,6.8,6.88,20.9,20.9,0,0,1,2.42,10.25H344.71a10.88,10.88,0,0,0-2.45-7.41,8.18,8.18,0,0,0-6.46-2.8h-8.14a8.51,8.51,0,0,0-6.92,3.18,12.76,12.76,0,0,0-2.61,8.34V639.1a13,13,0,0,0,2.54,8.34,8.11,8.11,0,0,0,6.68,3.19h8.3a8.18,8.18,0,0,0,6.64-3.15,12.69,12.69,0,0,0,2.58-8.3h10.44a23.38,23.38,0,0,1-2.45,11,17.67,17.67,0,0,1-6.92,7.3A20.25,20.25,0,0,1,335.65,660h-8.3A20.85,20.85,0,0,1,316.94,657.47Z"/><path class="cls-1" d="M379.36,657.39a6.93,6.93,0,0,1-2.07-5.23V605.61h41v9.22H387.89v12.44H416v9.22H387.89v13.68h30.42v9.22H384.74A7.44,7.44,0,0,1,379.36,657.39Z"/></svg>