<svg id="Layer_1" data-name="Layer 1" xmlns="http://www.w3.org/2000/svg" viewBox="0 0 566.54 655"><defs><style>.cls-1{fill:#e6e6e6;}.cls-2{fill:#1a1a1a;}.cls-2,.cls-5{opacity:0.18;}.cls-3{fill:#d8d6d6;}.cls-4{fill:#dbdbdb;}.cls-6{fill:#fff;}</style></defs><title>Etherrush white logo</title><polygon class="cls-1" points="283.27 0 135.12 256.6 431.42 256.6 283.27 0"/><polygon class="cls-1" points="431.42 256.6 283.27 0 283.27 256.6 431.42 256.6"/><polygon class="cls-2" points="431.42 256.6 283.27 0 283.27 256.6 431.42 256.6"/><polygon class="cls-3" points="283.27 192.45 135.12 256.6 283.27 320.75 431.42 256.6 283.27 192.45"/><polygon class="cls-4" points="283.27 320.75 431.42 256.6 283.27 192.45 283.27 320.75"/><polygon class="cls-2" points="283.27 320.75 431.42 256.6 283.27 192.45 283.27 320.75"/><polygon class="cls-1" points="283.27 343.15 135.12 279 283.27 529.17 431.42 279 283.27 343.15"/><polygon class="cls-1" points="283.27 529.17 431.42 279 283.27 343.15 283.27 529.17"/><polygon class="cls-5" points="283.27 529.17 431.42 279 283.27 343.15 283.27 529.17"/><path class="cls-6" d="M2,652.44a6.79,6.79,0,0,1-2-5.12V601.68H40.22v9H10.39v12.2H38v9H10.39v13.4H40.22v9H7.3A7.28,7.28,0,0,1,2,652.44Z"/><path class="cls-6" d="M75.32,610.72H58.59v-9h43.84v9H85.71V654.4H75.32Z"/><path class="cls-6" d="M123.07,601.68h10.39v21.77H158V601.68h10.4V654.4H158V632.48H133.46V654.4H123.07Z"/><path class="cls-6" d="M194.85,652.44a6.76,6.76,0,0,1-2-5.12V601.68H233v9H203.21v12.2h27.56v9H203.21v13.4H233v9H200.12A7.25,7.25,0,0,1,194.85,652.44Z"/><path class="cls-6" d="M255.18,601.68h28q6.85,0,11,3.69a12.35,12.35,0,0,1,4.18,9.71v5.28a10.82,10.82,0,0,1-2.23,6.81,13.66,13.66,0,0,1-6.43,4.41v.15a11.75,11.75,0,0,1,3.65,3.61,28.68,28.68,0,0,1,2.45,5.65l4.22,13.41H289.29l-4-12.5a10.4,10.4,0,0,0-2.71-4.82,6.12,6.12,0,0,0-4.29-1.58H265.57v18.9H255.18Zm26.06,24.85a7,7,0,0,0,5-1.69,5.78,5.78,0,0,0,1.8-4.41v-4.89a4.69,4.69,0,0,0-1.35-3.51,5,5,0,0,0-3.62-1.31H265.57v15.81Z"/><path class="cls-6" d="M321.31,601.68h28q6.85,0,11,3.69a12.35,12.35,0,0,1,4.18,9.71v5.28a10.82,10.82,0,0,1-2.23,6.81,13.66,13.66,0,0,1-6.43,4.41v.15a11.75,11.75,0,0,1,3.65,3.61A28.68,28.68,0,0,1,362,641l4.22,13.41H355.42l-4-12.5a10.4,10.4,0,0,0-2.71-4.82,6.12,6.12,0,0,0-4.29-1.58H331.7v18.9H321.31Zm26.06,24.85a7,7,0,0,0,5-1.69,5.78,5.78,0,0,0,1.8-4.41v-4.89a4.69,4.69,0,0,0-1.35-3.51,5,5,0,0,0-3.62-1.31H331.7v15.81Z"/><path class="cls-6" d="M396,652.63a16.5,16.5,0,0,1-6.55-6.67,20.42,20.42,0,0,1-2.34-9.94V601.68h10.4v34a11.14,11.14,0,0,0,2.29,7.31,7.43,7.43,0,0,0,6,2.78h8a7.6,7.6,0,0,0,6.1-2.78,11.05,11.05,0,0,0,2.33-7.31v-34h10.4V636a20.42,20.42,0,0,1-2.34,9.94,16.38,16.38,0,0,1-6.63,6.67A20.06,20.06,0,0,1,413.8,655h-8A19.66,19.66,0,0,1,396,652.63Z"/><path class="cls-6" d="M459.59,650.37q-4.68-4.64-4.67-12.92h10.24a8.86,8.86,0,0,0,2,6.14,7,7,0,0,0,5.53,2.22h8.36a9.5,9.5,0,0,0,5.39-1.39,4.29,4.29,0,0,0,2.07-3.73v-2.56q0-3.69-5.42-4.59l-13.86-2.34q-6.78-1.12-10.28-4.33a10.56,10.56,0,0,1-3.51-8.17v-4.22a11.93,11.93,0,0,1,2.15-7,13.8,13.8,0,0,1,6.1-4.71,23.64,23.64,0,0,1,9.15-1.66h8.51a17.87,17.87,0,0,1,8.66,2,14.35,14.35,0,0,1,5.84,5.69,16.85,16.85,0,0,1,2.07,8.47H487.68a7.31,7.31,0,0,0-1.73-5.08,5.88,5.88,0,0,0-4.6-1.93h-8.51a8.65,8.65,0,0,0-5.08,1.36,4.23,4.23,0,0,0-1.92,3.62v2q0,3.76,5.19,4.67l13.79,2.41q6.85,1.2,10.47,4.26a9.8,9.8,0,0,1,3.61,7.87v5a11.83,11.83,0,0,1-2.22,7.09,14.31,14.31,0,0,1-6.21,4.78A23.59,23.59,0,0,1,481.2,655h-8.66Q464.26,655,459.59,650.37Z"/><path class="cls-6" d="M521.2,601.68h10.39v21.77h24.55V601.68h10.4V654.4h-10.4V632.48H531.59V654.4H521.2Z"/></svg>