<svg width="85" height="87" viewBox="0 0 85 87" fill="none" xmlns="http://www.w3.org/2000/svg">
<path d="M84.5 43.5C84.5 67.2593 65.6851 86.5 42.5 86.5C19.3149 86.5 0.5 67.2593 0.5 43.5C0.5 19.7407 19.3149 0.5 42.5 0.5C65.6851 0.5 84.5 19.7407 84.5 43.5Z" stroke="url(#paint0_linear)"/>
<g filter="url(#filter0_i)">
<ellipse cx="42.5" cy="43.5" rx="30.5" ry="31.5" fill="url(#paint1_linear)"/>
</g>
<path d="M40.1875 47.5156H46.5156V55.2969C46.5156 55.685 46.2006 56 45.8125 56H31.7031C31.315 56 31 55.685 31 55.2969V41.1875C31 40.7994 31.315 40.4844 31.7031 40.4844H39.4844V46.8125C39.4844 47.2006 39.7994 47.5156 40.1875 47.5156Z" fill="white" fill-opacity="0.8"/>
<path d="M54.2969 47.5156H46.5156V41.1875C46.5156 40.7994 46.2006 40.4844 45.8125 40.4844H39.4844V32.7031C39.4844 32.315 39.7994 32 40.1875 32H54.2969C54.685 32 55 32.315 55 32.7031V46.8125C55 47.2006 54.685 47.5156 54.2969 47.5156Z" fill="white" fill-opacity="0.8"/>
<defs>
<filter id="filter0_i" x="12" y="12" width="61" height="64" filterUnits="userSpaceOnUse" color-interpolation-filters="sRGB">
<feFlood flood-opacity="0" result="BackgroundImageFix"/>
<feBlend mode="normal" in="SourceGraphic" in2="BackgroundImageFix" result="shape"/>
<feColorMatrix in="SourceAlpha" type="matrix" values="0 0 0 0 0 0 0 0 0 0 0 0 0 0 0 0 0 0 127 0" result="hardAlpha"/>
<feMorphology radius="1" operator="erode" in="SourceAlpha" result="effect1_innerShadow"/>
<feOffset dy="1"/>
<feGaussianBlur stdDeviation="0.5"/>
<feComposite in2="hardAlpha" operator="arithmetic" k2="-1" k3="1"/>
<feColorMatrix type="matrix" values="0 0 0 0 0.501961 0 0 0 0 0.101961 0 0 0 0 0.980392 0 0 0 1 0"/>
<feBlend mode="normal" in2="shape" result="effect1_innerShadow"/>
</filter>
<linearGradient id="paint0_linear" x1="42.5" y1="0" x2="42.5" y2="87" gradientUnits="userSpaceOnUse">
<stop stop-color="#9900FF"/>
<stop offset="1" stop-color="#2082E9"/>
</linearGradient>
<linearGradient id="paint1_linear" x1="42.5" y1="12" x2="42.5" y2="75" gradientUnits="userSpaceOnUse">
<stop stop-color="#9900FF"/>
<stop offset="1" stop-color="#2082E9"/>
</linearGradient>
</defs>
</svg>
