<svg width="85" height="87" viewBox="0 0 85 87" fill="none" xmlns="http://www.w3.org/2000/svg">
<path d="M84.5 43.5C84.5 67.2593 65.6851 86.5 42.5 86.5C19.3149 86.5 0.5 67.2593 0.5 43.5C0.5 19.7407 19.3149 0.5 42.5 0.5C65.6851 0.5 84.5 19.7407 84.5 43.5Z" stroke="url(#paint0_linear)"/>
<g filter="url(#filter0_i)">
<ellipse cx="42.5" cy="43.5" rx="30.5" ry="31.5" fill="url(#paint1_linear)"/>
</g>
<path d="M31.6992 33.9482L40.9495 30.2046C41.6236 29.9318 42.3774 29.9318 43.0515 30.2046L52.3017 33.9482C53.4623 34.4179 54.1695 35.6032 54.0343 36.8478C53.1512 44.9782 47.6479 56 42.0004 56C36.3529 56 30.8496 44.9782 29.9665 36.8478C29.8312 35.6014 30.5369 34.4185 31.6992 33.9482ZM32.9258 38.2129C33.535 44.4065 37.3561 53.1128 42.0005 53.1128C46.645 53.1128 50.4661 44.4065 51.0753 38.2129C51.1683 37.2669 50.6174 36.3737 49.7293 36.0344L42.7539 33.3691C42.5114 33.2764 42.2559 33.2301 42.0005 33.2301C41.7451 33.2301 41.4897 33.2764 41.2471 33.3691L34.2719 36.0344C33.3824 36.3743 32.8327 37.2654 32.9258 38.2129Z" fill="white" fill-opacity="0.8"/>
<path d="M49.0759 37.7443C49.1928 37.7889 49.2659 37.908 49.2535 38.0338C48.9626 40.9921 47.8863 44.469 46.4447 47.1079C45.0168 49.7218 43.3553 51.2823 42.0004 51.2823V35.0605C42.0349 35.0605 42.0685 35.0668 42.1006 35.079L49.0759 37.7443Z" fill="white" fill-opacity="0.8"/>
<defs>
<filter id="filter0_i" x="12" y="12" width="61" height="64" filterUnits="userSpaceOnUse" color-interpolation-filters="sRGB">
<feFlood flood-opacity="0" result="BackgroundImageFix"/>
<feBlend mode="normal" in="SourceGraphic" in2="BackgroundImageFix" result="shape"/>
<feColorMatrix in="SourceAlpha" type="matrix" values="0 0 0 0 0 0 0 0 0 0 0 0 0 0 0 0 0 0 127 0" result="hardAlpha"/>
<feMorphology radius="1" operator="erode" in="SourceAlpha" result="effect1_innerShadow"/>
<feOffset dy="1"/>
<feGaussianBlur stdDeviation="0.5"/>
<feComposite in2="hardAlpha" operator="arithmetic" k2="-1" k3="1"/>
<feColorMatrix type="matrix" values="0 0 0 0 0.501961 0 0 0 0 0.101961 0 0 0 0 0.980392 0 0 0 1 0"/>
<feBlend mode="normal" in2="shape" result="effect1_innerShadow"/>
</filter>
<linearGradient id="paint0_linear" x1="42.5" y1="0" x2="42.5" y2="87" gradientUnits="userSpaceOnUse">
<stop stop-color="#9900FF"/>
<stop offset="1" stop-color="#2082E9"/>
</linearGradient>
<linearGradient id="paint1_linear" x1="42.5" y1="12" x2="42.5" y2="75" gradientUnits="userSpaceOnUse">
<stop stop-color="#9900FF"/>
<stop offset="1" stop-color="#2082E9"/>
</linearGradient>
</defs>
</svg>
