<svg id="Layer_1" data-name="Layer 1" xmlns="http://www.w3.org/2000/svg" viewBox="0 0 636.28 655.95"><defs><style>.cls-1{fill:#fff;}</style></defs><title>seer white logo</title><path class="cls-1" d="M524.31,370.57c27.47-12.1,54.05-27.79,75.43-49.09,17.12-17.06,30.82-38.26,35.13-62.34,4.12-23.07-1-46.54-12.73-66.65-13.65-23.37-34.76-41.72-57.35-56.15-6.57-4.2-13.34-8.09-20.24-11.72q-5.38-2.84-10.9-5.46c-1.76-.84-3.52-1.67-5.3-2.48l-2.69-1.21a4.47,4.47,0,0,1-2.35-2.18,244.76,244.76,0,0,0-91.59-85A241.91,241.91,0,0,0,184.18,40.42a245.31,245.31,0,0,0-60.7,57.51q-3.15,4.23-6.13,8.6c-1,1.46-2,2.92-2.92,4.4s-1.75,3.41-3.19,4.24c-3.52,2-7.6,3.45-11.28,5.25s-7.22,3.61-10.78,5.52a248,248,0,0,0-37.73,24.68c-19.7,15.81-37.1,35.73-45.8,59.76a95.36,95.36,0,0,0,1,67.32C16,301.56,33.9,321.2,53.92,336.76A253.82,253.82,0,0,0,92.3,361.15c3.6,1.88,7.25,3.69,10.92,5.44q2.66,1.26,5.32,2.47c.89.4,1.86.73,2.7,1.21a5.9,5.9,0,0,1,2,2.4q5.69,8.91,12.11,17.31a245.13,245.13,0,0,0,61.43,56.75,242.06,242.06,0,0,0,247.69,8.94,244.84,244.84,0,0,0,89.84-85.1Zm85.56-127.85c0,28.89-19.41,53.11-40.89,70.39a209.28,209.28,0,0,1-24.41,16.81,241.76,241.76,0,0,0,0-174.4c25.68,15.26,52.07,36.64,61.81,66A67.45,67.45,0,0,1,609.87,242.72Zm-432,0a139.63,139.63,0,1,1,1.69,21.79A140.46,140.46,0,0,1,177.91,242.72ZM215,373.48a442.71,442.71,0,0,1-77.31-21.55c-1.33-.52-2.67-1-4-1.57s-3.4-1-4.3-2.23c-1.8-2.42-3-5.59-4.41-8.28q-4.17-8.24-7.62-16.82A215.47,215.47,0,0,1,114,171.27c2.09-5.94,4.44-11.8,7-17.53q1.94-4.29,4.07-8.48a63,63,0,0,1,4.24-7.95c.83-1.17,2.61-1.56,4-2.1l4.33-1.7q4.4-1.69,8.85-3.28,9.15-3.27,18.44-6.09,19.56-5.94,39.6-10.11Q209.76,113,215,112a166.39,166.39,0,0,0,0,261.52ZM484.77,242.72a167.13,167.13,0,0,0-40-108.2A169.06,169.06,0,0,0,421.26,112a442.5,442.5,0,0,1,77.29,21.55l4,1.57c1.44.57,3.4,1,4.29,2.23,1.8,2.42,3.05,5.58,4.41,8.27q4.17,8.25,7.62,16.83a215.42,215.42,0,0,1,3.34,151.76q-3.13,8.93-7.05,17.53-1.93,4.29-4.07,8.48a63,63,0,0,1-4.24,7.95c-.83,1.17-2.61,1.56-4,2.1l-4.33,1.7q-4.4,1.69-8.85,3.28-9.15,3.27-18.44,6.09c-13,4-26.27,7.31-39.6,10.11q-5.19,1.08-10.41,2.07a166.11,166.11,0,0,0,63.52-130.76ZM318.12,26.45a216.35,216.35,0,0,1,160.76,71.8c-39.76-12-81.1-18.53-122.51-21a614.14,614.14,0,0,0-132.94,6.11,501.07,501.07,0,0,0-66.08,14.93,217.88,217.88,0,0,1,53.86-43.46A215,215,0,0,1,318.12,26.45ZM26.36,242.72c0-28.88,19.41-53.1,40.89-70.39a209.28,209.28,0,0,1,24.41-16.81,241.76,241.76,0,0,0,0,174.4c-25.69-15.26-52.07-36.64-61.81-66A67.56,67.56,0,0,1,26.36,242.72Zm131,144.47c39.76,12,81.1,18.53,122.51,21a614.32,614.32,0,0,0,133-6.11,501.43,501.43,0,0,0,66.08-14.93A218.38,218.38,0,0,1,425,430.66a215.29,215.29,0,0,1-66,24.46,217.46,217.46,0,0,1-73.05,1.48,215.21,215.21,0,0,1-67.26-21.88,218.14,218.14,0,0,1-55.34-41.14Q160.27,390.45,157.34,387.19Z"/><path class="cls-1" d="M26.08,652.92q-10.45-3-16.78-7.88l7.41-16.44a50.47,50.47,0,0,0,14.42,7.14,54.06,54.06,0,0,0,16.71,2.69q9.3,0,13.74-2.76T66,628.33a7,7,0,0,0-2.63-5.59,19.82,19.82,0,0,0-6.74-3.58q-4.11-1.33-11.11-3a151.35,151.35,0,0,1-17.65-5.12,28.62,28.62,0,0,1-11.79-8.22q-4.93-5.65-4.92-15.09a26.29,26.29,0,0,1,4.44-14.89Q20.09,566.2,29,562.3t21.9-3.91a72.42,72.42,0,0,1,17.65,2.16,52,52,0,0,1,15.09,6.2l-6.74,16.57q-13.06-7.41-26.14-7.41-9.16,0-13.54,3a9,9,0,0,0-4.38,7.81q0,4.84,5,7.21t15.43,4.65A153.34,153.34,0,0,1,71,603.67a29.23,29.23,0,0,1,11.79,8.08q4.92,5.54,4.92,15a25.77,25.77,0,0,1-4.51,14.76Q78.7,648.13,69.67,652T47.7,656A77.14,77.14,0,0,1,26.08,652.92Z"/><path class="cls-1" d="M263.93,636.82v17.51h-73V560h71.29v17.52H212.59V598h43.79v17H212.59v21.83Z"/><path class="cls-1" d="M442.83,636.82v17.51h-73V560h71.29v17.52H391.49V598h43.79v17H391.49v21.83Z"/><path class="cls-1" d="M603.53,654.33l-18.19-26.27H565.27v26.27H543.44V560h40.83q12.53,0,21.76,4.18a32.43,32.43,0,0,1-.21,59.83L627,654.33ZM598,582q-5.12-4.24-15-4.24H565.27v32.88h17.78q9.84,0,15-4.32t5.12-12.12Q603.13,586.29,598,582Z"/></svg>