<svg width="85" height="87" viewBox="0 0 85 87" fill="none" xmlns="http://www.w3.org/2000/svg">
<path d="M84.5 43.5C84.5 67.2593 65.6851 86.5 42.5 86.5C19.3149 86.5 0.5 67.2593 0.5 43.5C0.5 19.7407 19.3149 0.5 42.5 0.5C65.6851 0.5 84.5 19.7407 84.5 43.5Z" stroke="url(#paint0_linear)"/>
<g filter="url(#filter0_i)">
<ellipse cx="42.5" cy="43.5" rx="30.5" ry="31.5" fill="url(#paint1_linear)"/>
</g>
<path d="M28 47.8672H30.3438V40.1328H28V47.8672ZM32.6289 35.4453H34.9727V52.5547H32.6289V35.4453ZM37.1992 30.7578H39.543V57.2422H37.1992V30.7578ZM41.7695 40.1328H44.1133V47.8672H41.7695V40.1328ZM46.3984 33.6875H48.7422V54.3125H46.3984V33.6875ZM55.6562 47.8672V39.5469H58V47.8672H55.6562ZM51.0273 30.7578H53.3711V57.2422H51.0273V30.7578Z" fill="white" fill-opacity="0.8"/>
<defs>
<filter id="filter0_i" x="12" y="12" width="61" height="64" filterUnits="userSpaceOnUse" color-interpolation-filters="sRGB">
<feFlood flood-opacity="0" result="BackgroundImageFix"/>
<feBlend mode="normal" in="SourceGraphic" in2="BackgroundImageFix" result="shape"/>
<feColorMatrix in="SourceAlpha" type="matrix" values="0 0 0 0 0 0 0 0 0 0 0 0 0 0 0 0 0 0 127 0" result="hardAlpha"/>
<feMorphology radius="1" operator="erode" in="SourceAlpha" result="effect1_innerShadow"/>
<feOffset dy="1"/>
<feGaussianBlur stdDeviation="0.5"/>
<feComposite in2="hardAlpha" operator="arithmetic" k2="-1" k3="1"/>
<feColorMatrix type="matrix" values="0 0 0 0 0.501961 0 0 0 0 0.101961 0 0 0 0 0.980392 0 0 0 1 0"/>
<feBlend mode="normal" in2="shape" result="effect1_innerShadow"/>
</filter>
<linearGradient id="paint0_linear" x1="42.5" y1="0" x2="42.5" y2="87" gradientUnits="userSpaceOnUse">
<stop stop-color="#9900FF"/>
<stop offset="1" stop-color="#2082E9"/>
</linearGradient>
<linearGradient id="paint1_linear" x1="42.5" y1="12" x2="42.5" y2="75" gradientUnits="userSpaceOnUse">
<stop stop-color="#9900FF"/>
<stop offset="1" stop-color="#2082E9"/>
</linearGradient>
</defs>
</svg>
