<svg xmlns="http://www.w3.org/2000/svg" viewBox="0 0 91.66 47.76"><defs><style>.cls-1,.cls-2{fill:#fff;}.cls-2{fill-rule:evenodd;}</style></defs><g id="Layer_2" data-name="Layer 2"><g id="Layer_1-2" data-name="Layer 1"><path class="cls-1" d="M39.06,4.28H39a.33.33,0,0,0-.13,0H38.5s-.07,0-.07,0a5.66,5.66,0,0,0-.81.19c-.51.12-1.19.28-2.44.63s-2.86.76-4.33,1.16L28,7c-.75.17-1,.23-1.15.27a3.9,3.9,0,0,0-.64-.14,11.08,11.08,0,0,0-1.5-.26c-.76-.1-1.5-.14-2.25-.17a11.14,11.14,0,0,0-1.54,0,3.67,3.67,0,0,0-.67,0l-1.08-.46c-.66-.3-1.49-.66-2.83-1.24S13.34,3.75,12,3.17s-2-.8-2.48-1a5.89,5.89,0,0,0-.86-.29c-.06-.06-.18-.13-.45-.08a1.25,1.25,0,0,0-1,.48A8.3,8.3,0,0,0,5.81,4.23,11.61,11.61,0,0,0,5,6.17c-.21.54-.29.8-.33.94a4.3,4.3,0,0,1,1.18-.57,9.13,9.13,0,0,1,2.83-.8A16.67,16.67,0,0,1,13,5.81a8.66,8.66,0,0,1,2.8,1,4.67,4.67,0,0,1,1.15.62,4.4,4.4,0,0,1,1,.72,8.67,8.67,0,0,1,2,2,15.25,15.25,0,0,1,1.81,3.49,8,8,0,0,1,.46,2.55,4.56,4.56,0,0,1,0,1.12,3.42,3.42,0,0,1,.15-.53,8.71,8.71,0,0,1,.41-1.25,15.12,15.12,0,0,1,.85-1.77,8.92,8.92,0,0,1,.73-1.14,4.55,4.55,0,0,1,.36-.5,4.91,4.91,0,0,1,1.2-1.42,10.41,10.41,0,0,1,3.29-2.52,19,19,0,0,1,5.63-1.73,10.44,10.44,0,0,1,4,.2A5.12,5.12,0,0,1,40.56,7c0-.06,0-.17-.1-.4a4.9,4.9,0,0,0-.26-.86,5.8,5.8,0,0,0-.51-1,1.13,1.13,0,0,0-.43-.4C39.14,4.29,39.08,4.28,39.06,4.28ZM21.92,19.17s0,.18-.11.45-.16.52-.34,1-.42,1-.67,1.44-.43.71-.57.93a4.74,4.74,0,0,0-.26.4,7,7,0,0,1-1.25,1.52,14.83,14.83,0,0,1-3.39,2.89,22.86,22.86,0,0,1-5.87,2.71,8.15,8.15,0,0,1-4.15.06,3.27,3.27,0,0,1-1.73-.61l-.23-.12c-.12-.07-.27-.14-.48-.27a8.09,8.09,0,0,1-.69-.44c-.22-.15-.35-.26-.45-.34a1.22,1.22,0,0,1-.18-.16,6,6,0,0,0,.14,1.77,13.12,13.12,0,0,0,.93,3.83A22.86,22.86,0,0,0,5.31,39a10.65,10.65,0,0,0,2.55,2.52,5.65,5.65,0,0,0,1.24.91.6.6,0,0,1,.16-.21,1.51,1.51,0,0,1,.4-.44,2.57,2.57,0,0,1,.77-.44,1.53,1.53,0,0,1,.63-.13.87.87,0,0,1,.3,0,1.35,1.35,0,0,1,.69.11A2.31,2.31,0,0,1,13,42a9.4,9.4,0,0,1,.57,1.17c.14.21.23.21.33.13a.64.64,0,0,0,.23-.27c0-.08.08-.2.34-.31a1.33,1.33,0,0,1,1.1-.14,5.33,5.33,0,0,1,1.79.94,2.81,2.81,0,0,1,.83,1.16,1,1,0,0,1,.17.58s0,0,0,.07a.43.43,0,0,0,0,.13v.2a.27.27,0,0,0,0,.12,0,0,0,0,0,0,0h.05l.1,0,.15,0h.16s0,0,0-.06a.45.45,0,0,1,0-.13.74.74,0,0,1,0-.21.58.58,0,0,1,0-.15s0-.07,0-.07,0-.25.15-.58a2.67,2.67,0,0,1,.84-1.16,5.15,5.15,0,0,1,1.79-.94,1.36,1.36,0,0,1,1.1.14.54.54,0,0,1,.34.31.53.53,0,0,0,.23.27c.08.08.17.08.33-.13A7.07,7.07,0,0,1,24.17,42a2.3,2.3,0,0,1,1-.67,1.27,1.27,0,0,1,.67-.11,1.09,1.09,0,0,1,.49,0,2,2,0,0,1,1,.34,3.71,3.71,0,0,1,1,1,2.67,2.67,0,0,1,.38.93,2.54,2.54,0,0,1,.11.43,8.37,8.37,0,0,0,1.1-.6,15.94,15.94,0,0,0,2.39-1.63,34.56,34.56,0,0,0,3-2.83A20.93,20.93,0,0,0,36.76,37c.4-.51.54-.72.61-.81s.15-.23.37-.53l.78-1.15c.35-.55.68-1.09,1-1.65s.47-.87.6-1.15.21-.45.23-.51a11.28,11.28,0,0,1-1.15.13,24.35,24.35,0,0,1-2.73.13c-1.39,0-2.78-.08-4.16-.21a17.61,17.61,0,0,1-2.75-.5,6,6,0,0,1-1.15-.35,3.77,3.77,0,0,1-1.3-.58,6.94,6.94,0,0,1-2.43-1.92,14.85,14.85,0,0,1-2.23-4.06,8.75,8.75,0,0,1-.58-3.22A3.77,3.77,0,0,1,21.92,19.17Zm-2.7,7.53s0,0,.08,0A7.1,7.1,0,0,1,20,27c.48.17,1.05.38,1.57.61a5.53,5.53,0,0,1,.81.43c.16.11.18.14.18.16s.09,0,0,.31A4.67,4.67,0,0,1,22,30.13c-.63,1.14-1.45,2.43-2.12,3.53a14.36,14.36,0,0,0-.8,1.47c-.14.27-.12.26-.11.19s0,.09-.09-.18a15.7,15.7,0,0,1-.74-1.52c-.41-1-.83-2-1.23-3s-.67-1.35-.82-1.65-.08-.36,0-.34,0-.06.17-.19a3.89,3.89,0,0,1,.78-.58c.47-.29,1-.58,1.47-.81a5.38,5.38,0,0,1,.65-.32c.11-.06.1,0,.08,0Z"/><path class="cls-1" d="M21.31,47.71h0A.58.58,0,0,1,21,47.6a1.89,1.89,0,0,1-.63-.45,1.11,1.11,0,0,1-.23-.61.58.58,0,0,1,0-.36c0-.06,0-.17.11-.38a1.7,1.7,0,0,1,.62-.77,3.78,3.78,0,0,1,1.32-.62,1.06,1.06,0,0,1,.81.09c.18.07.23.14.25.2a.46.46,0,0,0,.18.19c.06,0,.11.06.24-.08A3.65,3.65,0,0,1,24.1,44a1.56,1.56,0,0,1,.72-.43,1,1,0,0,1,.51-.07.93.93,0,0,1,.53,0,1.61,1.61,0,0,1,.92.49,3.28,3.28,0,0,1,.68,1.31,2.4,2.4,0,0,1,.05,1,1.52,1.52,0,0,1-.08.4c0,.06,0,.18-.25.34a3.7,3.7,0,0,1-1.46.47c-1,.11-2,.14-2.92.16s-1.13,0-1.32,0Z"/><path class="cls-1" d="M15.35,47.39h0a.51.51,0,0,0,.29-.1,1.84,1.84,0,0,0,.56-.48,1.64,1.64,0,0,0,.21-.65.88.88,0,0,0,0-.37.82.82,0,0,0-.1-.42,2,2,0,0,0-.56-.81,3.23,3.23,0,0,0-1.21-.66.87.87,0,0,0-.74.1c-.17.08-.21.16-.22.22a.7.7,0,0,1-.16.19c-.07.05-.12.05-.23-.09a6.37,6.37,0,0,0-.39-.8,1.57,1.57,0,0,0-.65-.47A.8.8,0,0,0,11.7,43a.73.73,0,0,0-.48.05,1.35,1.35,0,0,0-.85.5,3.51,3.51,0,0,0-.62,1.39,2.5,2.5,0,0,0,0,1.08,1.35,1.35,0,0,0,.06.43c0,.06,0,.18.23.36a3,3,0,0,0,1.32.49,21.9,21.9,0,0,0,2.67.18,6.92,6.92,0,0,0,1.2-.05Z"/><path class="cls-2" d="M37.06,27.32a8.9,8.9,0,0,0,6.63-10.47,8.47,8.47,0,0,0-10.55-6,8.9,8.9,0,0,0-6.63,10.47A8.47,8.47,0,0,0,37.06,27.32Zm-2.12-8.23a3,3,0,0,0,2.2-3.49,2.81,2.81,0,0,0-3.51-2,3,3,0,0,0-2.21,3.49A2.83,2.83,0,0,0,34.94,19.09Z"/><path class="cls-2" d="M10.77,26.09A8.9,8.9,0,0,0,17.4,15.62a8.47,8.47,0,0,0-10.55-6A8.91,8.91,0,0,0,.22,20.08,8.47,8.47,0,0,0,10.77,26.09Zm.87-7.57A3,3,0,0,0,13.85,15a2.83,2.83,0,0,0-3.52-2,3,3,0,0,0-2.2,3.49A2.81,2.81,0,0,0,11.64,18.52Z"/><path class="cls-1" d="M58.52,11.46a2.49,2.49,0,0,1-.9.41,4.44,4.44,0,0,1-1.11.13,3.35,3.35,0,0,1-2.37-.78,3,3,0,0,1-.82-2.31V5.38H52V3.46h1.32V1.36h2.47v2.1h2.13V5.38H55.79v3.5a1.24,1.24,0,0,0,.27.85,1.08,1.08,0,0,0,.79.29,1.58,1.58,0,0,0,1-.32Z"/><path class="cls-1" d="M64.3,3.14a3.49,3.49,0,0,1,2.56,1,3.82,3.82,0,0,1,1,2.84v4.93H65.37V7.33a2.21,2.21,0,0,0-.45-1.52,1.59,1.59,0,0,0-1.28-.51,1.92,1.92,0,0,0-1.49.59,2.4,2.4,0,0,0-.56,1.73v4.25H59.12V0h2.47V4.16a3.26,3.26,0,0,1,1.19-.75A4.19,4.19,0,0,1,64.3,3.14Z"/><path class="cls-1" d="M77.75,7.6s0,.26,0,.67H71.24a2,2,0,0,0,.83,1.27,2.69,2.69,0,0,0,1.61.46,3.28,3.28,0,0,0,1.18-.19,3,3,0,0,0,1-.64l1.31,1.44A4.38,4.38,0,0,1,73.62,12a5.63,5.63,0,0,1-2.55-.56,4.24,4.24,0,0,1-1.72-1.58,4.42,4.42,0,0,1-.6-2.29,4.44,4.44,0,0,1,.59-2.27A4.15,4.15,0,0,1,71,3.71a4.81,4.81,0,0,1,2.33-.57,4.73,4.73,0,0,1,2.27.54,3.88,3.88,0,0,1,1.59,1.57A4.58,4.58,0,0,1,77.75,7.6ZM73.32,5a2.11,2.11,0,0,0-1.41.48,2,2,0,0,0-.7,1.32h4.2a2,2,0,0,0-.69-1.3A2.09,2.09,0,0,0,73.32,5Z"/><path class="cls-1" d="M61.71,16V27.87H59.35v-1A3.26,3.26,0,0,1,56.68,28a4.5,4.5,0,0,1-2.19-.54A3.94,3.94,0,0,1,53,25.9a5.15,5.15,0,0,1,0-4.67,3.91,3.91,0,0,1,1.52-1.55,4.5,4.5,0,0,1,2.19-.54,3.2,3.2,0,0,1,2.55,1V16Zm-4.6,10a2.05,2.05,0,0,0,1.55-.64,2.41,2.41,0,0,0,.62-1.74,2.35,2.35,0,0,0-.62-1.73,2.17,2.17,0,0,0-3.12,0,2.39,2.39,0,0,0-.62,1.73,2.45,2.45,0,0,0,.62,1.74A2.07,2.07,0,0,0,57.11,26Z"/><path class="cls-1" d="M66.65,19.14a4.41,4.41,0,0,1,3,1A3.65,3.65,0,0,1,70.76,23v4.91H68.44V26.8a2.74,2.74,0,0,1-2.6,1.2,3.92,3.92,0,0,1-1.71-.34,2.57,2.57,0,0,1-1.1-.92,2.5,2.5,0,0,1-.38-1.35,2.27,2.27,0,0,1,.89-1.89,4.64,4.64,0,0,1,2.78-.68h2a1.56,1.56,0,0,0-.49-1.25,2.12,2.12,0,0,0-1.47-.45,4.15,4.15,0,0,0-1.35.22,3.25,3.25,0,0,0-1.11.58L63,20.18a5.3,5.3,0,0,1,1.66-.77A7.62,7.62,0,0,1,66.65,19.14Zm-.19,7.18A2.24,2.24,0,0,0,67.59,26a1.61,1.61,0,0,0,.69-.88v-.88H66.59c-1,0-1.53.34-1.53,1a.92.92,0,0,0,.37.77A1.75,1.75,0,0,0,66.46,26.32Z"/><path class="cls-1" d="M77.25,19.14a4.19,4.19,0,0,1,2.16.56A3.89,3.89,0,0,1,81,21.25a4.66,4.66,0,0,1,.55,2.32A4.75,4.75,0,0,1,81,25.9a4.05,4.05,0,0,1-1.54,1.56,4.38,4.38,0,0,1-2.16.54,3.29,3.29,0,0,1-2.57-1v4H72.2V19.26h2.37v1A3.26,3.26,0,0,1,77.25,19.14ZM76.82,26a2,2,0,0,0,1.56-.64A2.45,2.45,0,0,0,79,23.57a2.39,2.39,0,0,0-.62-1.73,2,2,0,0,0-1.56-.66,2.06,2.06,0,0,0-1.57.66,2.43,2.43,0,0,0-.6,1.73,2.49,2.49,0,0,0,.6,1.74A2.08,2.08,0,0,0,76.82,26Z"/><path class="cls-1" d="M87.41,19.14a4.19,4.19,0,0,1,2.16.56,3.89,3.89,0,0,1,1.54,1.55,4.66,4.66,0,0,1,.55,2.32,4.75,4.75,0,0,1-.55,2.33,4.05,4.05,0,0,1-1.54,1.56,4.38,4.38,0,0,1-2.16.54,3.29,3.29,0,0,1-2.57-1v4H82.37V19.26h2.36v1A3.26,3.26,0,0,1,87.41,19.14ZM87,26a2,2,0,0,0,1.56-.64,2.45,2.45,0,0,0,.62-1.74,2.39,2.39,0,0,0-.62-1.73A2,2,0,0,0,87,21.18a2.06,2.06,0,0,0-1.57.66,2.43,2.43,0,0,0-.6,1.73,2.49,2.49,0,0,0,.6,1.74A2.08,2.08,0,0,0,87,26Z"/><path class="cls-1" d="M53,32h2.47V43.87H53Z"/><path class="cls-1" d="M57,35.26h2.48v8.61H57Zm1.24-1.2a1.56,1.56,0,0,1-1.11-.4,1.3,1.3,0,0,1-.43-1,1.33,1.33,0,0,1,.43-1,1.56,1.56,0,0,1,1.11-.4,1.61,1.61,0,0,1,1.11.38,1.23,1.23,0,0,1,.43,1,1.36,1.36,0,0,1-.43,1A1.53,1.53,0,0,1,58.23,34.06Z"/><path class="cls-1" d="M63.84,44a8.45,8.45,0,0,1-2.07-.26,5.37,5.37,0,0,1-1.62-.67L61,41.28a5.17,5.17,0,0,0,1.38.61,5.91,5.91,0,0,0,1.59.22c1,0,1.57-.26,1.57-.78a.55.55,0,0,0-.43-.53,5.71,5.71,0,0,0-1.32-.27A12.82,12.82,0,0,1,62,40.16a2.61,2.61,0,0,1-1.19-.74,2.11,2.11,0,0,1-.5-1.5,2.42,2.42,0,0,1,.46-1.44,3,3,0,0,1,1.37-1,5.71,5.71,0,0,1,2.12-.35,8.41,8.41,0,0,1,1.8.2,4.79,4.79,0,0,1,1.49.55l-.83,1.77A5,5,0,0,0,64.3,37a2.51,2.51,0,0,0-1.19.23.66.66,0,0,0-.39.57.56.56,0,0,0,.43.56,7.38,7.38,0,0,0,1.36.31,13.33,13.33,0,0,1,1.71.38,2.53,2.53,0,0,1,1.16.72,2.06,2.06,0,0,1,.49,1.47,2.28,2.28,0,0,1-.47,1.43,3.08,3.08,0,0,1-1.4,1A6,6,0,0,1,63.84,44Z"/><path class="cls-1" d="M74.11,43.46a2.49,2.49,0,0,1-.9.41A4.44,4.44,0,0,1,72.1,44a3.35,3.35,0,0,1-2.37-.78,3,3,0,0,1-.82-2.31V37.38H67.59V35.46h1.32v-2.1h2.47v2.1h2.13v1.92H71.38v3.5a1.24,1.24,0,0,0,.27.85,1.09,1.09,0,0,0,.8.29,1.62,1.62,0,0,0,1-.32Z"/><path class="cls-1" d="M75.8,44a1.5,1.5,0,0,1-1.1-.45,1.55,1.55,0,0,1-.44-1.12,1.45,1.45,0,0,1,.44-1.1,1.52,1.52,0,0,1,1.1-.43,1.49,1.49,0,0,1,1.09.43,1.42,1.42,0,0,1,.45,1.1,1.52,1.52,0,0,1-.45,1.12A1.46,1.46,0,0,1,75.8,44Z"/></g></g></svg>