<svg id="Layer_1" data-name="Layer 1" xmlns="http://www.w3.org/2000/svg" xmlns:xlink="http://www.w3.org/1999/xlink" viewBox="0 0 531.36 596.09"><defs><style>.cls-1{fill:url(#linear-gradient);}.cls-2{fill:url(#linear-gradient-2);}.cls-3{fill:url(#linear-gradient-3);}</style><linearGradient id="linear-gradient" y1="229.11" x2="529.88" y2="229.11" gradientUnits="userSpaceOnUse"><stop offset="0" stop-color="#2082e9"/><stop offset="0.11" stop-color="#336dec"/><stop offset="0.4" stop-color="#5f3ef4"/><stop offset="0.65" stop-color="#7f1cfa"/><stop offset="0.86" stop-color="#9208fe"/><stop offset="1" stop-color="#90f"/></linearGradient><linearGradient id="linear-gradient-2" x1="123.77" y1="334.83" x2="301.58" y2="334.83" xlink:href="#linear-gradient"/><linearGradient id="linear-gradient-3" x1="244.96" y1="386.58" x2="361.73" y2="386.58" xlink:href="#linear-gradient"/></defs><polygon class="cls-1" points="449.89 319.35 449.89 319.35 265.97 0 0 458.23 68.54 458.23 265.71 118.54 415.49 378.61 369.28 458.23 461.35 458.23 529.88 458.23 449.89 319.35"/><polygon class="cls-2" points="123.77 458.23 192.77 458.23 301.58 270.69 266.78 211.42 123.77 458.23"/><polygon class="cls-3" points="328.12 314.92 244.96 458.23 316.62 458.23 361.73 372.42 328.12 314.92"/><path d="M1.36,563a17.27,17.27,0,0,1,17.26-17.27,17.07,17.07,0,0,1,15,8.77l-7.69,3.75c-1.81-2.74-4.55-4.48-7.3-4.48-5,0-8.7,3.88-8.7,9.23s3.68,9.24,8.7,9.24c2.75,0,5.49-1.74,7.3-4.49l7.69,3.75a17.07,17.07,0,0,1-15,8.77A17.26,17.26,0,0,1,1.36,563Z"/><path d="M64.74,546.7l-2.35,9a8.08,8.08,0,0,0-4.28-2c-4.08,0-7,3.21-7,7.7v18.4H42.52V546.3h8.56v3.35a13,13,0,0,1,9-3.89A11.7,11.7,0,0,1,64.74,546.7Z"/><path d="M102.35,546.3,85,592.55H76.38l6.09-16.2L70.62,546.3h8.57l7.5,18.94,7.09-18.94Z"/><path d="M146,563a17.27,17.27,0,0,1-17.27,17.27,16.58,16.58,0,0,1-9.37-2.81v18.6h-8.57V546.3h8.57v2.21A17.29,17.29,0,0,1,146,563Zm-8.84,0c0-5.42-3.68-9.23-8.7-9.23s-8.7,3.81-8.7,9.23,3.61,9.17,8.7,9.17S137.15,568.39,137.15,563Z"/><path d="M176,576.28a13.61,13.61,0,0,1-9.44,4c-5.76,0-10.17-2.81-10.17-9.77V554h-4.09v-7.7h4.09V535.12l8.56-.2V546.3h7.9V554H165v13.92c0,2.74,1.61,4.41,3.48,4.41,2.28,0,3.88-1.8,3.88-2.87Z"/><path d="M184.33,535.59a4.69,4.69,0,1,1,4.69,4.69A4.7,4.7,0,0,1,184.33,535.59Zm.41,10.71h8.56v33.46h-8.56Z"/><path d="M202.47,563a17.27,17.27,0,1,1,17.27,17.27A17.32,17.32,0,0,1,202.47,563Zm26.3,0c0-5.35-3.68-9.23-8.7-9.23s-8.7,3.88-8.7,9.23,3.62,9.24,8.7,9.24S228.77,568.39,228.77,563Z"/><path d="M276.43,561.09v18.67h-8.77V561.29c0-4.48-2.88-7.63-7-7.63s-7,3.21-7,7.7v18.4h-8.56V546.3h8.56v3.35a12.81,12.81,0,0,1,9-3.89C270.87,545.76,276.43,552.39,276.43,561.09Z"/><path d="M303.93,563a17.27,17.27,0,0,1,17.27-17.27,17.07,17.07,0,0,1,15,8.77l-7.69,3.75c-1.81-2.74-4.55-4.48-7.3-4.48-5,0-8.7,3.88-8.7,9.23s3.68,9.24,8.7,9.24c2.75,0,5.49-1.74,7.3-4.49l7.69,3.75a17.07,17.07,0,0,1-15,8.77A17.27,17.27,0,0,1,303.93,563Z"/><path d="M377.89,546.3v33.46h-8.57v-2.21a17,17,0,0,1-9.3,2.75,17.27,17.27,0,0,1,0-34.54,17,17,0,0,1,9.3,2.75V546.3ZM369,563c0-5.35-3.68-9.23-8.7-9.23s-8.7,3.88-8.7,9.23,3.68,9.24,8.7,9.24S369,568.39,369,563Z"/><path d="M423.6,563a17.27,17.27,0,0,1-17.27,17.27,16.61,16.61,0,0,1-9.37-2.81v18.6H388.4V546.3H397v2.21A17.29,17.29,0,0,1,423.6,563Zm-8.83,0c0-5.42-3.68-9.23-8.7-9.23s-8.7,3.81-8.7,9.23,3.61,9.17,8.7,9.17S414.77,568.39,414.77,563Z"/><path d="M432.5,535.59a4.69,4.69,0,1,1,4.69,4.69A4.69,4.69,0,0,1,432.5,535.59Zm.4,10.71h8.57v33.46H432.9Z"/><path d="M472.86,576.28a13.58,13.58,0,0,1-9.44,4c-5.75,0-10.17-2.81-10.17-9.77V554h-4.08v-7.7h4.08V535.12l8.57-.2V546.3h7.89V554h-7.89v13.92c0,2.74,1.6,4.41,3.48,4.41,2.27,0,3.88-1.8,3.88-2.87Z"/><path d="M512.41,546.3v33.46h-8.56v-2.21a17,17,0,0,1-9.31,2.75,17.27,17.27,0,0,1,0-34.54,17.07,17.07,0,0,1,9.31,2.75V546.3ZM503.51,563c0-5.35-3.68-9.23-8.7-9.23s-8.7,3.88-8.7,9.23,3.68,9.24,8.7,9.24S503.51,568.39,503.51,563Z"/><path d="M522.79,529.9h8.57v49.86h-8.57Z"/></svg>