<svg id="Layer_1" data-name="Layer 1" xmlns="http://www.w3.org/2000/svg" xmlns:xlink="http://www.w3.org/1999/xlink" viewBox="0 0 529.88 568.89"><defs><style>.cls-1{fill:url(#linear-gradient);}.cls-2{fill:url(#linear-gradient-2);}.cls-3{fill:url(#linear-gradient-3);}.cls-4{fill:#fff;}</style><linearGradient id="linear-gradient" y1="229.11" x2="529.88" y2="229.11" gradientUnits="userSpaceOnUse"><stop offset="0" stop-color="#2082e9"/><stop offset="0.11" stop-color="#336dec"/><stop offset="0.4" stop-color="#5f3ef4"/><stop offset="0.65" stop-color="#7f1cfa"/><stop offset="0.86" stop-color="#9208fe"/><stop offset="1" stop-color="#90f"/></linearGradient><linearGradient id="linear-gradient-2" x1="123.77" y1="334.83" x2="301.58" y2="334.83" xlink:href="#linear-gradient"/><linearGradient id="linear-gradient-3" x1="244.96" y1="386.58" x2="361.73" y2="386.58" xlink:href="#linear-gradient"/></defs><polygon class="cls-1" points="449.89 319.35 449.89 319.35 265.97 0 0 458.23 68.54 458.23 265.71 118.54 415.49 378.61 369.28 458.23 461.35 458.23 529.88 458.23 449.89 319.35"/><polygon class="cls-2" points="123.77 458.23 192.77 458.23 301.58 270.69 266.78 211.42 123.77 458.23"/><polygon class="cls-3" points="328.12 314.92 244.96 458.23 316.62 458.23 361.73 372.42 328.12 314.92"/><path class="cls-4" d="M1.05,549.58c0-10.69,7-19.36,18.69-19.36,7.21,0,12.56,3.26,15.65,8.27l-6.53,4.17A10.75,10.75,0,0,0,19.74,537c-6.58,0-10.86,5.24-10.86,12.61s4.28,12.56,10.86,12.56a10.67,10.67,0,0,0,9.12-5.63l6.53,4.11c-3.09,5-8.44,8.27-15.65,8.27C8,568.89,1.05,560.22,1.05,549.58Z"/><path class="cls-4" d="M43.45,530.67H57.12c9.18,0,14.64,5.63,14.64,12.55a11.85,11.85,0,0,1-7.32,11l7.32,14.19H64.5l-6.59-12.67-1.74.06H50.65v12.61h-7.2ZM57.12,549c4.51,0,7.38-2.42,7.38-5.8s-2.87-5.8-7.38-5.8H50.65V549Z"/><path class="cls-4" d="M94.79,549.86v18.58H87.58V549.86L74.52,530.67h8.16l8.45,12.44,8.5-12.44h8.21Z"/><path class="cls-4" d="M114.94,530.67h13.68c9.18,0,14.64,5.63,14.64,12.55s-5.46,12.61-14.64,12.61h-6.47v12.61h-7.21ZM128.62,549c4.5,0,7.37-2.42,7.37-5.8s-2.87-5.8-7.37-5.8h-6.47V549Z"/><path class="cls-4" d="M179.45,537.87h-11v30.57h-7.2V537.87h-11v-7.2h29.21Z"/><path class="cls-4" d="M187,530.67h7.21v37.77H187Z"/><path class="cls-4" d="M202,549.58c0-10.69,7-19.36,18.63-19.36s18.69,8.67,18.69,19.36-7,19.31-18.69,19.31S202,560.22,202,549.58Zm29.55,0c0-7.37-4.27-12.61-10.92-12.61s-10.8,5.24-10.8,12.61,4.27,12.56,10.8,12.56S231.58,556.9,231.58,549.58Z"/><path class="cls-4" d="M277.47,530.67v37.77H270.2l-15.93-26v26h-7.2V530.67h7.26l15.93,26v-26Z"/><path class="cls-4" d="M300.89,549.58c0-10.69,7-19.36,18.69-19.36,7.2,0,12.55,3.26,15.64,8.27l-6.53,4.17a10.75,10.75,0,0,0-9.11-5.69c-6.59,0-10.87,5.24-10.87,12.61s4.28,12.56,10.87,12.56a10.66,10.66,0,0,0,9.11-5.63l6.53,4.11c-3.09,5-8.44,8.27-15.64,8.27C307.87,568.89,300.89,560.22,300.89,549.58Z"/><path class="cls-4" d="M366,559.32H350.82l-3.49,9.12h-7.6L355,530.67h6.76l15.31,37.77h-7.66Zm-2.76-7.2-4.78-12.61-4.84,12.61Z"/><path class="cls-4" d="M383.75,530.67h13.68c9.18,0,14.64,5.63,14.64,12.55s-5.46,12.61-14.64,12.61H391v12.61h-7.21ZM397.43,549c4.51,0,7.38-2.42,7.38-5.8s-2.87-5.8-7.38-5.8H391V549Z"/><path class="cls-4" d="M419.39,530.67h7.21v37.77h-7.21Z"/><path class="cls-4" d="M463.24,537.87h-11v30.57H445V537.87H434v-7.2h29.21Z"/><path class="cls-4" d="M488.46,559.32H473.32l-3.49,9.12h-7.6l15.31-37.77h6.76l15.31,37.77H492Zm-2.75-7.2-4.79-12.61-4.84,12.61Z"/><path class="cls-4" d="M528.83,561.23v7.21H506.26V530.67h7.2v30.56Z"/></svg>