<svg id="Layer_1" data-name="Layer 1" xmlns="http://www.w3.org/2000/svg" viewBox="0 0 315.83 576.83"><defs><style>.cls-1{fill:#333;}.cls-2,.cls-3{fill:#1a1a1a;}.cls-3,.cls-6{opacity:0.18;}.cls-4{fill:#232323;}.cls-5{fill:#0c0c0c;}</style></defs><path d="M7.14,546.09V554H18.08v7.14H7.14v8.09H27v7.14H0V538.94H27v7.15Z"/><path d="M63.67,546.09H52.73v30.29H45.59V546.09H34.71v-7.15h29Z"/><path d="M99.27,538.94v37.44H92.13V561.1H78.29v15.28H71.15V538.94h7.14v15H92.13v-15Z"/><path d="M115,546.09V554h10.94v7.14H115v8.09h19.87v7.14h-27V538.94h27v7.15Z"/><path d="M143.29,538.94h13.56c9.1,0,14.51,5.58,14.51,12.45a11.74,11.74,0,0,1-7.25,10.93l7.25,14.06h-7.2l-6.52-12.55-1.73.06h-5.47v12.49h-7.15Zm13.56,18.19c4.47,0,7.31-2.4,7.31-5.74s-2.84-5.75-7.31-5.75h-6.41v11.49Z"/><path d="M179.29,538.94h13.56c9.09,0,14.5,5.58,14.5,12.45a11.74,11.74,0,0,1-7.25,10.93l7.25,14.06h-7.19l-6.53-12.55-1.73.06h-5.47v12.49h-7.14Zm13.56,18.19c4.46,0,7.31-2.4,7.31-5.74s-2.85-5.75-7.31-5.75h-6.42v11.49Z"/><path d="M215.05,561.88v-23h7.15v23c0,5,3.4,8.25,8.09,8.25s8.09-3.23,8.09-8.25v-23h7.14v23c0,9.37-6.81,15-15.23,15S215.05,571.25,215.05,561.88Z"/><path d="M253,570.25l4.85-4.8c.34.39,4.19,4.68,8.6,4.68,3.34,0,5.52-1.5,5.52-3.79,0-5.63-18.25-6.64-18.25-17.24,0-6.2,5.7-10.55,12.56-10.6s12.89,6,13.45,6.58l-4.86,4.8c-.44-.45-4.29-4.69-8.65-4.69-3.34,0-5.52,1.51-5.52,3.8,0,5.69,18.3,6.64,18.3,17.3,0,6.13-5.75,10.54-12.61,10.54S253.5,570.86,253,570.25Z"/><path d="M315.83,538.94v37.44h-7.14V561.1H294.85v15.28h-7.14V538.94h7.14v15h13.84v-15Z"/><polygon class="cls-1" points="157.91 0 27.17 226.45 288.66 226.45 157.91 0"/><polygon class="cls-2" points="288.66 226.45 157.91 0 157.91 226.45 288.66 226.45"/><polygon class="cls-3" points="288.66 226.45 157.91 0 157.91 226.45 288.66 226.45"/><polygon class="cls-4" points="157.91 169.84 27.17 226.45 157.91 283.07 288.66 226.45 157.91 169.84"/><polygon class="cls-5" points="157.91 283.07 288.66 226.45 157.91 169.84 157.91 283.07"/><polygon class="cls-3" points="157.91 283.07 288.66 226.45 157.91 169.84 157.91 283.07"/><polygon class="cls-1" points="157.91 302.83 27.17 246.22 157.91 467 288.66 246.22 157.91 302.83"/><polygon class="cls-2" points="157.91 467 288.66 246.22 157.91 302.83 157.91 467"/><polygon class="cls-6" points="157.91 467 288.66 246.22 157.91 302.83 157.91 467"/></svg>