<svg id="Layer_1" data-name="Layer 1" xmlns="http://www.w3.org/2000/svg" viewBox="0 0 529.21 576.97"><path d="M133.73,414.45c-6.08-5-11.89-10.22-17.52-15.84-91.18-91.18-91.2-239,0-330.22C187.63-3.06,293.86-18.52,380.35,22L345.1,57.23A187.48,187.48,0,0,0,148.76,101C81.21,168.5,76.08,274.84,133.13,348.28L428.87,52.53c6.08,5,11.89,10.23,17.51,15.85,91.18,91.18,91.21,239,0,330.22C375,470,268.79,485.45,182.38,445.07l35.26-35.26A187.57,187.57,0,0,0,413.84,366c67.55-67.54,72.68-173.9,15.63-247.33C429.47,118.71,133.73,413.83,133.73,414.45Z"/><rect x="118.57" y="148.27" width="167.73" height="48.38" transform="translate(-62.65 193.65) rotate(-45)"/><rect x="258.88" y="288.58" width="167.73" height="48.38" transform="translate(-120.77 333.97) rotate(-45)"/><path d="M0,557.83c0-10.6,6.92-19.19,18.53-19.19,7.14,0,12.44,3.23,15.51,8.2L27.57,551a10.66,10.66,0,0,0-9-5.64c-6.53,0-10.77,5.19-10.77,12.5S12,570.27,18.53,570.27a10.58,10.58,0,0,0,9-5.58L34,568.77c-3.07,5-8.37,8.2-15.51,8.2C6.92,577,0,568.38,0,557.83Z"/><path d="M42,539.08H55.58c9.09,0,14.5,5.58,14.5,12.45a11.74,11.74,0,0,1-7.25,10.93l7.25,14.06H62.89L56.36,564l-1.73,0H49.16v12.5H42Zm13.56,18.19c4.46,0,7.31-2.4,7.31-5.74s-2.85-5.75-7.31-5.75H49.16v11.49Z"/><path d="M92.91,558.11v18.41H85.76V558.11l-12.94-19h8.09l8.37,12.33,8.43-12.33h8.14Z"/><path d="M112.88,539.08h13.56c9.1,0,14.51,5.58,14.51,12.45S135.54,564,126.44,564H120v12.5h-7.15Zm13.56,18.19c4.47,0,7.31-2.4,7.31-5.74s-2.84-5.75-7.31-5.75H120v11.49Z"/><path d="M176.83,546.22H165.89v30.3h-7.14v-30.3H147.87v-7.14h29Z"/><path d="M184.31,539.08h7.14v37.44h-7.14Z"/><path d="M199.21,557.83c0-10.6,6.92-19.19,18.47-19.19s18.52,8.59,18.52,19.19S229.28,577,217.68,577,199.21,568.38,199.21,557.83Zm29.29,0c0-7.31-4.24-12.5-10.82-12.5S207,550.52,207,557.83s4.24,12.44,10.72,12.44S228.5,565.09,228.5,557.83Z"/><path d="M274,539.08v37.44h-7.2L251,550.74v25.78h-7.14V539.08H251l15.8,25.78V539.08Z"/><path d="M305,546.22v9h10.94v7.14H305v14.17h-7.14V539.08h22.32v7.14Z"/><path d="M327,539.08h7.15v37.44H327Z"/><path d="M373,539.08v37.44h-7.2L350,550.74v25.78h-7.15V539.08H350l15.79,25.78V539.08Z"/><path d="M404.72,567.48h-15l-3.46,9h-7.54l15.18-37.44h6.7l15.18,37.44h-7.59ZM402,560.34l-4.74-12.5-4.8,12.5Z"/><path d="M452.48,539.08v37.44h-7.2l-15.79-25.78v25.78h-7.14V539.08h7.2l15.79,25.78V539.08Z"/><path d="M460.18,557.83c0-10.6,6.92-19.19,18.53-19.19,7.14,0,12.44,3.23,15.51,8.2L487.75,551a10.66,10.66,0,0,0-9-5.64c-6.53,0-10.77,5.19-10.77,12.5s4.24,12.44,10.77,12.44a10.57,10.57,0,0,0,9-5.58l6.47,4.08c-3.07,5-8.37,8.2-15.51,8.2C467.1,577,460.18,568.38,460.18,557.83Z"/><path d="M509.34,546.22v7.93h10.94v7.14H509.34v8.09h19.87v7.14h-27V539.08h27v7.14Z"/></svg>