<svg id="Layer_1" data-name="Layer 1" xmlns="http://www.w3.org/2000/svg" viewBox="0 0 601.62 561.39"><defs><style>.cls-1{fill:#fff;}</style></defs><path class="cls-1" d="M495.75,350.38c26-11.44,51.11-26.28,71.32-46.41,16.19-16.13,29.14-36.17,33.21-59,3.9-21.81-.92-44-12-63-12.91-22.1-32.86-39.44-54.23-53.09-6.21-4-12.61-7.65-19.13-11.08q-5.1-2.68-10.31-5.16-2.49-1.2-5-2.34L497,109.18a4.29,4.29,0,0,1-2.22-2.06,229.31,229.31,0,0,0-378-14.52c-2,2.66-3.92,5.38-5.79,8.13q-1.41,2.05-2.77,4.16c-.86,1.34-1.65,3.22-3,4-3.33,1.94-7.18,3.26-10.66,5s-6.83,3.41-10.19,5.22a233.65,233.65,0,0,0-35.68,23.34C30,157.36,13.57,176.2,5.35,198.92a90.15,90.15,0,0,0,.94,63.65C15.16,285.14,32.05,303.7,51,318.42a240.05,240.05,0,0,0,36.29,23.05q5.12,2.68,10.33,5.15,2.5,1.19,5,2.33c.83.38,1.75.69,2.55,1.15a5.66,5.66,0,0,1,1.9,2.27q5.36,8.43,11.44,16.37a231.76,231.76,0,0,0,58.08,53.65,228.79,228.79,0,0,0,234.2,8.45,231.37,231.37,0,0,0,84.95-80.46Zm80.9-120.88c0,27.31-18.36,50.21-38.66,66.56A199.42,199.42,0,0,1,514.9,312a228.5,228.5,0,0,0,0-164.9c24.29,14.43,49.24,34.64,58.45,62.42A63.71,63.71,0,0,1,576.65,229.5Zm-408.43,0a132.09,132.09,0,1,1,1.6,20.6A132.79,132.79,0,0,1,168.22,229.5Zm35.05,123.63a419,419,0,0,1-73.1-20.37l-3.78-1.49c-1.36-.54-3.21-1-4.06-2.1-1.7-2.3-2.88-5.29-4.17-7.83q-3.93-7.8-7.2-15.91A202.23,202.23,0,0,1,100.54,271,204.79,204.79,0,0,1,98.88,197a202.06,202.06,0,0,1,8.93-35.1q3-8.43,6.66-16.58,1.84-4.05,3.85-8a59.47,59.47,0,0,1,4-7.52c.79-1.11,2.47-1.47,3.75-2s2.73-1.08,4.1-1.61c2.77-1.07,5.56-2.1,8.37-3.11q8.64-3.07,17.44-5.75c12.32-3.75,24.83-6.91,37.44-9.56q4.9-1,9.83-2a157.32,157.32,0,0,0,0,247.27ZM458.36,229.5a157.87,157.87,0,0,0-60.05-123.64,417.94,417.94,0,0,1,73.08,20.38c1.27.49,2.53,1,3.78,1.48s3.21,1,4.06,2.11c1.7,2.29,2.89,5.28,4.17,7.82q3.94,7.8,7.21,15.91a203.67,203.67,0,0,1,3.15,143.5q-3,8.43-6.66,16.57-1.85,4-3.85,8a60.16,60.16,0,0,1-4,7.52c-.79,1.1-2.47,1.47-3.75,2l-4.1,1.61q-4.15,1.61-8.36,3.1-8.65,3.09-17.45,5.75c-12.32,3.75-24.83,6.92-37.43,9.56q-4.92,1-9.84,2A157.09,157.09,0,0,0,458.36,229.5ZM300.79,25a204.48,204.48,0,0,1,152,67.89C415.2,81.58,376.11,75.37,337,73a581.18,581.18,0,0,0-125.71,5.78A473.88,473.88,0,0,0,148.77,92.9,206.55,206.55,0,0,1,199.7,51.8,203.25,203.25,0,0,1,300.79,25ZM24.92,229.5c0-27.31,18.36-50.21,38.66-66.56a198.18,198.18,0,0,1,23.09-15.89,228.54,228.54,0,0,0,0,164.9c-24.29-14.43-49.24-34.65-58.44-62.42A63.81,63.81,0,0,1,24.92,229.5ZM148.77,366.09c37.6,11.32,76.68,17.53,115.84,19.9a581.15,581.15,0,0,0,125.71-5.78A475.08,475.08,0,0,0,452.8,366.1a206.41,206.41,0,0,1-50.93,41.1A203.94,203.94,0,0,1,206.75,411a205.93,205.93,0,0,1-52.32-38.9C152.5,370.16,150.61,368.15,148.77,366.09Z"/><path d="M234,554.8l4.85-4.8c.34.39,4.19,4.69,8.6,4.69,3.34,0,5.52-1.51,5.52-3.79,0-5.64-18.25-6.64-18.25-17.25,0-6.19,5.7-10.54,12.56-10.6s12.89,6,13.45,6.59l-4.86,4.8c-.44-.45-4.29-4.69-8.65-4.69-3.35,0-5.52,1.5-5.52,3.79,0,5.69,18.3,6.64,18.3,17.3,0,6.14-5.75,10.55-12.61,10.55S234.49,555.42,234,554.8Z"/><path d="M275.84,530.64v7.93h10.94v7.14H275.84v8.09H295.7v7.14h-27V523.5h27v7.14Z"/><path d="M311.27,530.64v7.93h10.94v7.14H311.27v8.09h19.87v7.14h-27V523.5h27v7.14Z"/><path d="M339.56,523.5h13.56c9.1,0,14.51,5.58,14.51,12.44a11.75,11.75,0,0,1-7.25,10.94l7.25,14.06h-7.2l-6.53-12.55-1.73.05h-5.46v12.5h-7.15Zm13.56,18.19c4.47,0,7.31-2.4,7.31-5.75s-2.84-5.74-7.31-5.74h-6.41v11.49Z"/></svg>