<svg width="457" height="340" viewBox="0 0 457 340" fill="none" xmlns="http://www.w3.org/2000/svg">
<path fill-rule="evenodd" clip-rule="evenodd" d="M330.063 46.6406C328.571 36.6126 322.144 29.7417 313.442 25.0439C293.8 10.3081 248.678 0 196.154 0C125.866 0 68.8324 18.4603 68.3805 41.2885L66.6934 41.6934L66.1562 46.9873C63.3282 74.8549 64.9608 117.461 79.3238 154.926C93.7798 192.635 121.614 226.052 171.243 232.422C266.676 244.672 308.681 189.433 317.616 157.452C325.604 139.409 337.095 93.8962 330.063 46.6406ZM316.131 55.8936C298.182 71.786 251.239 83.1236 196.154 83.1236C144.86 83.1236 100.626 73.2925 80.2881 59.1072C79.0111 84.8541 81.7238 119.282 93.3298 149.557C106.524 183.975 130.728 212.099 173.153 217.544C261.239 228.851 296.53 178.096 303.293 152.963L303.452 152.374L303.704 151.817C310.28 137.301 320.688 97.8991 316.131 55.8936ZM298.345 54.0631C287.468 45.5904 270.866 33.1105 193.582 33.1105C116.297 33.1105 101.527 54.0631 101.527 54.0631L86.0705 44.4454C84.1241 35.9728 97.6117 17.7909 167.133 12.8448C254.035 6.66201 306.588 26.5842 311.054 36.8888C314.626 45.1324 304.07 51.7732 298.345 54.0631Z" fill="url(#paint0_linear)"/>
<path d="M195.831 153.195C213.418 171.606 211.861 183.536 208.884 187.2C189.992 191.665 164.574 176.208 161.139 148.729C158.391 126.746 171.901 113.923 179 110.259C183.397 106.962 184.839 110.946 184.839 110.946C184.839 110.946 178.245 134.784 195.831 153.195Z" fill="url(#paint1_linear)"/>
<path d="M206.052 139.818C188.529 121.347 190.127 109.422 193.117 105.769C212.023 101.368 237.389 116.913 240.729 144.403C243.401 166.396 229.846 179.173 222.735 182.812C218.327 186.094 216.898 182.105 216.898 182.105C216.898 182.105 223.575 158.29 206.052 139.818Z" fill="url(#paint2_linear)"/>
<path fill-rule="evenodd" clip-rule="evenodd" d="M391.598 96.1172C383.904 52.4258 345.571 51.3496 327.366 56.2728C327.48 91.3084 309.298 170.232 282.369 190.291C315.687 188.23 401.215 150.731 391.598 96.1172ZM332.519 78.5642V68.2596C349.74 62.0328 379.08 62.6036 384.042 98.9236C384.773 104.278 384.228 109.072 383.477 115.687C383.327 117.005 383.169 118.395 383.011 119.877C381.912 72.6129 349.693 72.8395 332.519 78.5642ZM321.527 155.256C328.831 147.65 335.33 90.0857 332.885 88.0841C343.085 82.908 365.461 79.3883 373.358 106.718C381.255 134.048 354.054 149.162 339.466 153.302C339.192 153.371 338.911 153.443 338.624 153.515C333.168 154.896 325.528 156.829 321.527 155.256Z" fill="url(#paint3_linear)"/>
<path d="M24.166 329.688C34.744 329.688 43.602 322.894 43.602 313.434C43.602 297.008 15.394 295.546 15.394 286.774C15.394 283.248 18.748 280.926 23.908 280.926C30.616 280.926 36.55 287.462 37.238 288.15L44.72 280.754C43.86 279.808 34.744 270.606 23.994 270.606C13.416 270.692 4.644 277.4 4.644 286.946C4.644 303.286 32.766 304.834 32.766 313.52C32.766 317.046 29.412 319.368 24.252 319.368C17.458 319.368 11.524 312.746 11.008 312.144L3.526 319.54C4.3 320.486 13.502 329.688 24.166 329.688ZM116.14 271.294L104.358 311.112L91.8876 271.294H81.8256L69.4416 311.112L57.5736 271.294H46.2216L63.7656 329H75.0316L86.8996 288.494L98.6816 329H110.034L127.492 271.294H116.14ZM162.65 329H174.346L150.954 271.294H140.634L117.242 329H128.852L134.184 315.068H157.318L162.65 329ZM138.398 304.06L145.794 284.796L153.104 304.06H138.398ZM178.903 329H189.911V309.736H199.801C213.819 309.736 222.161 301.136 222.161 290.472C222.161 279.894 213.819 271.294 199.801 271.294H178.903V329ZM189.911 299.33V281.614H199.801C206.681 281.614 211.067 285.312 211.067 290.472C211.067 295.632 206.681 299.33 199.801 299.33H189.911ZM273.632 329.688C284.64 329.688 292.81 324.7 297.54 317.046L287.564 310.768C284.64 315.928 279.394 319.368 273.632 319.368C263.57 319.368 257.034 311.37 257.034 300.19C257.034 288.924 263.57 280.926 273.632 280.926C279.308 280.926 284.554 284.366 287.564 289.612L297.54 283.248C292.81 275.594 284.64 270.606 273.632 270.606C255.744 270.606 245.08 283.85 245.08 300.19C245.08 316.444 255.744 329.688 273.632 329.688ZM344.271 329H355.967L332.575 271.294H322.255L298.863 329H310.473L315.805 315.068H338.939L344.271 329ZM320.019 304.06L327.415 284.796L334.725 304.06H320.019ZM394.924 282.302V271.294H360.524V329H371.532V307.156H388.388V296.148H371.532V282.302H394.924ZM441.591 282.302V271.294H399.967V329H441.591V317.992H410.975V305.522H427.831V294.514H410.975V282.302H441.591Z" fill="white"/>
<defs>
<linearGradient id="paint0_linear" x1="198.625" y1="0" x2="198.625" y2="234.165" gradientUnits="userSpaceOnUse">
<stop stop-color="#9900FF"/>
<stop offset="1" stop-color="#2082E9"/>
</linearGradient>
<linearGradient id="paint1_linear" x1="185.753" y1="108.953" x2="185.753" y2="187.962" gradientUnits="userSpaceOnUse">
<stop stop-color="#9900FF"/>
<stop offset="1" stop-color="#2082E9"/>
</linearGradient>
<linearGradient id="paint2_linear" x1="215.977" y1="184.095" x2="216.249" y2="105.086" gradientUnits="userSpaceOnUse">
<stop stop-color="#9900FF"/>
<stop offset="1" stop-color="#2082E9"/>
</linearGradient>
<linearGradient id="paint3_linear" x1="337.358" y1="54.2708" x2="337.358" y2="190.291" gradientUnits="userSpaceOnUse">
<stop stop-color="#9900FF"/>
<stop offset="1" stop-color="#2082E9"/>
</linearGradient>
</defs>
</svg>
