<svg width="452" height="360" viewBox="0 0 452 360" fill="none" xmlns="http://www.w3.org/2000/svg">
<path d="M24.166 349.688C34.744 349.688 43.602 342.894 43.602 333.434C43.602 317.008 15.394 315.546 15.394 306.774C15.394 303.248 18.748 300.926 23.908 300.926C30.616 300.926 36.55 307.462 37.238 308.15L44.72 300.754C43.86 299.808 34.744 290.606 23.994 290.606C13.416 290.692 4.644 297.4 4.644 306.946C4.644 323.286 32.766 324.834 32.766 333.52C32.766 337.046 29.412 339.368 24.252 339.368C17.458 339.368 11.524 332.746 11.008 332.144L3.526 339.54C4.3 340.486 13.502 349.688 24.166 349.688ZM116.14 291.294L104.358 331.112L91.8876 291.294H81.8256L69.4416 331.112L57.5736 291.294H46.2216L63.7656 349H75.0316L86.8996 308.494L98.6816 349H110.034L127.492 291.294H116.14ZM162.65 349H174.346L150.954 291.294H140.634L117.242 349H128.852L134.184 335.068H157.318L162.65 349ZM138.398 324.06L145.794 304.796L153.104 324.06H138.398ZM178.903 349H189.911V329.736H199.801C213.819 329.736 222.161 321.136 222.161 310.472C222.161 299.894 213.819 291.294 199.801 291.294H178.903V349ZM189.911 319.33V301.614H199.801C206.681 301.614 211.067 305.312 211.067 310.472C211.067 315.632 206.681 319.33 199.801 319.33H189.911ZM273.632 349.688C284.64 349.688 292.81 344.7 297.54 337.046L287.564 330.768C284.64 335.928 279.394 339.368 273.632 339.368C263.57 339.368 257.034 331.37 257.034 320.19C257.034 308.924 263.57 300.926 273.632 300.926C279.308 300.926 284.554 304.366 287.564 309.612L297.54 303.248C292.81 295.594 284.64 290.606 273.632 290.606C255.744 290.606 245.08 303.85 245.08 320.19C245.08 336.444 255.744 349.688 273.632 349.688ZM344.271 349H355.967L332.575 291.294H322.255L298.863 349H310.473L315.805 335.068H338.939L344.271 349ZM320.019 324.06L327.415 304.796L334.725 324.06H320.019ZM394.924 302.302V291.294H360.524V349H371.532V327.156H388.388V316.148H371.532V302.302H394.924ZM441.591 302.302V291.294H399.967V349H441.591V337.992H410.975V325.522H427.831V314.514H410.975V302.302H441.591Z" fill="white"/>
<path fill-rule="evenodd" clip-rule="evenodd" d="M327.063 46.6406C325.571 36.6126 319.144 29.7417 310.442 25.0439C290.8 10.3081 245.678 0 193.154 0C122.585 0 63.5008 18.5461 63.5008 41.5C63.5008 41.9631 63.5249 42.4245 63.5726 42.884L63.1562 46.9873C60.3282 74.8549 61.9608 117.461 76.3238 154.926C90.7798 192.635 118.614 226.052 168.243 232.422C263.676 244.672 305.681 189.432 314.616 157.452C322.604 139.409 334.095 93.8961 327.063 46.6406ZM313.131 55.8936C295.182 71.786 248.239 83.1236 193.154 83.1236C143.048 83.1236 98.7316 73.7113 77.2439 60.0363C76.0774 85.6784 78.8628 119.645 90.3298 149.557C103.524 183.975 127.728 212.099 170.153 217.544C258.239 228.851 293.53 178.096 300.293 152.963L300.452 152.374L300.704 151.817C307.28 137.301 317.688 97.8991 313.131 55.8936ZM295.345 54.0631C284.468 45.5904 267.866 33.1105 190.582 33.1105C113.297 33.1105 98.5274 54.0631 98.5274 54.0631L83.0705 44.4454C81.1241 35.9728 94.6117 17.7909 164.133 12.8448C251.035 6.66201 303.588 26.5842 308.054 36.8888C311.626 45.1324 301.07 51.7732 295.345 54.0631Z" fill="white"/>
<path d="M192.831 153.195C210.418 171.606 208.861 183.536 205.884 187.2C186.992 191.665 161.574 176.208 158.139 148.729C155.391 126.746 168.901 113.923 176 110.259C180.397 106.962 181.839 110.946 181.839 110.946C181.839 110.946 175.245 134.784 192.831 153.195Z" fill="url(#paint0_linear)"/>
<path d="M203.052 139.818C185.529 121.347 187.127 109.422 190.117 105.769C209.023 101.368 234.389 116.913 237.729 144.403C240.401 166.396 226.846 179.173 219.735 182.812C215.327 186.094 213.898 182.105 213.898 182.105C213.898 182.105 220.575 158.29 203.052 139.818Z" fill="url(#paint1_linear)"/>
<path fill-rule="evenodd" clip-rule="evenodd" d="M388.598 96.1172C380.904 52.4258 342.571 51.3496 324.366 56.2728C324.48 91.3084 306.298 170.232 279.369 190.291C312.687 188.23 398.215 150.731 388.598 96.1172ZM329.519 78.5642V68.2596C346.74 62.0328 376.08 62.6036 381.042 98.9236C381.773 104.278 381.228 109.072 380.477 115.687C380.327 117.005 380.169 118.395 380.011 119.877C378.912 72.6129 346.693 72.8395 329.519 78.5642ZM318.527 155.256C325.831 147.65 332.33 90.0857 329.885 88.0841C340.085 82.908 362.461 79.3883 370.358 106.718C378.255 134.048 351.054 149.162 336.466 153.302C336.192 153.371 335.911 153.443 335.624 153.515C330.168 154.896 322.528 156.829 318.527 155.256Z" fill="white"/>
<path d="M295 52.4997C275.648 62.4992 240.418 65.5 197.744 68C144.854 68 114.878 63.9999 99 54.0005C99 42.1261 141.38 31 194.271 31C247.162 31 295 40.6253 295 52.4997Z" fill="url(#paint2_linear)"/>
<defs>
<linearGradient id="paint0_linear" x1="182.753" y1="108.953" x2="182.753" y2="187.962" gradientUnits="userSpaceOnUse">
<stop stop-color="#9900FF"/>
<stop offset="1" stop-color="#2082E9"/>
</linearGradient>
<linearGradient id="paint1_linear" x1="212.977" y1="184.095" x2="213.249" y2="105.086" gradientUnits="userSpaceOnUse">
<stop stop-color="#9900FF"/>
<stop offset="1" stop-color="#2082E9"/>
</linearGradient>
<linearGradient id="paint2_linear" x1="197.496" y1="31" x2="220.854" y2="77.8583" gradientUnits="userSpaceOnUse">
<stop stop-color="#9900FF"/>
<stop offset="1" stop-color="#2082E9"/>
</linearGradient>
</defs>
</svg>
