<svg width="457" height="352" viewBox="0 0 457 352" fill="none" xmlns="http://www.w3.org/2000/svg">
<path d="M24.166 341.688C34.744 341.688 43.602 334.894 43.602 325.434C43.602 309.008 15.394 307.546 15.394 298.774C15.394 295.248 18.748 292.926 23.908 292.926C30.616 292.926 36.55 299.462 37.238 300.15L44.72 292.754C43.86 291.808 34.744 282.606 23.994 282.606C13.416 282.692 4.644 289.4 4.644 298.946C4.644 315.286 32.766 316.834 32.766 325.52C32.766 329.046 29.412 331.368 24.252 331.368C17.458 331.368 11.524 324.746 11.008 324.144L3.526 331.54C4.3 332.486 13.502 341.688 24.166 341.688ZM116.14 283.294L104.358 323.112L91.8876 283.294H81.8256L69.4416 323.112L57.5736 283.294H46.2216L63.7656 341H75.0316L86.8996 300.494L98.6816 341H110.034L127.492 283.294H116.14ZM162.65 341H174.346L150.954 283.294H140.634L117.242 341H128.852L134.184 327.068H157.318L162.65 341ZM138.398 316.06L145.794 296.796L153.104 316.06H138.398ZM178.903 341H189.911V321.736H199.801C213.819 321.736 222.161 313.136 222.161 302.472C222.161 291.894 213.819 283.294 199.801 283.294H178.903V341ZM189.911 311.33V293.614H199.801C206.681 293.614 211.067 297.312 211.067 302.472C211.067 307.632 206.681 311.33 199.801 311.33H189.911ZM273.632 341.688C284.64 341.688 292.81 336.7 297.54 329.046L287.564 322.768C284.64 327.928 279.394 331.368 273.632 331.368C263.57 331.368 257.034 323.37 257.034 312.19C257.034 300.924 263.57 292.926 273.632 292.926C279.308 292.926 284.554 296.366 287.564 301.612L297.54 295.248C292.81 287.594 284.64 282.606 273.632 282.606C255.744 282.606 245.08 295.85 245.08 312.19C245.08 328.444 255.744 341.688 273.632 341.688ZM344.271 341H355.967L332.575 283.294H322.255L298.863 341H310.473L315.805 327.068H338.939L344.271 341ZM320.019 316.06L327.415 296.796L334.725 316.06H320.019ZM394.924 294.302V283.294H360.524V341H371.532V319.156H388.388V308.148H371.532V294.302H394.924ZM441.591 294.302V283.294H399.967V341H441.591V329.992H410.975V317.522H427.831V306.514H410.975V294.302H441.591Z" fill="white"/>
<path fill-rule="evenodd" clip-rule="evenodd" d="M338.063 46.6406C336.571 36.6126 330.144 29.7417 321.442 25.0439C301.8 10.3081 256.678 0 204.154 0C133.585 0 74.5008 18.5461 74.5008 41.5C74.5008 41.9631 74.5249 42.4245 74.5726 42.884L74.1562 46.9873C71.3282 74.8549 72.9608 117.461 87.3238 154.926C101.78 192.635 129.614 226.052 179.243 232.422C274.676 244.672 316.681 189.432 325.616 157.452C333.604 139.409 345.095 93.8961 338.063 46.6406ZM324.131 55.8936C306.182 71.786 259.239 83.1236 204.154 83.1236C154.048 83.1236 109.732 73.7113 88.2439 60.0363C87.0774 85.6784 89.8628 119.645 101.33 149.557C114.524 183.975 138.728 212.099 181.153 217.544C269.239 228.851 304.53 178.096 311.293 152.963L311.452 152.374L311.704 151.817C318.28 137.301 328.688 97.8991 324.131 55.8936ZM306.345 54.0631C295.468 45.5904 278.866 33.1105 201.582 33.1105C124.297 33.1105 109.527 54.0631 109.527 54.0631L94.0705 44.4454C92.1241 35.9728 105.612 17.7909 175.133 12.8448C262.035 6.66201 314.588 26.5842 319.054 36.8888C322.626 45.1324 312.07 51.7732 306.345 54.0631Z" fill="white"/>
<path d="M203.831 153.195C221.418 171.606 219.861 183.536 216.884 187.2C197.992 191.665 172.574 176.208 169.139 148.729C166.391 126.746 179.901 113.923 187 110.259C191.397 106.962 192.839 110.946 192.839 110.946C192.839 110.946 186.245 134.784 203.831 153.195Z" fill="white"/>
<path d="M214.052 139.818C196.529 121.347 198.127 109.422 201.117 105.769C220.023 101.368 245.389 116.913 248.729 144.403C251.401 166.396 237.846 179.173 230.735 182.812C226.327 186.094 224.898 182.105 224.898 182.105C224.898 182.105 231.575 158.29 214.052 139.818Z" fill="white"/>
<path fill-rule="evenodd" clip-rule="evenodd" d="M399.598 96.1172C391.904 52.4258 353.571 51.3496 335.366 56.2728C335.48 91.3084 317.298 170.232 290.369 190.291C323.687 188.23 409.215 150.731 399.598 96.1172ZM340.519 78.5642V68.2596C357.74 62.0328 387.08 62.6036 392.042 98.9236C392.773 104.278 392.228 109.072 391.477 115.687C391.327 117.005 391.169 118.395 391.011 119.877C389.912 72.6129 357.693 72.8395 340.519 78.5642ZM329.527 155.256C336.831 147.65 343.33 90.0857 340.885 88.0841C351.085 82.908 373.461 79.3883 381.358 106.718C389.255 134.048 362.054 149.162 347.466 153.302C347.192 153.371 346.911 153.443 346.624 153.515C341.168 154.896 333.528 156.829 329.527 155.256Z" fill="white"/>
<path d="M306 54C286.5 63.9993 251 67 208 69.5C154.705 69.5 124.5 65.5 108.5 55.5007C108.5 43.6266 151.205 32.5007 204.5 32.5007C257.795 32.5007 306 42.1259 306 54Z" fill="white"/>
</svg>
