<svg xmlns="http://www.w3.org/2000/svg" xmlns:xlink="http://www.w3.org/1999/xlink" viewBox="0 0 438.07 340.69"><defs><style>.cls-1{fill:#262732;fill-rule:evenodd;}.cls-2{fill:url(#linear-gradient);}.cls-3{fill:url(#linear-gradient-2);}.cls-4{fill:url(#linear-gradient-3);}.cls-5{fill:#fff;}</style><linearGradient id="linear-gradient" x1="200.23" y1="243.05" x2="200.23" y2="164.04" gradientTransform="matrix(1, 0, 0, -1, 0, 352)" gradientUnits="userSpaceOnUse"><stop offset="0" stop-color="#90f"/><stop offset="1" stop-color="#2082e9"/></linearGradient><linearGradient id="linear-gradient-2" x1="230.45" y1="167.9" x2="230.72" y2="246.91" xlink:href="#linear-gradient"/><linearGradient id="linear-gradient-3" x1="205.19" y1="315.03" x2="228.44" y2="268.03" xlink:href="#linear-gradient"/></defs><g id="Layer_2" data-name="Layer 2"><g id="Layer_1-2" data-name="Layer 1"><path class="cls-1" d="M344.54,46.64c-1.49-10-7.92-16.9-16.62-21.6C308.27,10.31,263.15,0,210.63,0,140.06,0,81,18.55,81,41.5a12.77,12.77,0,0,0,.08,1.38L80.63,47c-2.83,27.86-1.2,70.47,13.17,107.94,14.45,37.7,42.29,71.12,91.92,77.49,95.43,12.25,137.43-43,146.37-75C340.08,139.41,351.57,93.9,344.54,46.64Zm-13.93,9.25c-17.95,15.9-64.9,27.23-120,27.23-50.11,0-94.42-9.41-115.91-23.08-1.17,25.64,1.62,59.6,13.08,89.52,13.2,34.42,37.4,62.54,79.83,68C275.71,228.85,311,178.1,317.77,153l.16-.59.25-.55C324.75,137.3,335.16,97.9,330.61,55.89Zm-17.79-1.83c-10.88-8.47-27.48-21-104.76-21s-92.06,21-92.06,21l-15.46-9.61C98.6,36,112.09,17.79,181.61,12.84c86.9-6.18,139.45,13.74,143.92,24.05C329.1,45.13,318.54,51.77,312.82,54.06Z"/><path class="cls-2" d="M210.3,153.2c17.59,18.41,16,30.34,13.06,34-18.89,4.46-44.31-11-47.75-38.47-2.74-22,10.77-34.81,17.86-38.47,4.4-3.3,5.84.69,5.84.69S192.72,134.78,210.3,153.2Z"/><path class="cls-3" d="M220.53,139.82c-17.53-18.47-15.93-30.4-12.94-34,18.91-4.4,44.27,11.14,47.61,38.63,2.68,22-10.88,34.77-18,38.41-4.41,3.28-5.84-.71-5.84-.71S238.05,158.29,220.53,139.82Z"/><path class="cls-1" d="M406.07,96.12c-7.69-43.69-46-44.77-64.23-39.85.11,35-18.07,114-45,134C330.16,188.23,415.69,150.73,406.07,96.12ZM347,78.56V68.26c17.22-6.23,46.56-5.66,51.53,30.66.73,5.36.18,10.15-.57,16.77-.15,1.31-.31,2.7-.47,4.19C396.39,72.61,364.17,72.84,347,78.56Zm-11,76.7c7.3-7.61,13.8-65.17,11.36-67.18,10.2-5.17,32.57-8.69,40.47,18.64s-19.3,42.44-33.89,46.58l-.84.21C347.64,154.9,340,156.83,336,155.26Z"/><path class="cls-4" d="M312.47,54c-19.5,10-55,13-98,15.5-53.29,0-83.5-4-99.5-14,0-11.87,42.71-23,96-23S312.47,42.13,312.47,54Z"/><path class="cls-5" d="M20.64,340.69c10.58,0,19.44-6.8,19.44-16.26,0-16.42-28.21-17.88-28.21-26.66,0-3.52,3.35-5.84,8.51-5.84,6.71,0,12.64,6.53,13.33,7.22l7.48-7.4c-.86-.94-10-10.14-20.72-10.14C9.89,281.69,1.12,288.4,1.12,298c0,16.34,28.12,17.88,28.12,26.57,0,3.53-3.35,5.85-8.51,5.85-6.8,0-12.73-6.62-13.25-7.23L0,330.54C.77,331.49,10,340.69,20.64,340.69Zm92-58.4-11.78,39.82L88.36,282.29H78.3L65.92,322.11,54.05,282.29H42.7L60.24,340H71.51l11.86-40.51L95.16,340h11.35L124,282.29ZM159.12,340h11.7l-23.39-57.71H137.11L113.72,340h11.61l5.33-13.93h23.13Zm-24.25-24.94,7.4-19.26,7.31,19.26ZM175.38,340h11V320.74h9.89c14,0,22.36-8.6,22.36-19.27s-8.34-19.18-22.36-19.18H175.38Zm11-29.67V292.61h9.89c6.88,0,11.27,3.7,11.27,8.86s-4.39,8.86-11.27,8.86Zm83.73,30.36c11,0,19.17-5,23.9-12.64l-10-6.28a16.3,16.3,0,0,1-13.93,8.6c-10.07,0-16.6-8-16.6-19.18s6.53-19.26,16.6-19.26c5.67,0,10.92,3.44,13.93,8.68l10-6.36c-4.73-7.66-12.9-12.64-23.9-12.64-17.89,0-28.56,13.24-28.56,29.58S252.22,340.69,270.11,340.69Zm70.63-.69h11.7l-23.39-57.71H318.73L295.34,340H307l5.33-13.93h23.13Zm-24.25-24.94,7.4-19.26,7.31,19.26ZM391.4,293.3v-11H357V340h11V318.16h16.85v-11H368V293.3Zm46.67,0v-11H396.44V340h41.63V329H407.45V316.52H424.3v-11H407.45V293.3Z"/></g></g></svg>