<svg xmlns="http://www.w3.org/2000/svg" viewBox="0 0 700 481.32"><defs><style>.cls-1{fill:#15bea0;}.cls-2{fill:#eee;}</style></defs><title>AA - On Dark Grey</title><g id="Layer_2" data-name="Layer 2"><g id="Layer_1-2" data-name="Layer 1"><path id="Path_13" data-name="Path 13" class="cls-1" d="M503.69,360.83H700L368.15,0V300.38h-34.8V0L0,360.83H197.81V300.38H142.87L269.25,176.81v184h163v-184l125,123.57H503.69Z"/><path id="Path_7096" data-name="Path 7096" class="cls-2" d="M31.53,463,24,443.44c-.22-.58-.45-1.25-.7-2s-.48-1.6-.7-2.47a35.45,35.45,0,0,1-1.44,4.52L13.61,463Zm13.52,17.81H40a2.18,2.18,0,0,1-1.41-.43,2.75,2.75,0,0,1-.8-1.1l-4.49-11.58H11.8L7.32,479.24a2.36,2.36,0,0,1-.77,1.07,2.13,2.13,0,0,1-1.41.47h-5l19.18-48h6.57ZM82.62,440.3a2.34,2.34,0,0,1-.65.75,1.45,1.45,0,0,1-.86.25,2.35,2.35,0,0,1-1.33-.57c-.52-.38-1.16-.8-1.93-1.26a14.77,14.77,0,0,0-2.78-1.25,11.92,11.92,0,0,0-3.93-.57,11.41,11.41,0,0,0-3.84.58,8.41,8.41,0,0,0-2.77,1.59,6.38,6.38,0,0,0-1.69,2.36,7.41,7.41,0,0,0-.57,2.94,5.43,5.43,0,0,0,1,3.33,8.71,8.71,0,0,0,2.61,2.26,19.87,19.87,0,0,0,3.69,1.62c1.37.46,2.77.93,4.21,1.43s2.84,1,4.21,1.64a14.94,14.94,0,0,1,3.69,2.33,10.65,10.65,0,0,1,2.61,3.45,11.58,11.58,0,0,1,1,5,16.12,16.12,0,0,1-1.08,5.91,13.57,13.57,0,0,1-3.11,4.81A14.66,14.66,0,0,1,76,480.14a18.64,18.64,0,0,1-6.81,1.17,20.73,20.73,0,0,1-8.51-1.69A20,20,0,0,1,54.16,475L56,472a2.74,2.74,0,0,1,.65-.62,1.59,1.59,0,0,1,.85-.25,2,2,0,0,1,1,.35c.37.24.79.53,1.26.89s1,.75,1.61,1.17a13.45,13.45,0,0,0,2.05,1.18,14.51,14.51,0,0,0,2.63.88,13.73,13.73,0,0,0,3.32.35,12.27,12.27,0,0,0,4.12-.63,8.75,8.75,0,0,0,3.06-1.79,7.78,7.78,0,0,0,1.93-2.77,9.29,9.29,0,0,0,.67-3.58,6,6,0,0,0-1-3.56,8.06,8.06,0,0,0-2.6-2.33,17.64,17.64,0,0,0-3.68-1.59l-4.21-1.34a44.39,44.39,0,0,1-4.21-1.59,13.72,13.72,0,0,1-3.7-2.34,10.78,10.78,0,0,1-2.6-3.6,13,13,0,0,1-1-5.34,12.79,12.79,0,0,1,1-4.92,12.58,12.58,0,0,1,2.88-4.22,13.85,13.85,0,0,1,4.66-2.94,16.91,16.91,0,0,1,6.34-1.1,20.3,20.3,0,0,1,7.32,1.27,17.45,17.45,0,0,1,5.81,3.68Zm52.17,30.57a1.27,1.27,0,0,1,.94.44l2.58,2.78a20.61,20.61,0,0,1-7.15,5.32,24.42,24.42,0,0,1-10.16,1.9,23.55,23.55,0,0,1-9.38-1.79,20.67,20.67,0,0,1-7.2-5,22.8,22.8,0,0,1-4.62-7.75,29,29,0,0,1-1.65-9.95,27.84,27.84,0,0,1,1.71-9.94,22.75,22.75,0,0,1,4.8-7.77,21.53,21.53,0,0,1,7.42-5,24.73,24.73,0,0,1,9.54-1.79,23.45,23.45,0,0,1,9,1.65,22.88,22.88,0,0,1,6.9,4.45l-2.14,3a1.71,1.71,0,0,1-.52.55,1.43,1.43,0,0,1-.85.22,2.66,2.66,0,0,1-1.47-.65A24.61,24.61,0,0,0,130.3,440a16.81,16.81,0,0,0-8.7-2.11,17.41,17.41,0,0,0-6.8,1.28,14.89,14.89,0,0,0-5.31,3.73,17.26,17.26,0,0,0-3.47,6,23.8,23.8,0,0,0-1.23,7.94,22.93,22.93,0,0,0,1.28,8,17.69,17.69,0,0,0,3.51,5.94,14.71,14.71,0,0,0,5.26,3.7,16.7,16.7,0,0,0,6.55,1.28,27.7,27.7,0,0,0,3.86-.25,16.44,16.44,0,0,0,3.18-.79,13.05,13.05,0,0,0,2.72-1.36,18.83,18.83,0,0,0,2.49-2A1.81,1.81,0,0,1,134.79,470.87Zm47.35,4.62,0,5.29H152.54v-48H182.1v5.3H159V454h18.69v5.09H159v16.38Zm54.64-42.7v48h-3.25a2.84,2.84,0,0,1-1.28-.27,3.3,3.3,0,0,1-1-.91l-27.77-36.16c0,.56.08,1.11.1,1.65s0,1,0,1.51v34.18h-5.69v-48h3.34a4.6,4.6,0,0,1,.74,0,2,2,0,0,1,.53.16,2.25,2.25,0,0,1,.47.34,4.35,4.35,0,0,1,.5.55L231.26,470c0-.58-.09-1.14-.12-1.69s0-1.07,0-1.56v-34Zm43.5,7.5a2.54,2.54,0,0,1-.66.76,1.44,1.44,0,0,1-.85.25,2.48,2.48,0,0,1-1.34-.57q-.76-.57-1.92-1.26a15.37,15.37,0,0,0-2.78-1.25,11.94,11.94,0,0,0-3.94-.57,11.35,11.35,0,0,0-3.83.58,8.12,8.12,0,0,0-2.78,1.59,6.61,6.61,0,0,0-1.69,2.36,7.57,7.57,0,0,0-.57,2.93,5.47,5.47,0,0,0,1,3.34,8.59,8.59,0,0,0,2.61,2.26,20.46,20.46,0,0,0,3.68,1.62l4.22,1.42c1.43.49,2.84,1,4.21,1.65a14.7,14.7,0,0,1,3.68,2.33,10.51,10.51,0,0,1,2.61,3.45,11.27,11.27,0,0,1,1,5,16.11,16.11,0,0,1-1.07,5.91,13.59,13.59,0,0,1-3.12,4.81,14.71,14.71,0,0,1-5.05,3.22,18.65,18.65,0,0,1-6.82,1.17,20.69,20.69,0,0,1-8.5-1.69,20,20,0,0,1-6.53-4.58l1.87-3.07a2.74,2.74,0,0,1,.65-.62,1.59,1.59,0,0,1,.85-.25,1.94,1.94,0,0,1,1,.35c.37.24.79.53,1.26.89s1,.75,1.6,1.17a12.7,12.7,0,0,0,2.06,1.17,13.85,13.85,0,0,0,5.95,1.24,12.27,12.27,0,0,0,4.12-.63,8.75,8.75,0,0,0,3.06-1.79,7.87,7.87,0,0,0,1.93-2.77,9.33,9.33,0,0,0,.67-3.58,6,6,0,0,0-1-3.57,8.15,8.15,0,0,0-2.6-2.32,17.64,17.64,0,0,0-3.68-1.59l-4.21-1.34a44.39,44.39,0,0,1-4.21-1.59,13.67,13.67,0,0,1-3.7-2.35,10.78,10.78,0,0,1-2.6-3.6,13.1,13.1,0,0,1,2.88-14.48,14.05,14.05,0,0,1,4.66-2.94,16.94,16.94,0,0,1,6.34-1.1,20.3,20.3,0,0,1,7.32,1.27,17.45,17.45,0,0,1,5.81,3.68Zm25,40.49h-6.49v-48h6.49Zm58-48-19.55,48h-5.83l-19.55-48h5.19a2.18,2.18,0,0,1,1.41.43,2.82,2.82,0,0,1,.8,1.1l13.52,33.87c.3.76.58,1.58.86,2.47s.53,1.83.75,2.82c.22-1,.46-1.92.7-2.82s.52-1.72.81-2.47l13.49-33.86a2.48,2.48,0,0,1,.79-1.05,2.17,2.17,0,0,1,1.42-.49Zm42.63,42.7,0,5.29H376.24v-48H405.8v5.3H382.73V454h18.68v5.09H382.73v16.38ZM468.68,463l-7.53-19.52c-.22-.58-.46-1.25-.7-2s-.48-1.59-.71-2.46a36.5,36.5,0,0,1-1.44,4.52L450.77,463Zm13.53,17.82h-5a2.19,2.19,0,0,1-1.41-.44,2.75,2.75,0,0,1-.8-1.1l-4.49-11.58H449l-4.48,11.58a2.42,2.42,0,0,1-.77,1.07,2.18,2.18,0,0,1-1.41.47h-5l19.18-48H463Zm37.57-40.48a2.34,2.34,0,0,1-.65.75,1.44,1.44,0,0,1-.85.25,2.28,2.28,0,0,1-1.34-.57,22.71,22.71,0,0,0-1.93-1.25,15.48,15.48,0,0,0-2.78-1.26,11.92,11.92,0,0,0-3.93-.57,11.41,11.41,0,0,0-3.84.59,8.07,8.07,0,0,0-2.77,1.59,6.41,6.41,0,0,0-1.69,2.36,7.36,7.36,0,0,0-.57,2.93,5.41,5.41,0,0,0,1,3.33,8.62,8.62,0,0,0,2.62,2.26,19.78,19.78,0,0,0,3.68,1.62l4.21,1.43c1.44.49,2.84,1,4.21,1.65a14.71,14.71,0,0,1,3.7,2.33,10.79,10.79,0,0,1,2.61,3.45,11.55,11.55,0,0,1,1,5,16.12,16.12,0,0,1-1.08,5.91,13.53,13.53,0,0,1-3.13,4.8,14.52,14.52,0,0,1-5.05,3.22,18.65,18.65,0,0,1-6.82,1.17,20.72,20.72,0,0,1-8.5-1.69,19.86,19.86,0,0,1-6.52-4.58L493.2,472a2.41,2.41,0,0,1,.65-.62,1.59,1.59,0,0,1,.85-.25,1.94,1.94,0,0,1,1,.35c.36.24.78.53,1.25.89s1,.75,1.61,1.17a12.7,12.7,0,0,0,2.06,1.17,13.35,13.35,0,0,0,2.63.89,13.7,13.7,0,0,0,3.31.35,12.33,12.33,0,0,0,4.13-.63,8.93,8.93,0,0,0,3.06-1.8,7.75,7.75,0,0,0,1.93-2.76,9.52,9.52,0,0,0,.67-3.58,6.11,6.11,0,0,0-1-3.57,8.15,8.15,0,0,0-2.6-2.32,17.64,17.64,0,0,0-3.68-1.59l-4.21-1.34c-1.43-.46-2.84-1-4.22-1.59a13.67,13.67,0,0,1-3.7-2.35,10.78,10.78,0,0,1-2.6-3.6,12.86,12.86,0,0,1-1-5.34,12.6,12.6,0,0,1,1-4.92,12.88,12.88,0,0,1,2.88-4.22,14.24,14.24,0,0,1,4.66-2.95,17.2,17.2,0,0,1,6.35-1.1,20,20,0,0,1,7.31,1.28,17.19,17.19,0,0,1,5.81,3.68Zm43,0a2.61,2.61,0,0,1-.65.75,1.47,1.47,0,0,1-.86.25,2.34,2.34,0,0,1-1.34-.57,20.9,20.9,0,0,0-1.92-1.25,15.8,15.8,0,0,0-2.78-1.26,11.94,11.94,0,0,0-3.94-.57,11.36,11.36,0,0,0-3.83.59,8.21,8.21,0,0,0-2.78,1.59,6.52,6.52,0,0,0-1.69,2.36,7.53,7.53,0,0,0-.57,2.93,5.42,5.42,0,0,0,1,3.33,8.71,8.71,0,0,0,2.61,2.26,20.08,20.08,0,0,0,3.68,1.62l4.22,1.43c1.43.49,2.84,1,4.21,1.65a14.67,14.67,0,0,1,3.68,2.32,10.79,10.79,0,0,1,2.62,3.45,11.43,11.43,0,0,1,1,5,16.2,16.2,0,0,1-1.07,5.92,13.64,13.64,0,0,1-3.12,4.8,14.66,14.66,0,0,1-5.06,3.22,18.6,18.6,0,0,1-6.81,1.17,20.69,20.69,0,0,1-8.5-1.69,19.8,19.8,0,0,1-6.53-4.58l1.87-3.07a2.74,2.74,0,0,1,.65-.62,1.63,1.63,0,0,1,.86-.25,1.94,1.94,0,0,1,1,.35c.37.24.79.53,1.26.89s1,.75,1.61,1.17a12.7,12.7,0,0,0,2.06,1.17,13.49,13.49,0,0,0,2.62.89,13.73,13.73,0,0,0,3.32.35,12.27,12.27,0,0,0,4.12-.63,8.75,8.75,0,0,0,3.06-1.79,7.75,7.75,0,0,0,1.93-2.77,9.11,9.11,0,0,0,.67-3.58,6,6,0,0,0-1-3.56,8.13,8.13,0,0,0-2.59-2.33,17.72,17.72,0,0,0-3.69-1.59l-4.21-1.34a44.39,44.39,0,0,1-4.21-1.59,13.67,13.67,0,0,1-3.7-2.35,10.76,10.76,0,0,1-2.59-3.6,13.12,13.12,0,0,1,2.87-14.48,14.05,14.05,0,0,1,4.66-2.94,16.94,16.94,0,0,1,6.34-1.1,20.3,20.3,0,0,1,7.32,1.27,17.45,17.45,0,0,1,5.81,3.68Zm48.08,35.19,0,5.29H581.29v-48h29.56v5.3H587.79V454h18.68v5.09H587.79v16.38Zm48.21-37.24H643.57v42.53h-6.46V438.25H621.54v-5.46h37.57Zm38.14,2a2.37,2.37,0,0,1-.65.76,1.44,1.44,0,0,1-.85.25,2.42,2.42,0,0,1-1.34-.57c-.52-.38-1.16-.8-1.93-1.26a14.77,14.77,0,0,0-2.78-1.25,11.92,11.92,0,0,0-3.93-.57,11.31,11.31,0,0,0-3.83.58,8,8,0,0,0-2.78,1.59,6.49,6.49,0,0,0-1.69,2.36,7.39,7.39,0,0,0-.57,2.93,5.46,5.46,0,0,0,1,3.34,8.62,8.62,0,0,0,2.62,2.26,20.46,20.46,0,0,0,3.68,1.62l4.21,1.42c1.44.49,2.84,1,4.21,1.65a14.94,14.94,0,0,1,3.69,2.33,10.51,10.51,0,0,1,2.61,3.45,11.55,11.55,0,0,1,1,5,16.32,16.32,0,0,1-1.07,5.91,13.71,13.71,0,0,1-3.13,4.81,14.52,14.52,0,0,1-5,3.22,18.65,18.65,0,0,1-6.82,1.17,20.69,20.69,0,0,1-8.5-1.69,20,20,0,0,1-6.53-4.58l1.88-3.07a2.41,2.41,0,0,1,.65-.62,1.59,1.59,0,0,1,.85-.25,1.94,1.94,0,0,1,1,.35c.36.24.78.53,1.26.89s1,.75,1.6,1.17a12.7,12.7,0,0,0,2.06,1.17,13.84,13.84,0,0,0,5.94,1.24,12.24,12.24,0,0,0,4.12-.63,8.7,8.7,0,0,0,3.07-1.79,7.85,7.85,0,0,0,1.92-2.77,9.11,9.11,0,0,0,.67-3.58,6,6,0,0,0-1-3.56,8.17,8.17,0,0,0-2.6-2.33,17.64,17.64,0,0,0-3.68-1.59l-4.22-1.34c-1.43-.46-2.83-1-4.21-1.59a13.46,13.46,0,0,1-3.69-2.35,10.78,10.78,0,0,1-2.6-3.6,13.77,13.77,0,0,1,0-10.26,12.58,12.58,0,0,1,2.88-4.22,13.91,13.91,0,0,1,4.65-2.94,17,17,0,0,1,6.35-1.1,20.28,20.28,0,0,1,7.31,1.27,17.35,17.35,0,0,1,5.81,3.68Z"/></g></g></svg>