<svg xmlns="http://www.w3.org/2000/svg" xmlns:xlink="http://www.w3.org/1999/xlink" viewBox="0 0 730.97 730.97"><defs><style>.cls-1{fill:#fff;}.cls-2{fill:url(#linear-gradient);}</style><linearGradient id="linear-gradient" y1="365.49" x2="730.97" y2="365.49" gradientTransform="translate(-151.39 365.49) rotate(-45)" gradientUnits="userSpaceOnUse"><stop offset="0" stop-color="#ff005c"/><stop offset="1" stop-color="#ff9171"/></linearGradient></defs><title>Asset 2</title><g id="Layer_2" data-name="Layer 2"><g id="Layer_1-2" data-name="Layer 1"><circle class="cls-1" cx="365.49" cy="365.49" r="332.76"/><path class="cls-2" d="M107.05,107.05c-142.73,142.73-142.73,374.14,0,516.87s374.14,142.73,516.87,0,142.73-374.14,0-516.87S249.78-35.68,107.05,107.05ZM605.17,309,420.62,493.54l74.59,73.91-37.82,37.82L198.59,346.46,346.37,198.68l111,111-73.54,73.54-36.77-36.77,36.77-36.77-36.77-36.77-74.25,74.25,111,111L531.63,310.4,346.37,125.14,125.05,346.46,421.33,642.74l-37.48,37.48-333-333L347.08,50.89Z"/></g></g></svg>