<svg xmlns="http://www.w3.org/2000/svg" xmlns:xlink="http://www.w3.org/1999/xlink" viewBox="0 0 835.48 835.48"><defs><style>.cls-1{fill:#fff;}.cls-2{fill:url(#linear-gradient);}</style><linearGradient id="linear-gradient" x1="4.1" y1="475.12" x2="839.58" y2="475.12" gradientTransform="translate(-216.5 380.07) rotate(-45)" gradientUnits="userSpaceOnUse"><stop offset="0" stop-color="#ff005c"/><stop offset="1" stop-color="#ff9171"/></linearGradient></defs><title>logo</title><g id="Layer_2" data-name="Layer 2"><g id="Layer_1-2" data-name="Layer 1"><circle class="cls-1" cx="417.74" cy="417.74" r="311.23"/><path class="cls-2" d="M122.35,122.35C-40.78,285.49-40.78,550,122.35,713.13s427.64,163.14,590.78,0,163.14-427.64,0-590.78S285.49-40.78,122.35,122.35Zm457,257.32L454.91,504.11,505.21,554l-25.5,25.5L305.2,404.94l99.65-99.65,74.86,74.86-49.59,49.58-24.8-24.79,24.8-24.79-24.8-24.8-50.06,50.07,74.86,74.85,99.65-99.65L404.85,255.7,255.61,404.94,455.39,604.72,430.12,630,205.55,405.42,405.32,205.64Z"/></g></g></svg>