<svg xmlns="http://www.w3.org/2000/svg" xmlns:xlink="http://www.w3.org/1999/xlink" viewBox="0 0 85.45 83"><defs><style>.cls-1{fill:url(#linear-gradient);}.cls-2{fill:url(#linear-gradient-2);}.cls-3{fill:url(#linear-gradient-3);}.cls-4{fill:url(#linear-gradient-4);}.cls-5{fill:url(#linear-gradient-5);}.cls-6{fill:url(#linear-gradient-6);}</style><linearGradient id="linear-gradient" x1="26.47" y1="996.25" x2="26.47" y2="1008.54" gradientTransform="translate(0 -996)" gradientUnits="userSpaceOnUse"><stop offset="0" stop-color="#9802ff"/><stop offset="1" stop-color="#247fea"/></linearGradient><linearGradient id="linear-gradient-2" x1="28.8" y1="996" x2="28.8" y2="1027.64" xlink:href="#linear-gradient"/><linearGradient id="linear-gradient-3" x1="36.75" y1="996.42" x2="36.75" y2="1049.72" xlink:href="#linear-gradient"/><linearGradient id="linear-gradient-4" x1="44.41" y1="1011.22" x2="44.41" y2="1067.6" xlink:href="#linear-gradient"/><linearGradient id="linear-gradient-5" x1="52.25" y1="1033.7" x2="52.25" y2="1077.48" xlink:href="#linear-gradient"/><linearGradient id="linear-gradient-6" x1="57.1" y1="1062.1" x2="57.1" y2="1079" xlink:href="#linear-gradient"/></defs><g id="Layer_2" data-name="Layer 2"><g id="Layer_1-2" data-name="Layer 1"><g id="Layer_2-2" data-name="Layer 2"><g id="Layer_1-2-2" data-name="Layer 1-2"><path class="cls-1" d="M19.07,4.42s-6.71,6.15-7.83,7.08-.76,1.21,1.58.93A162.14,162.14,0,0,0,31.18,8.48c5.68-1.73,9.23-3.79,10.34-5.08s1-2.71,0-3.08-.93.84-5.12,2.05A73.27,73.27,0,0,1,19.07,4.42Z"/><path class="cls-2" d="M44,.25C46,.61,49.91,3.86,45.43,7S35,12.62,25.59,15.32A102.72,102.72,0,0,1,6.12,18.58c-.54.09-1.87,3.45-2.8,5.68a47,47,0,0,0-2,5.78c-.56,2,.09,1.77,3.17,1.21s23.58-5.5,30.38-8.11,16.77-8.08,19.56-10.6,2.24-7.09,1-8.67S51.79,1.2,49,.42C48.82.36,40.69-.38,44,.25Z"/><path class="cls-3" d="M54.66.69c2.34,1,10.16,4.38,8.67,11.09-1.4,5.59-10.61,12.3-23,16.87s-12.14,4.56-22.1,7.08A133.06,133.06,0,0,1,1.19,39c-1.68.27-1.2,2.5-.85,5.49a87,87,0,0,0,1.31,8.66c.38.93.38.56,3.54,0s26.93-6.52,34.57-9.69S59.7,35.08,64.64,30.7s8.85-9.13,8.85-13.61S70.14,9,66.6,5.91a22.09,22.09,0,0,0-8-4.57C57,.76,53.26,0,54.66.69Z"/><path class="cls-4" d="M6.21,60.23c2.17,0,19.47-3.72,29.91-7.17A117.17,117.17,0,0,0,64.63,39.83c5.42-3.45,11.74-10.44,13.14-14.07s0-7.68-1.3-9.94S78.8,18.21,80,20.44s4.75,8.67,3,15.66S75.72,48.49,65,54.92,40.39,65.55,29.6,68.25,16,71.32,14.22,71.6c-1.3,0-3.35-2.51-5.21-4.84S3.69,60.7,6.21,60.23Z"/><path class="cls-5" d="M25.93,74.57c-5.33.86-8.64,1.14-5.93,2.62,2,1.21,7.92,4.29,11.46,4.29S51.68,76.93,58,74.66a67.13,67.13,0,0,0,18.45-10.9C80,60.5,84.11,53,85,47.1s.28-8.11,0-9.23.38,3.45-2.33,9.23S70.88,59.3,61,64.14,35.8,73,25.93,74.57Z"/><path class="cls-6" d="M37.64,82.78c-4.12.53,13.61.24,20.36-2.6S72.32,71.9,76.11,67.4s-3,3.67-14.21,8.76A80.21,80.21,0,0,1,37.64,82.78Z"/></g></g></g></g></svg>