<svg xmlns="http://www.w3.org/2000/svg" version="1.1" style="enable-background:new 0 0 336 235.2;" width="522.5037593499742" height="81.49624065002581"><rect id="backgroundrect" width="100%" height="100%" x="0" y="0" fill="none" stroke="none" class="" style=""/>
<g class="currentLayer" style=""><title>Layer 1</title><g id="svg_1" class=""><g id="surface1" stroke-width="0">
<path style=" stroke:none;fill-rule:nonzero;fill:#FFFFFF;fill-opacity:1;" d="M23.951233625033684,51.05876577194387 L23.951233625033684,51.8145961355269 L13.240566546348743,51.8145961355269 L13.240566546348743,51.05876577194387 L13.617165035070736,51.05876577194387 C15.202564619269745,51.05876577194387 16.10587404529872,48.41731092699186 16.10587404529872,46.90565019982584 L16.10587404529872,4.771408601406478 L7.3572050395347794,4.771408601406478 C4.112665665723782,4.771408601406478 2.5298994676638067,7.86583552663248 2.5298994676638067,10.207065474414506 L1.7767031644098243,10.207065474414506 L1.7767031644098243,1.9772072475404414 L35.64421643324864,1.9772072475404414 L35.64421643324864,10.207065474414506 L34.88838606966562,10.207065474414506 C34.88838606966562,7.86583552663248 33.30561987160564,4.771408601406478 30.06108049779465,4.771408601406478 L21.159665657306686,4.771408601406478 L21.159665657306686,46.90565019982584 C21.159665657306686,48.41731092699186 22.065608469474693,51.05876577194387 23.57463513631169,51.05876577194387 zM23.951233625033684,51.05876577194387 " stroke-width="0" id="svg_2"/>
<path style=" stroke:none;fill-rule:nonzero;fill:#FFFFFF;fill-opacity:1;" d="M69.8856941304804,51.05876577194387 L70.26492600534142,51.05876577194387 C71.77131928603939,51.05876577194387 72.6772620982074,48.49104978402484 72.6772620982074,46.90565019982584 L72.6772620982074,26.366557030992652 L48.54073356466254,26.366557030992652 L48.54073356466254,46.90565019982584 C48.54073356466254,48.41731092699186 49.37030345946853,51.05876577194387 50.879330126305526,51.05876577194387 L51.25592861502752,51.05876577194387 L51.25592861502752,51.8145961355269 L40.69537398492757,51.8145961355269 L40.69537398492757,51.05876577194387 L41.07197247364956,51.05876577194387 C42.58099914048656,51.05876577194387 43.48694195265457,48.49104978402484 43.48694195265457,46.90565019982584 L43.48694195265457,6.657033756965461 C43.48694195265457,5.224380007490474 42.65737273203857,2.733037611123457 41.07197247364956,2.733037611123457 L40.69537398492757,2.733037611123457 L40.69537398492757,1.9772072475404414 L51.25592861502752,1.9772072475404414 L51.25592861502752,2.733037611123457 L50.879330126305526,2.733037611123457 C49.293930542106516,2.733037611123457 48.54073356466254,5.224380007490474 48.54073356466254,6.657033756965461 L48.54073356466254,23.722468125711615 L72.6772620982074,23.722468125711615 L72.6772620982074,6.657033756965461 C72.6772620982074,5.224380007490474 71.84769220340141,2.733037611123457 70.26492600534142,2.733037611123457 L69.8856941304804,2.733037611123457 L69.8856941304804,1.9772072475404414 L80.44624876058035,1.9772072475404414 L80.44624876058035,2.733037611123457 L80.06965027185838,2.733037611123457 C78.4868840737984,2.733037611123457 77.73105371021536,5.224380007490474 77.73105371021536,6.657033756965461 L77.73105371021536,46.90565019982584 C77.73105371021536,48.41731092699186 78.71336943974539,51.05876577194387 80.06965027185838,51.05876577194387 L80.44624876058035,51.05876577194387 L80.44624876058035,51.8145961355269 L69.8856941304804,51.8145961355269 zM69.8856941304804,51.05876577194387 " stroke-width="0" id="svg_3"/>
<path style=" stroke:none;fill-rule:nonzero;fill:#FFFFFF;fill-opacity:1;" d="M86.7062080819263,51.05876577194387 L87.08280657064832,51.05876577194387 C88.5918332374853,51.05876577194387 89.6478884982383,48.567423375576865 89.6478884982383,47.05576264841082 L89.6478884982383,6.657033756965461 C89.6478884982383,5.224380007490474 88.5918332374853,2.733037611123457 87.08280657064832,2.733037611123457 L86.7062080819263,2.733037611123457 L86.7062080819263,1.9772072475404414 L115.74641577889415,1.9772072475404414 L115.74641577889415,8.998264378937485 L114.99321880145015,8.998264378937485 C114.76673343550316,6.657033756965461 113.25770676866617,4.618662766682448 109.86305427208019,4.618662766682448 L94.70168011024629,4.618662766682448 L94.70168011024629,23.722468125711615 L107.22159875293818,23.722468125711615 C109.56019531458116,23.722468125711615 111.29570802155517,22.06332901028962 111.29570802155517,20.1750697944016 L112.0515383851382,20.1750697944016 L112.0515383851382,29.613729790942685 L111.29570802155517,29.613729790942685 C111.29570802155517,27.80184416660667 109.63656890613319,26.290184113630637 107.22159875293818,26.290184113630637 L94.70168011024629,26.290184113630637 L94.70168011024629,49.170507230245846 L111.22196849033219,49.170507230245846 C115.06695833267314,49.170507230245846 116.87884395700917,45.093764575489814 116.87884395700917,42.97901999365479 L117.63204093445316,42.97901999365479 L117.63204093445316,51.8145961355269 L86.7062080819263,51.8145961355269 zM86.7062080819263,51.05876577194387 " stroke-width="0" id="svg_4"/>
<path style=" stroke:none;fill-rule:nonzero;fill:#FFFFFF;fill-opacity:1;" d="M140.79415457107507,51.05876577194387 L141.1733864459361,51.05876577194387 C142.67977905244408,51.05876577194387 143.58572186461208,48.41731092699186 143.58572186461208,46.90565019982584 L143.58572186461208,6.657033756965461 C143.58572186461208,5.224380007490474 142.75615264399607,2.733037611123457 141.1733864459361,2.733037611123457 L140.79415457107507,2.733037611123457 L140.79415457107507,1.9772072475404414 L155.35244487824002,1.9772072475404414 C171.3433889348799,1.9772072475404414 180.8478876300369,14.057322763223532 180.8478876300369,27.122387394575668 C180.8478876300369,39.355248744982774 171.94910617568792,51.8145961355269 154.372761860659,51.8145961355269 L140.79415457107507,51.8145961355269 zM152.48713737929006,4.618662766682448 L148.63951347662004,4.618662766682448 L148.63951347662004,49.170507230245846 L152.637249827875,49.170507230245846 C163.50066274128397,49.170507230245846 175.72035648680588,42.526048587570784 175.72035648680588,28.25481624688068 C175.72035648680588,15.342497450252559 165.83925930292696,4.618662766682448 152.48713737929006,4.618662766682448 zM152.48713737929006,4.618662766682448 " stroke-width="0" id="svg_5"/>
<path style=" stroke:none;fill-rule:nonzero;fill:#FFFFFF;fill-opacity:1;" d="M216.1480546483507,51.05876577194387 L216.5246524628826,51.05876577194387 C217.73345423254966,51.05876577194387 218.33653808721868,50.52942144849786 218.33653808721868,49.39699259619286 C218.33653808721868,49.020394781660855 218.26016516985663,48.567423375576865 218.11005272127164,48.11445196949285 L211.32074840228967,29.763842913717667 L198.12137298756676,29.763842913717667 L191.55855403453182,47.811593011993835 C191.40844158594678,48.190824886854855 191.33206866858478,48.567423375576865 191.33206866858478,48.94402186429883 C191.33206866858478,50.229196551327874 192.1616385633908,51.05876577194387 192.9912077840068,51.05876577194387 L193.36780627272879,51.05876577194387 L193.36780627272879,51.8145961355269 L184.99573642987684,51.8145961355269 L184.99573642987684,51.05876577194387 L185.37233424440882,51.05876577194387 C186.65487554529886,51.05876577194387 188.01378976355085,49.24688014760787 188.8433596583568,47.13213623996285 L206.11684434169672,1.0712644353724414 L223.01373121050466,46.67916415968884 C223.69055527058663,48.71753582416184 224.89935704025362,51.05876577194387 226.93509464439762,51.05876577194387 L227.31169245892966,51.05876577194387 L227.31169245892966,51.8145961355269 L216.1480546483507,51.8145961355269 zM198.87456929082077,27.19612692579865 L210.49117918167371,27.19612692579865 L204.68419059222174,11.415867244081525 zM198.87456929082077,27.19612692579865 " stroke-width="0" id="svg_6"/>
<path style=" stroke:none;fill-rule:nonzero;fill:#FFFFFF;fill-opacity:1;" d="M232.13899870499057,1.9772072475404414 L242.9260387010375,1.9772072475404414 L242.9260387010375,2.7304035507944278 L242.54680682617652,2.7304035507944278 C241.11415307670154,2.7304035507944278 240.13447073331054,5.148007090128466 240.13447073331054,6.657033756965461 L240.13447073331054,46.90565019982584 C240.13447073331054,48.41467686666283 241.04041354547854,51.05876577194387 242.54680682617652,51.05876577194387 L242.9260387010375,51.05876577194387 L242.9260387010375,51.8145961355269 L232.13899870499057,51.8145961355269 L232.13899870499057,51.05876577194387 L232.51559651952255,51.05876577194387 C234.09836339177252,51.05876577194387 235.00430620394053,48.49104978402484 235.00430620394053,46.90565019982584 L235.00430620394053,6.657033756965461 C235.00430620394053,5.224380007490474 234.09836339177252,2.733037611123457 232.51559651952255,2.733037611123457 L232.13899870499057,2.733037611123457 zM232.13899870499057,1.9772072475404414 " stroke-width="0" id="svg_7"/>
<path style=" stroke:none;fill-rule:nonzero;fill:#FFFFFF;fill-opacity:1;" d="M250.16568036577445,51.05876577194387 L250.5422788544965,51.05876577194387 C252.05130552133346,51.05876577194387 253.1073607820864,48.567423375576865 253.1073607820864,47.05576264841082 L253.1073607820864,6.657033756965461 C253.1073607820864,5.224380007490474 252.05130552133346,2.733037611123457 250.5422788544965,2.733037611123457 L250.16568036577445,2.733037611123457 L250.16568036577445,1.9772072475404414 L261.0264598930444,1.9772072475404414 L261.0264598930444,2.733037611123457 L260.64986140432234,2.733037611123457 C259.14083473748536,2.733037611123457 258.16115239409436,5.224380007490474 258.16115239409436,6.657033756965461 L258.16115239409436,49.020394781660855 L274.67880738804126,49.020394781660855 C278.5264306165212,49.020394781660855 280.33568285471824,44.94365212690484 280.33568285471824,42.299563221623785 L281.0915132183013,42.299563221623785 L281.0915132183013,51.8145961355269 L250.16568036577445,51.8145961355269 zM250.16568036577445,51.05876577194387 " stroke-width="0" id="svg_8"/>
<path style=" stroke:none;fill-rule:nonzero;fill:#FFFFFF;fill-opacity:1;" d="M279.12161431277315,1.9772072475404414 L289.53205582009815,1.9772072475404414 L289.53205582009815,2.7304035507944278 C288.85259837387713,2.8067771423464336 288.0994020706231,3.336121465792452 288.0994020706231,4.315803809183436 C288.0994020706231,4.542289175130435 288.1731416018461,4.845148132629447 288.3258874365701,5.148007090128466 L299.63963836992406,25.00764281274064 L310.50041857138405,6.204062350881458 C310.879650446245,5.374493130265464 311.02976289483007,5.148007090128466 311.02976289483007,4.542289175130435 C310.803276854693,2.956889590931425 309.52073555380304,2.7304035507944278 309.29425018785605,2.7304035507944278 L309.29425018785605,1.9772072475404414 L317.366095133538,1.9772072475404414 L317.366095133538,2.7304035507944278 C315.85706846670104,2.7304035507944278 314.197928677089,5.071634172766451 313.0655004989741,6.959892714464473 L301.298778159536,27.348873434712665 L301.298778159536,46.90565019982584 C301.298778159536,48.34093733543986 302.2784605029271,51.05876577194387 303.787487169764,51.05876577194387 L304.16408565848604,51.05876577194387 L304.16408565848604,51.811962749387845 L293.37704566243906,51.811962749387845 L293.37704566243906,51.05876577194387 L293.7562775373001,51.05876577194387 C295.33904373536006,51.05876577194387 296.2449865475281,48.49104978402484 296.2449865475281,46.90565019982584 L296.2449865475281,28.028330206743675 L284.0990323332291,7.186378754601478 C283.1193499898381,5.6773514135744785 281.15735191691715,2.733037611123457 279.4982121273052,2.733037611123457 L279.12161431277315,2.733037611123457 zM279.12161431277315,1.9772072475404414 " stroke-width="0" id="svg_9"/>
<path style=" stroke:none;fill-rule:nonzero;fill:#FFFFFF;fill-opacity:1;" d="M369.87127542462684,51.05876577194387 L370.24787323915876,51.05876577194387 C371.7568999059958,51.05876577194387 372.6602093320248,48.49104978402484 372.6602093320248,46.90565019982584 L372.6602093320248,26.366557030992652 L348.52368079847986,26.366557030992652 L348.52368079847986,46.90565019982584 C348.52368079847986,48.41731092699186 349.35325069328593,51.05876577194387 350.8622773601229,51.05876577194387 L351.2388758488449,51.05876577194387 L351.2388758488449,51.8145961355269 L340.68095460488394,51.8145961355269 L340.68095460488394,51.05876577194387 L341.057553093606,51.05876577194387 C342.566580434633,51.05876577194387 343.46988918647196,48.49104978402484 343.46988918647196,46.90565019982584 L343.46988918647196,6.657033756965461 C343.46988918647196,5.224380007490474 342.64031929166595,2.733037611123457 341.057553093606,2.733037611123457 L340.68095460488394,2.733037611123457 L340.68095460488394,1.9772072475404414 L351.2388758488449,1.9772072475404414 L351.2388758488449,2.733037611123457 L350.8622773601229,2.733037611123457 C349.27951116206293,2.733037611123457 348.52368079847986,5.224380007490474 348.52368079847986,6.657033756965461 L348.52368079847986,23.722468125711615 L372.6602093320248,23.722468125711615 L372.6602093320248,6.657033756965461 C372.6602093320248,5.224380007490474 371.83064011140885,2.733037611123457 370.24787323915876,2.733037611123457 L369.87127542462684,2.733037611123457 L369.87127542462684,1.9772072475404414 L380.43182938053684,1.9772072475404414 L380.43182938053684,2.733037611123457 L380.05259750567575,2.733037611123457 C378.4698313076157,2.733037611123457 377.71400094403276,5.224380007490474 377.71400094403276,6.657033756965461 L377.71400094403276,46.90565019982584 C377.71400094403276,48.41731092699186 378.69631667356276,51.05876577194387 380.05259750567575,51.05876577194387 L380.43182938053684,51.05876577194387 L380.43182938053684,51.8145961355269 L369.87127542462684,51.8145961355269 zM369.87127542462684,51.05876577194387 " stroke-width="0" id="svg_10"/>
<path style=" stroke:none;fill-rule:nonzero;fill:#FFFFFF;fill-opacity:1;" d="M437.4535554533904,26.743155519714648 C437.4535554533904,41.84659181553978 425.5367206653675,52.56779311297086 411.0521698894255,52.56779311297086 C395.59057015623165,52.56779311297086 386.0860714610747,40.41130467992576 386.0860714610747,27.422612291745658 C386.0860714610747,14.436554638084552 395.59057015623165,1.2213768839574257 412.11085853631755,1.2213768839574257 C427.72257071809645,1.2213768839574257 437.4535554533904,13.151379951055524 437.4535554533904,26.743155519714648 zM432.3260243101595,27.64909833188264 C432.3260243101595,16.54866515959055 423.95395446730754,3.8654657892384643 411.1285428067876,3.8654657892384643 C398.6823630211286,3.8654657892384643 391.1398623988926,16.098327813835574 391.1398623988926,26.366557030992652 C391.1398623988926,37.46699020328475 400.04127791357064,49.92633759382886 412.03448561895556,49.92633759382886 C425.5367206653675,49.32061967883084 432.3260243101595,37.69347624342174 432.3260243101595,27.64909833188264 zM432.3260243101595,27.64909833188264 " stroke-width="0" id="svg_11"/>
<path style=" stroke:none;fill-rule:nonzero;fill:#FFFFFF;fill-opacity:1;" d="M444.0137403460963,51.05876577194387 L444.39033883481835,51.05876577194387 C445.8993655016553,51.05876577194387 446.8053083138233,48.41731092699186 446.8053083138233,46.90565019982584 L446.8053083138233,6.657033756965461 C446.8053083138233,5.224380007490474 445.9757384190174,2.733037611123457 444.39033883481835,2.733037611123457 L444.0137403460963,2.733037611123457 L444.0137403460963,1.9772072475404414 L458.57203065326127,1.9772072475404414 C474.5629747099012,1.9772072475404414 484.06747340505814,14.057322763223532 484.06747340505814,27.122387394575668 C484.06747340505814,39.355248744982774 475.16605856457016,51.8145961355269 457.5923483098703,51.8145961355269 L444.0137403460963,51.8145961355269 zM455.70672315431125,4.618662766682448 L451.8590992516413,4.618662766682448 L451.8590992516413,49.170507230245846 L455.85683560289624,49.170507230245846 C466.7176151301663,49.170507230245846 478.9373088756882,42.526048587570784 478.9373088756882,28.25481624688068 C478.9373088756882,15.342497450252559 469.0562116918092,4.618662766682448 455.70672315431125,4.618662766682448 zM455.70672315431125,4.618662766682448 " stroke-width="0" id="svg_12"/>
<path style=" stroke:none;fill-rule:nonzero;fill:#FFFFFF;fill-opacity:1;" d="M490.553918766541,51.05876577194387 L490.9305172552631,51.05876577194387 C492.4395439221001,51.05876577194387 493.495599182853,48.567423375576865 493.495599182853,47.05576264841082 L493.495599182853,6.657033756965461 C493.495599182853,5.224380007490474 492.4395439221001,2.733037611123457 490.9305172552631,2.733037611123457 L490.553918766541,2.733037611123457 L490.553918766541,1.9772072475404414 L501.414698293811,1.9772072475404414 L501.414698293811,2.733037611123457 L501.0380998050891,2.733037611123457 C499.52907313825204,2.733037611123457 498.5493907948611,5.224380007490474 498.5493907948611,6.657033756965461 L498.5493907948611,49.020394781660855 L515.0670457888081,49.020394781660855 C518.9146690172879,49.020394781660855 520.7239212554849,44.94365212690484 520.7239212554849,42.299563221623785 L521.479751619068,42.299563221623785 L521.479751619068,51.8145961355269 L490.5512853804021,51.8145961355269 L490.5512853804021,51.05876577194387 zM490.553918766541,51.05876577194387 " stroke-width="0" id="svg_13"/>
<path style=" stroke:none;fill-rule:nonzero;fill:#FFFFFF;fill-opacity:1;" d="M15.19466378666264,76.48046966670775 L9.392943317868756,65.65392618181528 C9.429812746385245,67.10238092231448 9.448247797738487,68.86949628552689 9.448247797738487,70.3179510260261 L9.448247797738487,76.48046966670775 L7.912885246941141,76.48046966670775 L7.912885246941141,64.15543373372444 L10.26728347379834,64.15543373372444 L16.069004616782223,74.98197654442689 C16.032134514075736,73.53352180392771 16.013699462722492,71.76640644071529 16.013699462722492,70.3179510260261 L16.013699462722492,64.15543373372444 L17.514825971142386,64.15543373372444 L17.54906201351984,76.48046966670775 zM15.19466378666264,76.48046966670775 " stroke-width="0" id="svg_14"/>
<path style=" stroke:none;fill-rule:nonzero;fill:#FFFFFF;fill-opacity:1;" d="M32.857915237799716,72.21147701419218 L26.005406280530902,72.21147701419218 C26.147617896508788,74.71335430349535 27.327450396076426,75.55345841704747 28.717967270566856,75.55345841704747 C29.950470863865185,75.55345841704747 30.948588258609412,74.78445977438929 31.161906019671232,73.42554623032727 L32.76837471555253,73.42554623032727 C32.39440961296957,75.71410508437859 30.590424821240667,76.73065685628607 28.64686179967291,76.73065685628607 C26.18448799921528,76.73065685628607 24.346266490918914,75.12418883459478 24.346266490918914,71.7822081059295 C24.346266490918914,68.7114830043348 26.255593470109222,66.76265253629897 28.841744509381492,66.76265253629897 C31.44896398614604,66.76265253629897 32.894785340506196,68.7114830043348 32.894785340506196,71.47934914843047 C32.894785340506196,71.62156076440837 32.894785340506196,71.87174862817669 32.857915237799716,72.21147701419218 zM26.023840657694148,71.03164451462456 L31.34098773835562,71.03164451462456 C31.198776122377723,69.0670130555645 30.358672008825593,67.94248503586661 28.807508467004034,67.94248503586661 C27.30901534472318,67.94248503586661 26.20292305056852,69.01434196183382 26.023840657694148,71.03164451462456 zM26.023840657694148,71.03164451462456 " stroke-width="0" id="svg_15"/>
<path style=" stroke:none;fill-rule:nonzero;fill:#FFFFFF;fill-opacity:1;" d="M49.362402626861424,76.48046966670775 L47.542616169918304,76.48046966670775 L45.43840648101942,68.51396623429719 L43.33156273179151,76.48046966670775 L41.511776274848394,76.48046966670775 L38.49635565312344,67.01284040006729 L40.26083763019682,67.01284040006729 L42.45722190167192,75.01621258680434 L44.527196222383346,67.01284040006729 L46.43652320157366,67.01284040006729 L48.54073356466254,74.96354216726365 L50.737117836137635,67.01284040006729 L52.37782257439638,67.01284040006729 zM49.362402626861424,76.48046966670775 " stroke-width="0" id="svg_16"/>
<path style=" stroke:none;fill-rule:nonzero;fill:#FFFFFF;fill-opacity:1;" d="M64.90300866355638,69.70960039907902 L63.29917402800412,69.70960039907902 C63.08322220661325,68.60350743073437 62.40639882072129,67.94248503586661 61.300305852376624,67.94248503586661 C60.228449600599426,67.94248503586661 59.7280738730628,68.53240128565044 59.7280738730628,69.35407034784932 C59.7280738730628,70.29951664886283 60.512872832555196,70.67611446339484 61.79804751958422,71.01584352360034 C63.97599741389609,71.58732472203091 65.0109849113468,72.44322982660726 65.0109849113468,74.05233190862758 C65.0109849113468,75.83788164900324 63.4940574119027,76.73065685628607 61.495189236275216,76.73065685628607 C59.54899215437842,76.73065685628607 58.068934083450806,75.83788164900324 57.784510851495035,73.69416847125882 L59.38834548704729,73.69416847125882 C59.63853335081561,75.07151774086408 60.512872832555196,75.55345841704747 61.603164809875636,75.55345841704747 C62.619716581783116,75.55345841704747 63.44138564398201,75.08731873188829 63.44138564398201,74.17610914744222 C63.44138564398201,73.26489888880616 62.79879897465749,72.78295821262276 61.21076533012945,72.35368930436007 C59.51475611200097,71.89018367952993 58.158475279887995,71.19229185614569 58.158475279887995,69.53315206653369 C58.158475279887995,67.79763935955968 59.47788600929448,66.76265253629897 61.42408309119127,66.76265253629897 C63.5467278314434,66.76265253629897 64.70812595384778,67.97672107824407 64.90300866355638,69.70960039907902 zM64.90300866355638,69.70960039907902 " stroke-width="0" id="svg_17"/>
<path style=" stroke:none;fill-rule:nonzero;fill:#FFFFFF;fill-opacity:1;" d="M85.72652573853533,75.12418883459478 L85.21034901997449,76.14337466683129 C84.56776167645997,76.5884452403082 83.74609261426109,76.73065685628607 82.83488302981502,76.73065685628607 C81.12307214647234,76.73065685628607 79.7852263657126,75.78521122946255 79.7852263657126,74.03389685727433 C79.7852263657126,71.89018367952993 81.38906100126486,70.78145665085624 85.10237344637407,70.78145665085624 L85.70809068718208,70.78145665085624 L85.70809068718208,70.5312694612779 C85.70809068718208,70.12043493017848 85.70809068718208,69.74646982759552 85.67385464480462,69.38830639022677 C85.60274849972069,68.51396623429719 85.10237344637407,67.94248503586661 83.83563313650826,67.94248503586661 C82.55045844947925,67.94248503586661 81.90787178015472,68.63774347311181 81.79989553236429,69.94398659763313 L80.19342751067302,69.94398659763313 C80.33563912665089,67.92404998451337 81.7472244386336,66.76265253629897 83.83563313650826,66.76265253629897 C86.08468917590409,66.76265253629897 87.0301354769176,67.71073222345154 87.19078214424873,69.26452915141213 C87.22501818662619,69.63849425399509 87.24345323797942,70.10463326496426 87.24345323797942,70.51546779606372 L87.24345323797942,74.07076695998083 C87.24345323797942,74.78445977438929 87.27768928035688,75.4270477920938 87.42253495666381,76.48046966670775 L85.88717240586647,76.48046966670775 zM85.70809068718208,72.89093446041318 L85.70809068718208,71.92705310804642 C83.10350527074658,71.7295363380088 81.4601671463488,72.28258315927613 81.4601671463488,73.91012029264968 C81.4601671463488,75.05308268951084 82.19229501211049,75.55345841704747 83.35369313451488,75.55345841704747 C84.7810794375218,75.55345841704747 85.70809068718208,74.60537872989491 85.70809068718208,72.89093446041318 zM85.70809068718208,72.89093446041318 " stroke-width="0" id="svg_18"/>
<path style=" stroke:none;fill-rule:nonzero;fill:#FFFFFF;fill-opacity:1;" d="M102.80249432602763,71.15805513957822 L102.80249432602763,76.48046966670775 L101.26713177523028,76.48046966670775 L101.26713177523028,71.26603071317865 C101.26713177523028,70.78145665085624 101.26713177523028,70.38905717111003 101.23289573285281,69.90711716911665 C101.14335521060565,68.79839014044296 100.53763729560761,67.97672107824407 99.0733808898942,67.97672107824407 C97.59068943282756,67.97672107824407 96.34238484850502,69.08544810691775 96.34238484850502,72.31945258779263 L96.34238484850502,76.48046966670775 L94.80702229770766,76.48046966670775 L94.80702229770766,67.01284040006729 L96.34238484850502,67.01284040006729 L96.34238484850502,68.63774347311181 L96.93230109828882,67.54745216998137 C97.73553510913447,66.92329920363011 98.43079354637969,66.76265253629897 99.39467489874646,66.76265253629897 C101.46464854526788,66.76265253629897 102.62341260734324,67.87137889078267 102.76562489751113,69.53051868039466 C102.80249432602763,70.01509274271707 102.80249432602763,70.38905717111003 102.80249432602763,71.15805513957822 zM102.80249432602763,71.15805513957822 " stroke-width="0" id="svg_19"/>
<path style=" stroke:none;fill-rule:nonzero;fill:#FFFFFF;fill-opacity:1;" d="M118.52218208140695,76.48046966670775 L116.9868202047996,76.48046966670775 L116.9868202047996,74.96354216726365 L116.27312671620113,75.98009393917111 C115.73851494628705,76.42779789878705 114.74039755154283,76.73065685628607 113.77651687336605,76.73065685628607 C111.00865072927037,76.73065685628607 109.47592156461205,74.66068320976464 109.47592156461205,71.89018367952993 C109.47592156461205,68.38755560934351 111.65123807278489,66.76265253629897 114.09781020802832,66.76265253629897 C114.88260984171072,66.76265253629897 115.88072656226494,66.99440534871405 116.36266723844831,67.38680482846024 L116.9868202047996,68.31644946425958 L116.9868202047996,63.34956566254975 L118.52218208140695,63.34956566254975 zM116.9868202047996,71.83751258579923 L116.9868202047996,71.31870248109935 C116.9868202047996,68.87212967166593 115.45409104014128,67.94248503586661 114.09781020802832,67.94248503586661 C112.43603770646727,67.94248503586661 111.15349640557729,69.22765972289564 111.15349640557729,71.71110196084555 C111.15349640557729,73.85481513858997 112.11474369761503,75.55345841704747 114.00826968578113,75.55345841704747 C115.57786827895592,75.55345841704747 116.9868202047996,74.55270696197421 116.9868202047996,71.83751258579923 zM116.9868202047996,71.83751258579923 " stroke-width="0" id="svg_20"/>
<path style=" stroke:none;fill-rule:nonzero;fill:#FFFFFF;fill-opacity:1;" d="M134.07595639717704,76.48046966670775 L134.07595639717704,64.15543373372444 L135.61131894797444,64.15543373372444 L135.61131894797444,76.48046966670775 zM134.07595639717704,76.48046966670775 " stroke-width="0" id="svg_21"/>
<path style=" stroke:none;fill-rule:nonzero;fill:#FFFFFF;fill-opacity:1;" d="M151.18879441318586,71.15805513957822 L151.18879441318586,76.48046966670775 L149.65606592271752,76.48046966670775 L149.65606592271752,71.26603071317865 C149.65606592271752,70.78145665085624 149.65606592271752,70.38905717111003 149.61919582001104,69.90711716911665 C149.52965529776384,68.79839014044296 148.9239373827658,67.97672107824407 147.45968097705241,67.97672107824407 C145.9796235803148,67.97672107824407 144.72868493566324,69.08544810691775 144.72868493566324,72.31945258779263 L144.72868493566324,76.48046966670775 L143.1933223848659,76.48046966670775 L143.1933223848659,67.01284040006729 L144.72868493566324,67.01284040006729 L144.72868493566324,68.63774347311181 L145.31860118544705,67.54745216998137 C146.1218351962927,66.92329920363011 146.81709363353792,66.76265253629897 147.78097498590466,66.76265253629897 C149.85094863242608,66.76265253629897 151.00971269450145,67.87137889078267 151.1545583708084,69.53051868039466 C151.18879441318586,70.01509274271707 151.18879441318586,70.38905717111003 151.18879441318586,71.15805513957822 zM151.18879441318586,71.15805513957822 " stroke-width="0" id="svg_22"/>
<path style=" stroke:none;fill-rule:nonzero;fill:#FFFFFF;fill-opacity:1;" d="M164.87537862475017,69.70960039907902 L163.26890992886888,69.70960039907902 C163.0555921678071,68.60350743073437 162.37613472158608,67.94248503586661 161.2700417532414,67.94248503586661 C160.1981855014642,67.94248503586661 159.70044316006658,68.53240128565044 159.70044316006658,69.35407034784932 C159.70044316006658,70.29951664886283 160.48524279374902,70.67611446339484 161.770417480778,71.01584352360034 C163.9457333147609,71.58732472203091 164.9807208122116,72.44322982660726 164.9807208122116,74.05233190862758 C164.9807208122116,75.83788164900324 163.4637933127675,76.73065685628607 161.46492513714003,76.73065685628607 C159.52136144138223,76.73065685628607 158.03866998431562,75.83788164900324 157.7542467523598,73.69416847125882 L159.36071477405108,73.69416847125882 C159.61090263781944,75.07151774086408 160.48524279374902,75.55345841704747 161.57290071074044,75.55345841704747 C162.5894524826479,75.55345841704747 163.41112154484676,75.08731873188829 163.41112154484676,74.17610914744222 C163.41112154484676,73.26489888880616 162.76853487552228,72.78295821262276 161.1805012309942,72.35368930436007 C159.48449201286576,71.89018367952993 158.12821118075277,71.19229185614569 158.12821118075277,69.53315206653369 C158.12821118075277,67.79763935955968 159.45025529629828,66.76265253629897 161.39381899205608,66.76265253629897 C163.51909779263718,66.76265253629897 164.6778618547126,67.97672107824407 164.87537862475017,69.70960039907902 zM164.87537862475017,69.70960039907902 " stroke-width="0" id="svg_23"/>
<path style=" stroke:none;fill-rule:nonzero;fill:#FFFFFF;fill-opacity:1;" d="M173.4581328425249,64.88756159948613 C173.4581328425249,65.44060842075345 173.02886393426223,65.86987732901615 172.4758171129949,65.86987732901615 C171.9227702917276,65.86987732901615 171.49350138346495,65.44060842075345 171.49350138346495,64.88756159948613 C171.49350138346495,64.33188139207977 171.9227702917276,63.905245869956104 172.4758171129949,63.905245869956104 C173.02886393426223,63.905245869956104 173.4581328425249,64.33188139207977 173.4581328425249,64.88756159948613 zM171.70681914452672,76.48046966670775 L171.70681914452672,67.01284040006729 L173.24218169532406,67.01284040006729 L173.24218169532406,76.48046966670775 zM171.70681914452672,76.48046966670775 " stroke-width="0" id="svg_24"/>
<path style=" stroke:none;fill-rule:nonzero;fill:#FFFFFF;fill-opacity:1;" d="M189.0882800756571,74.16030748222799 C189.0882800756571,74.7475903458728 189.0882800756571,75.48235227196353 189.0698450243038,75.99852899052438 C188.9803045020567,78.76902852075908 187.3027296610914,80.23328492647249 184.5743676800313,80.23328492647249 C181.87760768101953,80.23328492647249 180.53976122606974,79.10875690677459 180.34487851636123,77.10725534500806 L180.3264434650079,76.9281736263237 L181.87760768101953,76.9281736263237 L181.89604205818273,77.08882029365482 C182.0224526831364,78.25021841605921 182.94946393279668,79.05345242690484 184.5743676800313,79.05345242690484 C186.44682455651503,79.05345242690484 187.46337700261256,77.98159550093764 187.53711653383556,76.1591756578555 C187.5529175248597,75.71410508437859 187.5529175248597,75.40861274074055 187.5529175248597,75.12418883459478 L187.5529175248597,74.96354216726365 L186.83922403626127,75.98272732531017 C186.3046129405372,76.42779789878705 185.30649554579293,76.7332909166151 184.3426148676162,76.7332909166151 C181.57474872352049,76.7332909166151 180.04201955886214,74.66068320976464 180.04201955886214,71.89018367952993 C180.04201955886214,68.39018966967255 182.21733606703503,66.76265253629897 184.66390820227844,66.76265253629897 C185.44870716177087,66.76265253629897 186.44682455651503,66.99440534871405 186.92876523269848,67.38943821459928 L187.5529175248597,68.31644946425958 L187.5529175248597,67.01284040006729 L189.0882800756571,67.01284040006729 zM187.5529175248597,71.83751258579923 L187.5529175248597,71.31870248109935 C187.5529175248597,68.87212967166593 186.02018903439142,67.94248503586661 184.66127481613938,67.94248503586661 C183.0021350265274,67.94248503586661 181.71696033949837,69.22765972289564 181.71696033949837,71.71110196084555 C181.71696033949837,73.85481513858997 182.68084169186517,75.55345841704747 184.5743676800313,75.55345841704747 C186.14396559901604,75.55345841704747 187.5529175248597,74.55270696197421 187.5529175248597,71.83751258579923 zM187.5529175248597,71.83751258579923 " stroke-width="0" id="svg_25"/>
<path style=" stroke:none;fill-rule:nonzero;fill:#FFFFFF;fill-opacity:1;" d="M204.66575621505848,71.15805513957822 L204.66575621505848,76.48046966670775 L203.13039366426113,76.48046966670775 L203.13039366426113,71.26603071317865 C203.13039366426113,70.78145665085624 203.13039366426113,70.38905717111003 203.09352423574467,69.90711716911665 C203.00398303930746,68.79839014044296 202.39826579849944,67.94248503586661 200.93400871859603,67.97672107824407 C199.45395132185843,68.01359118095054 198.20564673753591,69.08544810691775 198.20564673753591,72.31945258779263 L198.20564673753591,76.48046966670775 L196.67028418673857,76.48046966670775 L196.67028418673857,63.262658526441584 L198.20564673753591,63.262658526441584 L198.20564673753591,68.63774347311181 L198.7929289269906,67.5500855561204 C199.59616361202632,66.92329920363011 200.29142204927155,66.76265253629897 201.25530272744828,66.76265253629897 C203.32527704815976,66.76265253629897 204.48667449637412,67.87137889078267 204.628886112352,69.53315206653369 C204.66575621505848,70.01509274271707 204.66575621505848,70.38905717111003 204.66575621505848,71.15805513957822 zM204.66575621505848,71.15805513957822 " stroke-width="0" id="svg_26"/>
<path style=" stroke:none;fill-rule:nonzero;fill:#FFFFFF;fill-opacity:1;" d="M213.95957053529264,73.71260352261207 C213.95957053529264,74.03389685727433 213.95957053529264,74.19454352460546 213.97800558664596,74.44473138837378 C214.04911173172985,75.35594164700984 214.42570954626183,75.55345841704747 215.62134371104372,75.40861274074055 L215.62134371104372,76.53577414657748 C215.17363907723774,76.60688029166144 214.74700355511413,76.62531466882467 214.31773397266142,76.62531466882467 C213.1405348592328,76.62531466882467 212.53218423228572,76.14337466683129 212.44264303584856,74.96354216726365 C212.42684204482435,74.71335430349535 212.42684204482435,74.3183207634201 212.42684204482435,73.78370966769602 L212.42684204482435,68.26377904471886 L211.16010173495852,68.26377904471886 L211.16010173495852,67.08394654515124 L212.42684204482435,67.08394654515124 L212.42684204482435,64.88756159948613 L213.95957053529264,64.88756159948613 L213.95957053529264,67.08394654515124 L215.72668589850508,67.08394654515124 L215.72668589850508,68.26377904471886 L213.95957053529264,68.26377904471886 zM213.95957053529264,73.71260352261207 " stroke-width="0" id="svg_27"/>
<path style=" stroke:none;fill-rule:nonzero;fill:#FFFFFF;fill-opacity:1;" d="M230.8827932880609,66.15430123516191 L230.8827932880609,67.08394654515124 L232.8263563096287,67.08394654515124 L232.8263563096287,68.26377904471886 L230.8827932880609,68.26377904471886 L230.8827932880609,76.48046966670775 L229.34743073726355,76.48046966670775 L229.34743073726355,68.26377904471886 L228.33087829116607,68.26377904471886 L228.33087829116607,67.08394654515124 L229.34743073726355,67.08394654515124 L229.34743073726355,66.29914691146884 C229.34743073726355,65.9409834741001 229.36586578861682,65.47747784926995 229.4001018309943,65.15618384041768 C229.56074849832544,63.778835245002426 230.4903931341247,63.01247066267328 231.89934505996837,63.01247066267328 C232.2917445397146,63.01247066267328 232.6657096422976,63.046706705050724 232.9870029769598,63.09937779878143 L232.9870029769598,64.36875149478624 C231.82823891488442,64.15543373372444 231.05924094641625,64.42405597465597 230.93546370760163,65.19042055698515 C230.8985942790851,65.44060842075345 230.8827932880609,65.88831238036937 230.8827932880609,66.15430123516191 zM230.8827932880609,66.15430123516191 " stroke-width="0" id="svg_28"/>
<path style=" stroke:none;fill-rule:nonzero;fill:#FFFFFF;fill-opacity:1;" d="M247.92189177284666,71.74797138936204 C247.92189177284666,74.40786195985729 246.4418337019191,76.73065685628607 243.22889765853654,76.73065685628607 C240.01859432710302,76.73065685628607 238.5359028700363,74.40786195985729 238.5359028700363,71.74797138936204 C238.5359028700363,69.0670130555645 240.01859432710302,66.76265253629897 243.22889765853654,66.76265253629897 C246.4418337019191,66.76265253629897 247.92189177284666,69.0670130555645 247.92189177284666,71.74797138936204 zM246.24431760607155,71.74797138936204 C246.24431760607155,69.51471701518044 245.1382246377268,67.94248503586661 243.22889765853654,67.94248503586661 C241.3195700051562,67.94248503586661 240.21347703681158,69.51471701518044 240.21347703681158,71.74797138936204 C240.21347703681158,73.9627907121904 241.3195700051562,75.55345841704747 243.22889765853654,75.55345841704747 C245.1382246377268,75.55345841704747 246.24431760607155,73.9627907121904 246.24431760607155,71.74797138936204 zM246.24431760607155,71.74797138936204 " stroke-width="0" id="svg_29"/>
<path style=" stroke:none;fill-rule:nonzero;fill:#FFFFFF;fill-opacity:1;" d="M259.0038898937856,66.92329920363011 L259.0038898937856,68.0846966518445 C257.3974211979043,67.97672107824407 256.18335265595914,68.92480076539663 256.18335265595914,71.08694966868428 L256.18335265595914,76.48046966670775 L254.64799077935186,76.48046966670775 L254.64799077935186,67.01284040006729 L256.18335265595914,67.01284040006729 L256.18335265595914,68.49553185713393 L257.0392577605355,67.2261581611291 C257.4316579144717,66.96016930633658 257.9135985906551,66.79688857867643 258.36130255027103,66.79688857867643 C258.6114904140394,66.79952196481545 258.82480817510117,66.83375868138292 259.0038898937856,66.92329920363011 zM259.0038898937856,66.92329920363011 " stroke-width="0" id="svg_30"/>
<path style=" stroke:none;fill-rule:nonzero;fill:#FFFFFF;fill-opacity:1;" d="M275.3582648342623,73.71260352261207 C275.3582648342623,74.03389685727433 275.3582648342623,74.19454352460546 275.3740658252865,74.44473138837378 C275.44517197037044,75.35594164700984 275.8217704590924,75.55345841704747 277.0174039496843,75.40861274074055 L277.0174039496843,76.53577414657748 C276.5696993158783,76.60688029166144 276.1430637937547,76.62531466882467 275.713794211302,76.62531466882467 C274.53659577206344,76.62531466882467 273.9308778570654,76.14337466683129 273.8413373348182,74.96354216726365 C273.822902283465,74.71335430349535 273.822902283465,74.3183207634201 273.822902283465,73.78370966769602 L273.822902283465,68.26377904471886 L272.55616264778917,68.26377904471886 L272.55616264778917,67.08394654515124 L273.822902283465,67.08394654515124 L273.822902283465,64.88756159948613 L275.3582648342623,64.88756159948613 L275.3582648342623,67.08394654515124 L277.1227461371457,67.08394654515124 L277.1227461371457,68.26377904471886 L275.3582648342623,68.26377904471886 zM275.3582648342623,73.71260352261207 " stroke-width="0" id="svg_31"/>
<path style=" stroke:none;fill-rule:nonzero;fill:#FFFFFF;fill-opacity:1;" d="M291.97072712273444,71.15805513957822 L291.97072712273444,76.48046966670775 L290.4353652461271,76.48046966670775 L290.4353652461271,71.26603071317865 C290.4353652461271,70.78145665085624 290.4353652461271,70.38905717111003 290.3984951434206,69.90711716911665 C290.3089546211734,68.79839014044296 289.70323670617535,67.94248503586661 288.238980300462,67.97672107824407 C286.75892290372434,68.01359118095054 285.5106176452118,69.08544810691775 285.5106176452118,72.31945258779263 L285.5106176452118,76.48046966670775 L283.9752557686045,76.48046966670775 L283.9752557686045,63.262658526441584 L285.5106176452118,63.262658526441584 L285.5106176452118,68.63774347311181 L286.09790050885664,67.5500855561204 C286.9011345197022,66.92329920363011 287.59639295694745,66.76265253629897 288.5602743093143,66.76265253629897 C290.63024795583567,66.76265253629897 291.7916460782401,67.87137889078267 291.933857694218,69.53315206653369 C291.97072712273444,70.01509274271707 291.97072712273444,70.38905717111003 291.97072712273444,71.15805513957822 zM291.97072712273444,71.15805513957822 " stroke-width="0" id="svg_32"/>
<path style=" stroke:none;fill-rule:nonzero;fill:#FFFFFF;fill-opacity:1;" d="M307.15317039625063,72.21147701419218 L300.3006607647918,72.21147701419218 C300.44550644109876,74.71335430349535 301.6227055545274,75.55345841704747 303.0132224290178,75.55345841704747 C304.24572602231615,75.55345841704747 305.24384274287036,74.78445977438929 305.45979456426124,73.42554623032727 L307.0636291998134,73.42554623032727 C306.6896647714205,75.71410508437859 304.8883133658306,76.73065685628607 302.94211628393384,76.73065685628607 C300.4797424834762,76.73065685628607 298.64152164936985,75.12418883459478 298.64152164936985,71.7822081059295 C298.64152164936985,68.7114830043348 300.5508486285602,66.76265253629897 303.13963305397147,66.76265253629897 C305.74421847040696,66.76265253629897 307.19003982476715,68.7114830043348 307.19003982476715,71.47934914843047 C307.19003982476715,71.62156076440837 307.19003982476715,71.87174862817669 307.15317039625063,72.21147701419218 zM300.3190958161451,71.03164451462456 L305.63624289680655,71.03164451462456 C305.49403060663866,69.0670130555645 304.6565605534156,67.94248503586661 303.102762951265,67.94248503586661 C301.60427050317406,67.94248503586661 300.49817753482944,69.01434196183382 300.3190958161451,71.03164451462456 zM300.3190958161451,71.03164451462456 " stroke-width="0" id="svg_33"/>
<path style=" stroke:none;fill-rule:nonzero;fill:#FFFFFF;fill-opacity:1;" d="M332.2562136683013,70.17573941004821 C332.2562136683013,73.80214404485926 330.1493699190735,76.0538334703941 327.2945966388696,76.40936352162382 C326.67044367251833,76.48046966670775 326.38338638023356,76.48046966670775 325.7249980456948,76.48046966670775 L322.0669907546453,76.48046966670775 L322.0669907546453,64.15543373372444 L325.81453856794195,64.15543373372444 C326.4755609628097,64.15543373372444 326.7599848689555,64.15543373372444 327.38413716111677,64.22653920461835 C330.2389104413206,64.58206925584807 332.2562136683013,66.49403029536741 332.2562136683013,70.17573941004821 zM330.5786395015261,70.17573941004821 C330.5786395015261,67.44210998251997 329.3118991916603,65.83300790049967 327.2234904937856,65.49327884029415 C326.8310910140395,65.42217336940021 326.3675853892093,65.40373831804698 325.7249980456948,65.40373831804698 L323.60235263125264,65.40373831804698 L323.60235263125264,75.22953102205618 L325.6354568492576,75.22953102205618 C326.2780441927721,75.22953102205618 326.7415498176022,75.21372935684197 327.13394929734847,75.13998982561898 C329.22235866941315,74.80289482574253 330.5786395015261,73.08581717012177 330.5786395015261,70.17573941004821 zM330.5786395015261,70.17573941004821 " stroke-width="0" id="svg_34"/>
<path style=" stroke:none;fill-rule:nonzero;fill:#FFFFFF;fill-opacity:1;" d="M340.87320460264345,64.88756159948613 C340.87320460264345,65.44060842075345 340.4439350201908,65.86987732901615 339.89088887311357,65.86987732901615 C339.33784205184617,65.86987732901615 338.90857246939356,65.44060842075345 338.90857246939356,64.88756159948613 C338.90857246939356,64.33188139207977 339.33784205184617,63.905245869956104 339.89088887311357,63.905245869956104 C340.4439350201908,63.905245869956104 340.87320460264345,64.33188139207977 340.87320460264345,64.88756159948613 zM339.12452429078434,76.48046966670775 L339.12452429078434,67.01284040006729 L340.6598861673916,67.01284040006729 L340.6598861673916,76.48046966670775 zM339.12452429078434,76.48046966670775 " stroke-width="0" id="svg_35"/>
<path style=" stroke:none;fill-rule:nonzero;fill:#FFFFFF;fill-opacity:1;" d="M356.5059852219147,74.16030748222799 C356.5059852219147,74.7475903458728 356.5059852219147,75.48235227196353 356.48755017056146,75.99852899052438 C356.3980089741242,78.76902852075908 354.7204348073491,80.23328492647249 351.98943876595985,80.23328492647249 C349.2953121530872,80.23328492647249 347.9574663723274,79.10875690677459 347.75994960228974,77.10725534500806 L347.74151522512653,76.9281736263237 L349.2953121530872,76.9281736263237 L349.31111381830135,77.08882029365482 C349.437524443255,78.25021841605921 350.3645356929153,79.05345242690484 351.98943876595985,79.05345242690484 C353.8645297027727,79.05345242690484 354.8810814746801,77.98159550093764 354.9521876197642,76.1591756578555 C354.9706226711174,75.71410508437859 354.9706226711174,75.40861274074055 354.9706226711174,75.12418883459478 L354.9706226711174,74.96354216726365 L354.25692918251895,75.98272732531017 C353.71968402646576,76.42779789878705 352.7215673059116,76.7332909166151 351.75768595354475,76.7332909166151 C348.99245386977816,76.7332909166151 347.45709131898076,74.66068320976464 347.45709131898076,71.89018367952993 C347.45709131898076,68.39018966967255 349.6350405391026,66.76265253629897 352.07897928820705,66.76265253629897 C352.86377892188943,66.76265253629897 353.8645297027727,66.99440534871405 354.34647037895604,67.38943821459928 L354.9706226711174,68.31644946425958 L354.9706226711174,67.01284040006729 L356.5059852219147,67.01284040006729 zM354.9706226711174,71.83751258579923 L354.9706226711174,71.31870248109935 C354.9706226711174,68.87212967166593 353.43526012032004,67.94248503586661 352.07897928820705,67.94248503586661 C350.4198401727851,67.94248503586661 349.13466548575605,69.22765972289564 349.13466548575605,71.71110196084555 C349.13466548575605,73.85481513858997 350.0985461639328,75.55345841704747 351.98943876595985,75.55345841704747 C353.5590373591346,75.55345841704747 354.9706226711174,74.55270696197421 354.9706226711174,71.83751258579923 zM354.9706226711174,71.83751258579923 " stroke-width="0" id="svg_36"/>
<path style=" stroke:none;fill-rule:nonzero;fill:#FFFFFF;fill-opacity:1;" d="M365.83666897066524,64.88756159948613 C365.83666897066524,65.44060842075345 365.40740006240264,65.86987732901615 364.85435324113536,65.86987732901615 C364.30130709405796,65.86987732901615 363.87203751160524,65.44060842075345 363.87203751160524,64.88756159948613 C363.87203751160524,64.33188139207977 364.30130709405796,63.905245869956104 364.85435324113536,63.905245869956104 C365.40740006240264,63.905245869956104 365.83666897066524,64.33188139207977 365.83666897066524,64.88756159948613 zM364.08535527266713,76.48046966670775 L364.08535527266713,67.01284040006729 L365.6207178234645,67.01284040006729 L365.6207178234645,76.48046966670775 zM364.08535527266713,76.48046966670775 " stroke-width="0" id="svg_37"/>
<path style=" stroke:none;fill-rule:nonzero;fill:#FFFFFF;fill-opacity:1;" d="M375.04357615479137,73.71260352261207 C375.04357615479137,74.03389685727433 375.04357615479137,74.19454352460546 375.0593778200056,74.44473138837378 C375.13048396508947,75.35594164700984 375.50708177962144,75.55345841704747 376.70271594440334,75.40861274074055 L376.70271594440334,76.53577414657748 C376.2550119847875,76.60688029166144 375.8283757884737,76.62531466882467 375.39910620602114,76.62531466882467 C374.22190709259246,76.62531466882467 373.61618985178444,76.14337466683129 373.52664865534723,74.96354216726365 C373.50821427818397,74.71335430349535 373.50821427818397,74.3183207634201 373.50821427818397,73.78370966769602 L373.50821427818397,68.26377904471886 L372.24147396831813,68.26377904471886 L372.24147396831813,67.08394654515124 L373.50821427818397,67.08394654515124 L373.50821427818397,64.88756159948613 L375.04357615479137,64.88756159948613 L375.04357615479137,67.08394654515124 L376.80805813186475,67.08394654515124 L376.80805813186475,68.26377904471886 L375.04357615479137,68.26377904471886 zM375.04357615479137,73.71260352261207 " stroke-width="0" id="svg_38"/>
<path style=" stroke:none;fill-rule:nonzero;fill:#FFFFFF;fill-opacity:1;" d="M388.92504307606436,75.12418883459478 L388.4062329713644,76.14337466683129 C387.76364562784994,76.5884452403082 386.94460995179014,76.73065685628607 386.0334003673439,76.73065685628607 C384.3189560978622,76.73065685628607 382.98111031710255,75.78521122946255 382.98111031710255,74.03389685727433 C382.98111031710255,71.89018367952993 384.58757833879383,70.78145665085624 388.300890783903,70.78145665085624 L388.9066080247111,70.78145665085624 L388.9066080247111,70.5312694612779 C388.9066080247111,70.12043493017848 388.9066080247111,69.74646982759552 388.8697385961946,69.38830639022677 C388.7986324511106,68.51396623429719 388.300890783903,67.94248503586661 387.03151708789824,67.94248503586661 C385.74897646119825,67.94248503586661 385.1063891176837,68.63774347311181 384.9984135440833,69.94398659763313 L383.391944848202,69.94398659763313 C383.53415646417983,67.92404998451337 384.94574177616255,66.76265253629897 387.03151708789824,66.76265253629897 C389.280573127294,66.76265253629897 390.22601942830755,67.71073222345154 390.3866660956387,69.26452915141213 C390.42353552415517,69.63849425399509 390.44197057550844,70.10463326496426 390.44197057550844,70.51546779606372 L390.44197057550844,74.07076695998083 C390.44197057550844,74.78445977438929 390.4762072920759,75.4270477920938 390.6184189080538,76.48046966670775 L389.0856904175855,76.48046966670775 zM388.9066080247111,72.89093446041318 L388.9066080247111,71.92705310804642 C386.3020226082756,71.7295363380088 384.65868448387783,72.28258315927613 384.65868448387783,73.91012029264968 C384.65868448387783,75.05308268951084 385.3908130238295,75.55345841704747 386.54957708590484,75.55345841704747 C387.97959677505077,75.55345841704747 388.9066080247111,74.60537872989491 388.9066080247111,72.89093446041318 zM388.9066080247111,72.89093446041318 " stroke-width="0" id="svg_39"/>
<path style=" stroke:none;fill-rule:nonzero;fill:#FFFFFF;fill-opacity:1;" d="M399.4697960409501,73.76527461634278 C399.4697960409501,74.05233190862758 399.4697960409501,74.35519086612659 399.4882310923033,74.6580491494356 C399.52246713468077,75.26640045057268 399.8095251011556,75.46391722061028 400.6469951543787,75.3743760241731 L400.6469951543787,76.48046966670775 C400.3072667683631,76.53577414657748 399.91486728861696,76.55420852374074 399.55933723738724,76.55420852374074 C398.6665620301044,76.55420852374074 398.0055396352367,76.26715123145593 397.952868541506,75.07151774086408 C397.9344341643427,74.75022373201182 397.9344341643427,74.33938920091238 397.9344341643427,73.8205790962125 L397.9344341643427,63.352199048688774 L399.4697960409501,63.352199048688774 zM399.4697960409501,73.76527461634278 " stroke-width="0" id="svg_40"/>
<path style=" stroke:none;fill-rule:nonzero;fill:#FFFFFF;fill-opacity:1;" d="M423.4483119674928,76.48046966670775 L415.2579565552743,76.48046966670775 L415.2579565552743,64.15543373372444 L423.26922957461835,64.15543373372444 L423.26922957461835,65.40373831804698 L416.7906857199326,65.40373831804698 L416.7906857199326,69.69379873386482 L422.73461847889433,69.69379873386482 L422.73461847889433,70.9447373785164 L416.7906857199326,70.9447373785164 L416.7906857199326,75.2321644081952 L423.4483119674928,75.2321644081952 zM423.4483119674928,76.48046966670775 " stroke-width="0" id="svg_41"/>
<path style=" stroke:none;fill-rule:nonzero;fill:#FFFFFF;fill-opacity:1;" d="M437.7932838394059,70.19154040107243 L436.1868158177146,70.19154040107243 C435.8470867575091,68.67461290162831 435.02805175563924,67.94248503586661 433.76131144577346,67.94248503586661 C432.27862066289686,67.94248503586661 431.03031540438434,69.103882484081 431.03031540438434,71.65843086711486 C431.03031540438434,74.40786195985729 432.2443839463293,75.55345841704747 433.6533358721731,75.55345841704747 C434.9016411306856,75.55345841704747 435.77598128661515,74.83713154230998 436.09727462127745,73.46241565884375 L437.7037433171587,73.46241565884375 C437.2402376923285,75.65880060450887 435.6706390991538,76.73065685628607 433.56379534992584,76.73065685628607 C431.1725276945522,76.73065685628607 429.3527412376091,75.2321644081952 429.3527412376091,71.76640644071529 C429.3527412376091,68.56663732802788 431.4227148841304,66.76265253629897 433.79554816234094,66.76265253629897 C436.06303857890003,66.76265253629897 437.50885993326017,68.12156675455097 437.7932838394059,70.19154040107243 zM437.7932838394059,70.19154040107243 " stroke-width="0" id="svg_42"/>
<path style=" stroke:none;fill-rule:nonzero;fill:#FFFFFF;fill-opacity:1;" d="M453.0494666441452,71.74797138936204 C453.0494666441452,74.40786195985729 451.56940857321746,76.73065685628607 448.35647185564494,76.73065685628607 C445.14353513807237,76.73065685628607 443.66347706714475,74.40786195985729 443.66347706714475,71.74797138936204 C443.66347706714475,69.0670130555645 445.14353513807237,66.76265253629897 448.35647185564494,66.76265253629897 C451.56940857321746,66.76265253629897 453.0494666441452,69.0670130555645 453.0494666441452,71.74797138936204 zM451.3718918031799,71.74797138936204 C451.3718918031799,69.51471701518044 450.2657988348352,67.94248503586661 448.35647185564494,67.94248503586661 C446.4471448764546,67.94248503586661 445.34105190810993,69.51471701518044 445.34105190810993,71.74797138936204 C445.34105190810993,73.9627907121904 446.4471448764546,75.55345841704747 448.35647185564494,75.55345841704747 C450.2657988348352,75.55345841704747 451.3718918031799,73.9627907121904 451.3718918031799,71.74797138936204 zM451.3718918031799,71.74797138936204 " stroke-width="0" id="svg_43"/>
<path style=" stroke:none;fill-rule:nonzero;fill:#FFFFFF;fill-opacity:1;" d="M467.77103700478017,71.15805513957822 L467.77103700478017,76.48046966670775 L466.2356744539829,76.48046966670775 L466.2356744539829,71.26603071317865 C466.2356744539829,70.78145665085624 466.2356744539829,70.38905717111003 466.1988050254663,69.90711716911665 C466.1092638290292,68.79839014044296 465.50354658822107,67.97672107824407 464.0419235686467,67.97672107824407 C462.5592321115801,67.97672107824407 461.31092752725755,69.08544810691775 461.31092752725755,72.31945258779263 L461.31092752725755,76.48046966670775 L459.7755649764602,76.48046966670775 L459.7755649764602,67.01284040006729 L461.31092752725755,67.01284040006729 L461.31092752725755,68.63774347311181 L461.89821039090236,67.54745216998137 C462.70144440174795,66.92329920363011 463.3967028389932,66.76265253629897 464.36058351717,66.76265253629897 C466.4305578378814,66.76265253629897 467.5919552860958,67.87137889078267 467.73416757626376,69.53051868039466 C467.77103700478017,70.01509274271707 467.77103700478017,70.38905717111003 467.77103700478017,71.15805513957822 zM467.77103700478017,71.15805513957822 " stroke-width="0" id="svg_44"/>
<path style=" stroke:none;fill-rule:nonzero;fill:#FFFFFF;fill-opacity:1;" d="M483.83045382036505,71.74797138936204 C483.83045382036505,74.40786195985729 482.34776236329833,76.73065685628607 479.13482564572575,76.73065685628607 C475.92452231429223,76.73065685628607 474.4418308572256,74.40786195985729 474.4418308572256,71.74797138936204 C474.4418308572256,69.0670130555645 475.92452231429223,66.76265253629897 479.13482564572575,66.76265253629897 C482.34776236329833,66.76265253629897 483.83045382036505,69.0670130555645 483.83045382036505,71.74797138936204 zM482.15024559326076,71.74797138936204 C482.15024559326076,69.51471701518044 481.0441526249161,67.94248503586661 479.13482564572575,67.94248503586661 C477.2254979923454,67.94248503586661 476.1194056981908,69.51471701518044 476.1194056981908,71.74797138936204 C476.1194056981908,73.9627907121904 477.2254979923454,75.55345841704747 479.13482564572575,75.55345841704747 C481.0441526249161,75.55345841704747 482.15024559326076,73.9627907121904 482.15024559326076,71.74797138936204 zM482.15024559326076,71.74797138936204 " stroke-width="0" id="svg_45"/>
<path style=" stroke:none;fill-rule:nonzero;fill:#FFFFFF;fill-opacity:1;" d="M503.22394985781796,70.69454951474808 L503.22394985781796,76.48046966670775 L501.69122136734967,76.48046966670775 L501.69122136734967,71.40824300334653 C501.69122136734967,70.5681388897944 501.67278631599646,70.04932878509453 501.6201152222658,69.56738810891113 C501.4752695459588,68.49553185713393 500.79844616006693,67.97672107824407 499.72658923409955,67.97672107824407 C498.53095574350783,67.97672107824407 497.6566155875782,68.92480076539663 497.6566155875782,71.80064248309273 L497.6566155875782,76.48046966670775 L496.1238864229199,76.48046966670775 L496.1238864229199,71.40824300334653 C496.1238864229199,70.5681388897944 496.1054520457567,70.04932878509453 496.05014756588696,69.56738810891113 C495.90793527571907,68.49553185713393 495.2311118898271,67.97672107824407 494.15925496385984,67.97672107824407 C492.96362079907794,67.97672107824407 492.0892813173385,68.92480076539663 492.0892813173385,71.80064248309273 L492.0892813173385,76.48046966670775 L490.5565521526802,76.48046966670775 L490.5565521526802,67.01284040006729 L492.0892813173385,67.01284040006729 L492.0892813173385,68.38755560934351 L492.69763194428555,67.3156993575663 C493.17957262046895,66.92329920363011 493.85639600636085,66.76265253629897 494.696500119913,66.76265253629897 C496.1396880881341,66.76265253629897 497.0693327239335,67.49478040206068 497.42486277516315,68.53240128565044 L498.2649668887152,67.3156993575663 C498.7469075648987,66.92329920363011 499.4237309507906,66.76265253629897 500.2638350643428,66.76265253629897 C501.95984360828123,66.76265253629897 502.921091574509,67.76340331718224 503.13704272170986,69.0670130555645 C503.20814886679386,69.5489537317479 503.22394985781796,69.92555154627989 503.22394985781796,70.69454951474808 zM503.22394985781796,70.69454951474808 " stroke-width="0" id="svg_46"/>
<path style=" stroke:none;fill-rule:nonzero;fill:#FFFFFF;fill-opacity:1;" d="M514.5192664140087,77.28633706369244 C513.7502684455405,79.28520523931992 512.7337159994431,80.23328492647249 511.19835412283567,80.23328492647249 C510.8586250626302,80.23328492647249 510.6453073015683,80.23328492647249 510.4135544891533,80.196414823766 L510.4135544891533,78.94811023944345 C510.6453073015683,78.96391123046766 510.8059539688995,78.96391123046766 510.9666013104207,78.96391123046766 C511.9120469372441,78.96391123046766 512.5361992294054,78.55307669936823 513.0181399055888,77.30213872890664 L513.1445505305426,76.96504372903017 L509.37856766589255,67.01284040006729 L511.1088129263985,67.01284040006729 L513.929350164225,75.3375065956566 L516.7314523506981,67.01284040006729 L518.4090265174733,67.01284040006729 zM514.5192664140087,77.28633706369244 " stroke-width="0" id="svg_47"/>
</g></g></g><g style=""><title>Layer 2</title><rect id="ee-background" x="0" y="0" width="865.8619384765625" height="130.89657592773438" style="fill: white; fill-opacity: 0;"/></g></svg>